ISO-10303-21;
HEADER;
FILE_DESCRIPTION (( 'STEP AP214' ),
    '1' );
FILE_NAME ('Link1.STEP',
    '2023-11-10T07:16:12',
    ( '' ),
    ( '' ),
    'SwSTEP 2.0',
    'SolidWorks 2020',
    '' );
FILE_SCHEMA (( 'AUTOMOTIVE_DESIGN' ));
ENDSEC;

DATA;
#1 = AXIS2_PLACEMENT_3D ( 'NONE', #46, #527, #294 ) ;
#2 = ADVANCED_FACE ( 'NONE', ( #96 ), #91, .F. ) ;
#3 = FACE_OUTER_BOUND ( 'NONE', #192, .T. ) ;
#4 = DIRECTION ( 'NONE',  ( 0.000000000000000000, 0.000000000000000000, -1.000000000000000000 ) ) ;
#5 = EDGE_CURVE ( 'NONE', #115, #305, #53, .T. ) ;
#6 = PLANE ( 'NONE',  #481 ) ;
#7 = STYLED_ITEM ( 'NONE', ( #359 ), #558 ) ;
#8 = CYLINDRICAL_SURFACE ( 'NONE', #177, 75.00000000000001421 ) ;
#9 = ADVANCED_FACE ( 'NONE', ( #210 ), #349, .T. ) ;
#10 = CARTESIAN_POINT ( 'NONE',  ( 42.49999999999986500, 350.0000000000000000, -37.50000000000000000 ) ) ;
#11 = DIRECTION ( 'NONE',  ( 0.000000000000000000, 1.000000000000000000, 0.000000000000000000 ) ) ;
#12 = DIRECTION ( 'NONE',  ( 0.000000000000000000, 1.000000000000000000, 0.000000000000000000 ) ) ;
#13 = ORIENTED_EDGE ( 'NONE', *, *, #120, .T. ) ;
#14 = SURFACE_STYLE_FILL_AREA ( #322 ) ;
#15 = CARTESIAN_POINT ( 'NONE',  ( 3.469446951953614189E-14, 106.6611831308180030, -42.49999999999986500 ) ) ;
#16 = VECTOR ( 'NONE', #160, 1000.000000000000000 ) ;
#17 = ORIENTED_EDGE ( 'NONE', *, *, #388, .T. ) ;
#18 = CARTESIAN_POINT ( 'NONE',  ( 3.469446951953614189E-14, 106.6611831308180030, -37.50000000000000000 ) ) ;
#19 = AXIS2_PLACEMENT_3D ( 'NONE', #560, #30, #243 ) ;
#20 = LINE ( 'NONE', #545, #554 ) ;
#21 = EDGE_CURVE ( 'NONE', #471, #161, #327, .T. ) ;
#22 = VERTEX_POINT ( 'NONE', #477 ) ;
#23 = CARTESIAN_POINT ( 'NONE',  ( 37.50000000000000000, 387.5000000000000000, -37.50000000000000000 ) ) ;
#24 = AXIS2_PLACEMENT_3D ( 'NONE', #520, #443, #268 ) ;
#25 = ORIENTED_EDGE ( 'NONE', *, *, #467, .T. ) ;
#26 =( GEOMETRIC_REPRESENTATION_CONTEXT ( 3 ) GLOBAL_UNCERTAINTY_ASSIGNED_CONTEXT ( ( #512 ) ) GLOBAL_UNIT_ASSIGNED_CONTEXT ( ( #55, #105, #318 ) ) REPRESENTATION_CONTEXT ( 'NONE', 'WORKASPACE' ) );
#27 = DIRECTION ( 'NONE',  ( -1.000000000000000000, -1.176416932795360423E-16, 0.000000000000000000 ) ) ;
#28 = EDGE_CURVE ( 'NONE', #166, #471, #132, .T. ) ;
#29 = ORIENTED_EDGE ( 'NONE', *, *, #328, .F. ) ;
#30 = DIRECTION ( 'NONE',  ( 0.000000000000000000, 0.000000000000000000, 1.000000000000000000 ) ) ;
#31 = EDGE_CURVE ( 'NONE', #43, #305, #174, .T. ) ;
#32 = FACE_OUTER_BOUND ( 'NONE', #261, .T. ) ;
#33 = ORIENTED_EDGE ( 'NONE', *, *, #82, .T. ) ;
#34 = DIRECTION ( 'NONE',  ( 0.000000000000000000, 0.000000000000000000, 1.000000000000000000 ) ) ;
#35 = VECTOR ( 'NONE', #149, 1000.000000000000000 ) ;
#36 = ORIENTED_EDGE ( 'NONE', *, *, #219, .F. ) ;
#37 = LINE ( 'NONE', #40, #16 ) ;
#38 = MECHANICAL_DESIGN_GEOMETRIC_PRESENTATION_REPRESENTATION (  '', ( #7 ), #501 ) ;
#39 = EDGE_LOOP ( 'NONE', ( #464, #239, #155, #383 ) ) ;
#40 = CARTESIAN_POINT ( 'NONE',  ( 42.49999999999986500, 350.0000000000000000, 37.50000000000000000 ) ) ;
#41 = MECHANICAL_DESIGN_GEOMETRIC_PRESENTATION_REPRESENTATION (  '', ( #130 ), #238 ) ;
#42 = EDGE_CURVE ( 'NONE', #371, #189, #316, .T. ) ;
#43 = VERTEX_POINT ( 'NONE', #448 ) ;
#44 = DIRECTION ( 'NONE',  ( -1.000000000000000000, -0.000000000000000000, -0.000000000000000000 ) ) ;
#45 = ORIENTED_EDGE ( 'NONE', *, *, #486, .T. ) ;
#46 = CARTESIAN_POINT ( 'NONE',  ( 27.50000000000000355, 350.0000000000000000, 0.000000000000000000 ) ) ;
#47 = AXIS2_PLACEMENT_3D ( 'NONE', #441, #54, #534 ) ;
#48 = CARTESIAN_POINT ( 'NONE',  ( 37.50000000000000000, 350.0000000000000000, 0.000000000000000000 ) ) ;
#49 = DIRECTION ( 'NONE',  ( -0.000000000000000000, -1.000000000000000000, -0.000000000000000000 ) ) ;
#50 = EDGE_LOOP ( 'NONE', ( #506, #565 ) ) ;
#51 = CARTESIAN_POINT ( 'NONE',  ( -37.50000000000000000, 387.5000000000000000, 37.50000000000000000 ) ) ;
#52 = CARTESIAN_POINT ( 'NONE',  ( 0.000000000000000000, 40.00000000000000000, 0.000000000000000000 ) ) ;
#53 = LINE ( 'NONE', #352, #397 ) ;
#54 = DIRECTION ( 'NONE',  ( 0.000000000000000000, 1.000000000000000000, 0.000000000000000000 ) ) ;
#55 =( LENGTH_UNIT ( ) NAMED_UNIT ( * ) SI_UNIT ( .MILLI., .METRE. ) );
#56 = EDGE_CURVE ( 'NONE', #112, #43, #410, .T. ) ;
#57 = EDGE_CURVE ( 'NONE', #108, #75, #320, .T. ) ;
#58 = AXIS2_PLACEMENT_3D ( 'NONE', #18, #551, #188 ) ;
#59 = PLANE ( 'NONE',  #244 ) ;
#60 = CARTESIAN_POINT ( 'NONE',  ( -27.50000000000000355, 350.0000000000000000, -37.50000000000000000 ) ) ;
#61 = CARTESIAN_POINT ( 'NONE',  ( 0.000000000000000000, 40.00000000000000000, -75.00000000000001421 ) ) ;
#62 = VERTEX_POINT ( 'NONE', #537 ) ;
#63 = PRODUCT ( 'Link1', 'Link1', '', ( #296 ) ) ;
#64 = VECTOR ( 'NONE', #181, 1000.000000000000000 ) ;
#65 = PLANE ( 'NONE',  #498 ) ;
#66 = FACE_OUTER_BOUND ( 'NONE', #548, .T. ) ;
#67 = AXIS2_PLACEMENT_3D ( 'NONE', #48, #358, #139 ) ;
#68 = ORIENTED_EDGE ( 'NONE', *, *, #191, .F. ) ;
#69 = FACE_OUTER_BOUND ( 'NONE', #286, .T. ) ;
#70 = ORIENTED_EDGE ( 'NONE', *, *, #440, .F. ) ;
#71 = CARTESIAN_POINT ( 'NONE',  ( -37.50000000000000000, 350.0000000000000000, 0.000000000000000000 ) ) ;
#72 = ORIENTED_EDGE ( 'NONE', *, *, #31, .F. ) ;
#73 = DIRECTION ( 'NONE',  ( 0.000000000000000000, 0.000000000000000000, 1.000000000000000000 ) ) ;
#74 = AXIS2_PLACEMENT_3D ( 'NONE', #510, #27, #336 ) ;
#75 = VERTEX_POINT ( 'NONE', #146 ) ;
#76 = AXIS2_PLACEMENT_3D ( 'NONE', #251, #343, #201 ) ;
#77 = LINE ( 'NONE', #147, #400 ) ;
#78 = AXIS2_PLACEMENT_3D ( 'NONE', #237, #116, #458 ) ;
#79 = ORIENTED_EDGE ( 'NONE', *, *, #402, .T. ) ;
#80 = FACE_OUTER_BOUND ( 'NONE', #85, .T. ) ;
#81 = ORIENTED_EDGE ( 'NONE', *, *, #228, .F. ) ;
#82 = EDGE_CURVE ( 'NONE', #112, #115, #309, .T. ) ;
#83 = CARTESIAN_POINT ( 'NONE',  ( 42.49999999999986500, 350.0000000000000000, 22.50000000000000711 ) ) ;
#84 = AXIS2_PLACEMENT_3D ( 'NONE', #475, #399, #526 ) ;
#85 = EDGE_LOOP ( 'NONE', ( #151, #466, #198, #182 ) ) ;
#86 = PLANE ( 'NONE',  #217 ) ;
#87 = VERTEX_POINT ( 'NONE', #494 ) ;
#88 = CARTESIAN_POINT ( 'NONE',  ( -37.50000000000000000, 350.0000000000000000, 37.50000000000000000 ) ) ;
#89 = ORIENTED_EDGE ( 'NONE', *, *, #493, .F. ) ;
#90 = DIRECTION ( 'NONE',  ( -0.000000000000000000, -0.000000000000000000, 1.000000000000000000 ) ) ;
#91 = CYLINDRICAL_SURFACE ( 'NONE', #24, 22.50000000000000711 ) ;
#92 = LINE ( 'NONE', #404, #136 ) ;
#93 = CIRCLE ( 'NONE', #463, 22.50000000000002132 ) ;
#94 = VERTEX_POINT ( 'NONE', #366 ) ;
#95 = LINE ( 'NONE', #172, #368 ) ;
#96 = FACE_OUTER_BOUND ( 'NONE', #340, .T. ) ;
#97 = CARTESIAN_POINT ( 'NONE',  ( 27.50000000000000355, 350.0000000000000000, 0.000000000000000000 ) ) ;
#98 =( NAMED_UNIT ( * ) PLANE_ANGLE_UNIT ( ) SI_UNIT ( $, .RADIAN. ) );
#99 = DIRECTION ( 'NONE',  ( -0.000000000000000000, -1.000000000000000000, -0.000000000000000000 ) ) ;
#100 = DIRECTION ( 'NONE',  ( -0.000000000000000000, -1.000000000000000000, -0.000000000000000000 ) ) ;
#101 = COLOUR_RGB ( '',0.7921568627450980005, 0.8196078431372548767, 0.9333333333333333481 ) ;
#102 = CYLINDRICAL_SURFACE ( 'NONE', #271, 27.49999999999999645 ) ;
#103 = SURFACE_STYLE_USAGE ( .BOTH. , #540 ) ;
#104 = DIRECTION ( 'NONE',  ( 0.000000000000000000, 0.000000000000000000, 1.000000000000000000 ) ) ;
#105 =( NAMED_UNIT ( * ) PLANE_ANGLE_UNIT ( ) SI_UNIT ( $, .RADIAN. ) );
#106 = FACE_BOUND ( 'NONE', #50, .T. ) ;
#107 = ADVANCED_FACE ( 'NONE', ( #489 ), #102, .F. ) ;
#108 = VERTEX_POINT ( 'NONE', #60 ) ;
#109 = AXIS2_PLACEMENT_3D ( 'NONE', #142, #233, #104 ) ;
#110 = DIRECTION ( 'NONE',  ( 0.000000000000000000, 0.000000000000000000, 1.000000000000000000 ) ) ;
#111 = FACE_OUTER_BOUND ( 'NONE', #422, .T. ) ;
#112 = VERTEX_POINT ( 'NONE', #275 ) ;
#113 = CARTESIAN_POINT ( 'NONE',  ( 37.50000000000000000, 350.0000000000000000, 22.50000000000000711 ) ) ;
#114 = EDGE_CURVE ( 'NONE', #252, #280, #224, .T. ) ;
#115 = VERTEX_POINT ( 'NONE', #325 ) ;
#116 = DIRECTION ( 'NONE',  ( -1.000000000000000000, -0.000000000000000000, -0.000000000000000000 ) ) ;
#117 = VERTEX_POINT ( 'NONE', #236 ) ;
#118 = AXIS2_PLACEMENT_3D ( 'NONE', #531, #11, #231 ) ;
#119 = DIRECTION ( 'NONE',  ( 9.251858538542976511E-17, -1.000000000000000000, 0.000000000000000000 ) ) ;
#120 = EDGE_CURVE ( 'NONE', #394, #189, #496, .T. ) ;
#121 = ORIENTED_EDGE ( 'NONE', *, *, #258, .F. ) ;
#122 = DIRECTION ( 'NONE',  ( 1.000000000000000000, 0.000000000000000000, -0.000000000000000000 ) ) ;
#123 = ORIENTED_EDGE ( 'NONE', *, *, #263, .F. ) ;
#124 = DIRECTION ( 'NONE',  ( -1.000000000000000000, 0.000000000000000000, 0.000000000000000000 ) ) ;
#125 = ORIENTED_EDGE ( 'NONE', *, *, #440, .T. ) ;
#126 = CARTESIAN_POINT ( 'NONE',  ( -37.50000000000000000, 387.5000000000000000, -37.50000000000000000 ) ) ;
#127 = ORIENTED_EDGE ( 'NONE', *, *, #57, .F. ) ;
#128 = EDGE_LOOP ( 'NONE', ( #81, #367, #200, #203 ) ) ;
#129 = FACE_OUTER_BOUND ( 'NONE', #276, .T. ) ;
#130 = STYLED_ITEM ( 'NONE', ( #449 ), #445 ) ;
#131 = EDGE_CURVE ( 'NONE', #504, #62, #272, .T. ) ;
#132 = LINE ( 'NONE', #279, #478 ) ;
#133 = CARTESIAN_POINT ( 'NONE',  ( 27.50000000000000355, 350.0000000000000000, 37.50000000000000000 ) ) ;
#134 = VECTOR ( 'NONE', #180, 1000.000000000000000 ) ;
#135 = DIRECTION ( 'NONE',  ( -1.000000000000000000, 0.000000000000000000, -0.000000000000000000 ) ) ;
#136 = VECTOR ( 'NONE', #4, 1000.000000000000000 ) ;
#137 = ADVANCED_FACE ( 'NONE', ( #106, #66 ), #59, .F. ) ;
#138 = ORIENTED_EDGE ( 'NONE', *, *, #388, .F. ) ;
#139 = DIRECTION ( 'NONE',  ( 0.000000000000000000, 0.000000000000000000, 1.000000000000000000 ) ) ;
#140 = FACE_OUTER_BOUND ( 'NONE', #457, .T. ) ;
#141 = CARTESIAN_POINT ( 'NONE',  ( 0.000000000000000000, 0.000000000000000000, 0.000000000000000000 ) ) ;
#142 = CARTESIAN_POINT ( 'NONE',  ( 0.000000000000000000, 40.00000000000000000, 0.000000000000000000 ) ) ;
#143 = CIRCLE ( 'NONE', #292, 22.50000000000002132 ) ;
#144 = CARTESIAN_POINT ( 'NONE',  ( -27.49999999999999645, 387.5000000000000000, -37.50000000000000000 ) ) ;
#145 = ORIENTED_EDGE ( 'NONE', *, *, #28, .T. ) ;
#146 = CARTESIAN_POINT ( 'NONE',  ( -27.49999999999996092, 106.6611831308180030, -37.50000000000000000 ) ) ;
#147 = CARTESIAN_POINT ( 'NONE',  ( 42.49999999999986500, 350.0000000000000000, 22.50000000000000711 ) ) ;
#148 = AXIS2_PLACEMENT_3D ( 'NONE', #141, #12, #408 ) ;
#149 = DIRECTION ( 'NONE',  ( -0.000000000000000000, -1.000000000000000000, -0.000000000000000000 ) ) ;
#150 = EDGE_CURVE ( 'NONE', #108, #283, #407, .T. ) ;
#151 = ORIENTED_EDGE ( 'NONE', *, *, #114, .F. ) ;
#152 = DIRECTION ( 'NONE',  ( 0.000000000000000000, 0.000000000000000000, 1.000000000000000000 ) ) ;
#153 = EDGE_LOOP ( 'NONE', ( #209, #344, #389, #36 ) ) ;
#154 = CYLINDRICAL_SURFACE ( 'NONE', #78, 22.50000000000000711 ) ;
#155 = ORIENTED_EDGE ( 'NONE', *, *, #120, .F. ) ;
#156 = DIRECTION ( 'NONE',  ( 1.000000000000000000, 0.000000000000000000, 0.000000000000000000 ) ) ;
#157 = EDGE_CURVE ( 'NONE', #254, #62, #546, .T. ) ;
#158 = ORIENTED_EDGE ( 'NONE', *, *, #284, .F. ) ;
#159 = CIRCLE ( 'NONE', #1, 37.49999999999997868 ) ;
#160 = DIRECTION ( 'NONE',  ( -1.000000000000000000, -0.000000000000000000, -0.000000000000000000 ) ) ;
#161 = VERTEX_POINT ( 'NONE', #190 ) ;
#162 = FACE_OUTER_BOUND ( 'NONE', #306, .T. ) ;
#163 = EDGE_LOOP ( 'NONE', ( #424, #179, #515, #379 ) ) ;
#164 = FACE_OUTER_BOUND ( 'NONE', #163, .T. ) ;
#165 = AXIS2_PLACEMENT_3D ( 'NONE', #395, #567, #167 ) ;
#166 = VERTEX_POINT ( 'NONE', #544 ) ;
#167 = DIRECTION ( 'NONE',  ( 0.000000000000000000, 0.000000000000000000, 1.000000000000000000 ) ) ;
#168 = CARTESIAN_POINT ( 'NONE',  ( 37.50000000000000000, 40.00000000000000000, 37.50000000000000000 ) ) ;
#169 = VECTOR ( 'NONE', #100, 1000.000000000000000 ) ;
#170 = APPLICATION_CONTEXT ( 'automotive_design' ) ;
#171 = CARTESIAN_POINT ( 'NONE',  ( 42.49999999999986500, 350.0000000000000000, 0.000000000000000000 ) ) ;
#172 = CARTESIAN_POINT ( 'NONE',  ( 42.49999999999986500, 350.0000000000000000, -22.50000000000000711 ) ) ;
#173 =( LENGTH_UNIT ( ) NAMED_UNIT ( * ) SI_UNIT ( .MILLI., .METRE. ) );
#174 = CIRCLE ( 'NONE', #148, 75.00000000000001421 ) ;
#175 = DIRECTION ( 'NONE',  ( -1.000000000000000000, -1.176416932795360423E-16, -0.000000000000000000 ) ) ;
#176 =( NAMED_UNIT ( * ) SI_UNIT ( $, .STERADIAN. ) SOLID_ANGLE_UNIT ( ) );
#177 = AXIS2_PLACEMENT_3D ( 'NONE', #52, #49, #277 ) ;
#178 = PRODUCT_DEFINITION ( 'UNKNOWN', '', #403, #332 ) ;
#179 = ORIENTED_EDGE ( 'NONE', *, *, #381, .T. ) ;
#180 = DIRECTION ( 'NONE',  ( -1.000000000000000000, -0.000000000000000000, -0.000000000000000000 ) ) ;
#181 = DIRECTION ( 'NONE',  ( -0.000000000000000000, -0.000000000000000000, 1.000000000000000000 ) ) ;
#182 = ORIENTED_EDGE ( 'NONE', *, *, #317, .F. ) ;
#183 = ADVANCED_FACE ( 'NONE', ( #111 ), #65, .F. ) ;
#184 = PRESENTATION_LAYER_ASSIGNMENT (  '', '', ( #7 ) ) ;
#185 = APPLICATION_CONTEXT ( 'automotive_design' ) ;
#186 = DIRECTION ( 'NONE',  ( 1.000000000000000000, 0.000000000000000000, 0.000000000000000000 ) ) ;
#187 = ORIENTED_EDGE ( 'NONE', *, *, #5, .F. ) ;
#188 = DIRECTION ( 'NONE',  ( 1.000000000000000000, 0.000000000000000000, 0.000000000000000000 ) ) ;
#189 = VERTEX_POINT ( 'NONE', #549 ) ;
#190 = CARTESIAN_POINT ( 'NONE',  ( -37.50000000000000000, 350.0000000000000000, 22.50000000000000711 ) ) ;
#191 = EDGE_CURVE ( 'NONE', #22, #254, #338, .T. ) ;
#192 = EDGE_LOOP ( 'NONE', ( #348, #482, #138, #331, #295, #121, #559, #337 ) ) ;
#193 = CARTESIAN_POINT ( 'NONE',  ( 0.000000000000000000, 40.00000000000000000, 0.000000000000000000 ) ) ;
#194 = EDGE_LOOP ( 'NONE', ( #524, #123, #431, #68, #543, #205, #25, #334 ) ) ;
#195 = VECTOR ( 'NONE', #326, 1000.000000000000000 ) ;
#196 = SHAPE_DEFINITION_REPRESENTATION ( #541, #445 ) ;
#197 = DIRECTION ( 'NONE',  ( 0.000000000000000000, 1.000000000000000000, 0.000000000000000000 ) ) ;
#198 = ORIENTED_EDGE ( 'NONE', *, *, #451, .T. ) ;
#199 = FACE_BOUND ( 'NONE', #511, .T. ) ;
#200 = ORIENTED_EDGE ( 'NONE', *, *, #547, .T. ) ;
#201 = DIRECTION ( 'NONE',  ( 0.000000000000000000, 0.000000000000000000, 1.000000000000000000 ) ) ;
#202 = AXIS2_PLACEMENT_3D ( 'NONE', #382, #505, #152 ) ;
#203 = ORIENTED_EDGE ( 'NONE', *, *, #519, .T. ) ;
#204 = CARTESIAN_POINT ( 'NONE',  ( 37.50000000000000000, 40.00000000000000000, -37.50000000000000000 ) ) ;
#205 = ORIENTED_EDGE ( 'NONE', *, *, #42, .T. ) ;
#206 = DIRECTION ( 'NONE',  ( 1.000000000000000000, -0.000000000000000000, 0.000000000000000000 ) ) ;
#207 = ADVANCED_FACE ( 'NONE', ( #199, #32 ), #240, .F. ) ;
#208 = EDGE_CURVE ( 'NONE', #108, #22, #213, .T. ) ;
#209 = ORIENTED_EDGE ( 'NONE', *, *, #208, .F. ) ;
#210 = FACE_OUTER_BOUND ( 'NONE', #153, .T. ) ;
#211 = UNCERTAINTY_MEASURE_WITH_UNIT (LENGTH_MEASURE( 1.000000000000000082E-05 ), #270, 'distance_accuracy_value', 'NONE');
#212 = CARTESIAN_POINT ( 'NONE',  ( 37.50000000000000000, 350.0000000000000000, 0.000000000000000000 ) ) ;
#213 = CIRCLE ( 'NONE', #289, 37.49999999999997868 ) ;
#214 = ORIENTED_EDGE ( 'NONE', *, *, #258, .T. ) ;
#215 = ORIENTED_EDGE ( 'NONE', *, *, #82, .F. ) ;
#216 = DIRECTION ( 'NONE',  ( -1.176416932795360423E-16, 1.000000000000000000, 0.000000000000000000 ) ) ;
#217 = AXIS2_PLACEMENT_3D ( 'NONE', #437, #124, #299 ) ;
#218 = VECTOR ( 'NONE', #216, 1000.000000000000000 ) ;
#219 = EDGE_CURVE ( 'NONE', #22, #371, #20, .T. ) ;
#220 = DIRECTION ( 'NONE',  ( -1.000000000000000000, -0.000000000000000000, -0.000000000000000000 ) ) ;
#221 = LINE ( 'NONE', #357, #169 ) ;
#222 = DIRECTION ( 'NONE',  ( 0.000000000000000000, 0.000000000000000000, -1.000000000000000000 ) ) ;
#223 = PRODUCT_RELATED_PRODUCT_CATEGORY ( 'part', '', ( #63 ) ) ;
#224 = CIRCLE ( 'NONE', #301, 22.50000000000000711 ) ;
#225 = LINE ( 'NONE', #439, #438 ) ;
#226 = PLANE ( 'NONE',  #118 ) ;
#227 = DIRECTION ( 'NONE',  ( -1.176416932795360423E-16, 1.000000000000000000, 0.000000000000000000 ) ) ;
#228 = EDGE_CURVE ( 'NONE', #117, #385, #234, .T. ) ;
#229 = CARTESIAN_POINT ( 'NONE',  ( -37.50000000000000000, 40.00000000000000000, 37.50000000000000000 ) ) ;
#230 = ORIENTED_EDGE ( 'NONE', *, *, #402, .F. ) ;
#231 = DIRECTION ( 'NONE',  ( 0.000000000000000000, -0.000000000000000000, 1.000000000000000000 ) ) ;
#232 = VECTOR ( 'NONE', #99, 1000.000000000000000 ) ;
#233 = DIRECTION ( 'NONE',  ( 0.000000000000000000, 1.000000000000000000, 0.000000000000000000 ) ) ;
#234 = LINE ( 'NONE', #23, #386 ) ;
#235 = CIRCLE ( 'NONE', #321, 22.50000000000000711 ) ;
#236 = CARTESIAN_POINT ( 'NONE',  ( 37.50000000000000000, 350.0000000000000000, -37.50000000000000000 ) ) ;
#237 = CARTESIAN_POINT ( 'NONE',  ( 42.49999999999986500, 350.0000000000000000, 0.000000000000000000 ) ) ;
#238 =( GEOMETRIC_REPRESENTATION_CONTEXT ( 3 ) GLOBAL_UNCERTAINTY_ASSIGNED_CONTEXT ( ( #434 ) ) GLOBAL_UNIT_ASSIGNED_CONTEXT ( ( #173, #442, #176 ) ) REPRESENTATION_CONTEXT ( 'NONE', 'WORKASPACE' ) );
#239 = ORIENTED_EDGE ( 'NONE', *, *, #467, .F. ) ;
#240 = PLANE ( 'NONE',  #74 ) ;
#241 = EDGE_CURVE ( 'NONE', #115, #112, #454, .T. ) ;
#242 = EDGE_LOOP ( 'NONE', ( #293, #517 ) ) ;
#243 = DIRECTION ( 'NONE',  ( 1.000000000000000000, 0.000000000000000000, 0.000000000000000000 ) ) ;
#244 = AXIS2_PLACEMENT_3D ( 'NONE', #536, #446, #227 ) ;
#245 = DIRECTION ( 'NONE',  ( 0.000000000000000000, -0.000000000000000000, 1.000000000000000000 ) ) ;
#246 = AXIS2_PLACEMENT_3D ( 'NONE', #432, #206, #393 ) ;
#247 = ORIENTED_EDGE ( 'NONE', *, *, #157, .T. ) ;
#248 = DIRECTION ( 'NONE',  ( -1.000000000000000000, -0.000000000000000000, -0.000000000000000000 ) ) ;
#249 = ORIENTED_EDGE ( 'NONE', *, *, #250, .T. ) ;
#250 = EDGE_CURVE ( 'NONE', #371, #283, #529, .T. ) ;
#251 = CARTESIAN_POINT ( 'NONE',  ( 42.49999999999986500, 350.0000000000000000, 0.000000000000000000 ) ) ;
#252 = VERTEX_POINT ( 'NONE', #502 ) ;
#253 = DIRECTION ( 'NONE',  ( 0.000000000000000000, 0.000000000000000000, 1.000000000000000000 ) ) ;
#254 = VERTEX_POINT ( 'NONE', #384 ) ;
#255 = AXIS2_PLACEMENT_3D ( 'NONE', #470, #341, #396 ) ;
#256 = AXIS2_PLACEMENT_3D ( 'NONE', #71, #460, #417 ) ;
#257 = FACE_BOUND ( 'NONE', #242, .T. ) ;
#258 = EDGE_CURVE ( 'NONE', #283, #394, #413, .T. ) ;
#259 = ORIENTED_EDGE ( 'NONE', *, *, #114, .T. ) ;
#260 = CYLINDRICAL_SURFACE ( 'NONE', #557, 37.50000000000000000 ) ;
#261 = EDGE_LOOP ( 'NONE', ( #452, #364, #552, #127 ) ) ;
#262 = CARTESIAN_POINT ( 'NONE',  ( 27.50000000000000355, 350.0000000000000000, -22.50000000000000711 ) ) ;
#263 = EDGE_CURVE ( 'NONE', #62, #459, #281, .T. ) ;
#264 = LINE ( 'NONE', #269, #539 ) ;
#265 = DIRECTION ( 'NONE',  ( -1.541976423090493661E-16, 1.000000000000000000, 0.000000000000000000 ) ) ;
#266 = EDGE_CURVE ( 'NONE', #75, #504, #503, .T. ) ;
#267 = FILL_AREA_STYLE ('',( #315 ) ) ;
#268 = DIRECTION ( 'NONE',  ( 0.000000000000000000, 0.000000000000000000, 1.000000000000000000 ) ) ;
#269 = CARTESIAN_POINT ( 'NONE',  ( -37.50000000000000000, 40.00000000000000000, 37.50000000000000000 ) ) ;
#270 =( LENGTH_UNIT ( ) NAMED_UNIT ( * ) SI_UNIT ( .MILLI., .METRE. ) );
#271 = AXIS2_PLACEMENT_3D ( 'NONE', #15, #274, #186 ) ;
#272 = LINE ( 'NONE', #360, #427 ) ;
#273 = ADVANCED_FACE ( 'NONE', ( #69 ), #154, .F. ) ;
#274 = DIRECTION ( 'NONE',  ( -0.000000000000000000, -0.000000000000000000, 1.000000000000000000 ) ) ;
#275 = CARTESIAN_POINT ( 'NONE',  ( 0.000000000000000000, 40.00000000000000000, -75.00000000000001421 ) ) ;
#276 = EDGE_LOOP ( 'NONE', ( #249, #214, #13, #298 ) ) ;
#277 = DIRECTION ( 'NONE',  ( 0.000000000000000000, 0.000000000000000000, -1.000000000000000000 ) ) ;
#278 = AXIS2_PLACEMENT_3D ( 'NONE', #423, #333, #110 ) ;
#279 = CARTESIAN_POINT ( 'NONE',  ( 42.49999999999986500, 350.0000000000000000, -22.50000000000000711 ) ) ;
#280 = VERTEX_POINT ( 'NONE', #113 ) ;
#281 = LINE ( 'NONE', #507, #195 ) ;
#282 = AXIS2_PLACEMENT_3D ( 'NONE', #97, #175, #311 ) ;
#283 = VERTEX_POINT ( 'NONE', #290 ) ;
#284 = EDGE_CURVE ( 'NONE', #94, #161, #77, .T. ) ;
#285 = DIRECTION ( 'NONE',  ( -0.000000000000000000, -1.000000000000000000, -0.000000000000000000 ) ) ;
#286 = EDGE_LOOP ( 'NONE', ( #89, #362, #288, #45 ) ) ;
#287 = DIRECTION ( 'NONE',  ( -1.000000000000000000, -0.000000000000000000, -0.000000000000000000 ) ) ;
#288 = ORIENTED_EDGE ( 'NONE', *, *, #317, .T. ) ;
#289 = AXIS2_PLACEMENT_3D ( 'NONE', #456, #453, #119 ) ;
#290 = CARTESIAN_POINT ( 'NONE',  ( -37.50000000000000000, 350.0000000000000000, -37.50000000000000000 ) ) ;
#291 = EDGE_CURVE ( 'NONE', #161, #471, #378, .T. ) ;
#292 = AXIS2_PLACEMENT_3D ( 'NONE', #405, #485, #265 ) ;
#293 = ORIENTED_EDGE ( 'NONE', *, *, #291, .F. ) ;
#294 = DIRECTION ( 'NONE',  ( -9.251858538542976511E-17, 1.000000000000000000, 0.000000000000000000 ) ) ;
#295 = ORIENTED_EDGE ( 'NONE', *, *, #508, .T. ) ;
#296 = PRODUCT_CONTEXT ( 'NONE', #170, 'mechanical' ) ;
#297 = DIRECTION ( 'NONE',  ( -1.000000000000000000, 0.000000000000000000, 0.000000000000000000 ) ) ;
#298 = ORIENTED_EDGE ( 'NONE', *, *, #42, .F. ) ;
#299 = DIRECTION ( 'NONE',  ( 0.000000000000000000, 0.000000000000000000, 1.000000000000000000 ) ) ;
#300 = ADVANCED_FACE ( 'NONE', ( #462 ), #372, .T. ) ;
#301 = AXIS2_PLACEMENT_3D ( 'NONE', #455, #450, #370 ) ;
#302 = ORIENTED_EDGE ( 'NONE', *, *, #499, .T. ) ;
#303 = DIRECTION ( 'NONE',  ( -0.000000000000000000, -1.000000000000000000, -0.000000000000000000 ) ) ;
#304 = CARTESIAN_POINT ( 'NONE',  ( -27.50000000000000355, 350.0000000000000000, 0.000000000000000000 ) ) ;
#305 = VERTEX_POINT ( 'NONE', #415 ) ;
#306 = EDGE_LOOP ( 'NONE', ( #70, #523, #302, #17 ) ) ;
#307 = PLANE ( 'NONE',  #350 ) ;
#308 = DIRECTION ( 'NONE',  ( 1.000000000000000000, 0.000000000000000000, 0.000000000000000000 ) ) ;
#309 = CIRCLE ( 'NONE', #109, 75.00000000000001421 ) ;
#310 = ADVANCED_FACE ( 'NONE', ( #3 ), #307, .F. ) ;
#311 = DIRECTION ( 'NONE',  ( -1.541976423090493661E-16, 1.000000000000000000, 0.000000000000000000 ) ) ;
#312 = CIRCLE ( 'NONE', #282, 22.50000000000002132 ) ;
#313 = ORIENTED_EDGE ( 'NONE', *, *, #131, .F. ) ;
#314 = CARTESIAN_POINT ( 'NONE',  ( 27.50000000000003197, 106.6611831308180030, -37.50000000000000000 ) ) ;
#315 = FILL_AREA_STYLE_COLOUR ( '', #532 ) ;
#316 = LINE ( 'NONE', #488, #232 ) ;
#317 = EDGE_CURVE ( 'NONE', #280, #509, #472, .T. ) ;
#318 =( NAMED_UNIT ( * ) SI_UNIT ( $, .STERADIAN. ) SOLID_ANGLE_UNIT ( ) );
#319 = VECTOR ( 'NONE', #377, 1000.000000000000000 ) ;
#320 = LINE ( 'NONE', #144, #375 ) ;
#321 = AXIS2_PLACEMENT_3D ( 'NONE', #212, #297, #34 ) ;
#322 = FILL_AREA_STYLE ('',( #365 ) ) ;
#323 = DIRECTION ( 'NONE',  ( -1.000000000000000000, -0.000000000000000000, -0.000000000000000000 ) ) ;
#324 = EDGE_LOOP ( 'NONE', ( #342, #259 ) ) ;
#325 = CARTESIAN_POINT ( 'NONE',  ( 9.184850993605150311E-15, 40.00000000000000000, 75.00000000000001421 ) ) ;
#326 = DIRECTION ( 'NONE',  ( -1.176416932795360423E-16, 1.000000000000000000, -0.000000000000000000 ) ) ;
#327 = CIRCLE ( 'NONE', #84, 22.50000000000000711 ) ;
#328 = EDGE_CURVE ( 'NONE', #504, #550, #387, .T. ) ;
#329 = EDGE_LOOP ( 'NONE', ( #555, #474, #469, #500 ) ) ;
#330 = CARTESIAN_POINT ( 'NONE',  ( -27.49999999999999645, 401.5776243375623267, 37.50000000000000000 ) ) ;
#331 = ORIENTED_EDGE ( 'NONE', *, *, #228, .T. ) ;
#332 = PRODUCT_DEFINITION_CONTEXT ( 'detailed design', #185, 'design' ) ;
#333 = DIRECTION ( 'NONE',  ( -1.000000000000000000, 0.000000000000000000, 0.000000000000000000 ) ) ;
#334 = ORIENTED_EDGE ( 'NONE', *, *, #547, .F. ) ;
#335 = ADVANCED_FACE ( 'NONE', ( #80 ), #556, .F. ) ;
#336 = DIRECTION ( 'NONE',  ( 1.176416932795360423E-16, -1.000000000000000000, 0.000000000000000000 ) ) ;
#337 = ORIENTED_EDGE ( 'NONE', *, *, #57, .T. ) ;
#338 = LINE ( 'NONE', #330, #319 ) ;
#339 = CIRCLE ( 'NONE', #255, 22.50000000000002132 ) ;
#340 = EDGE_LOOP ( 'NONE', ( #79, #145, #373, #158 ) ) ;
#341 = DIRECTION ( 'NONE',  ( 1.000000000000000000, 1.176416932795360423E-16, 0.000000000000000000 ) ) ;
#342 = ORIENTED_EDGE ( 'NONE', *, *, #355, .T. ) ;
#343 = DIRECTION ( 'NONE',  ( -1.000000000000000000, -0.000000000000000000, -0.000000000000000000 ) ) ;
#344 = ORIENTED_EDGE ( 'NONE', *, *, #150, .T. ) ;
#345 = ADVANCED_FACE ( 'NONE', ( #162 ), #260, .T. ) ;
#346 = CARTESIAN_POINT ( 'NONE',  ( 27.50000000000000355, 387.5000000000000000, -37.50000000000000000 ) ) ;
#347 = VECTOR ( 'NONE', #363, 1000.000000000000000 ) ;
#348 = ORIENTED_EDGE ( 'NONE', *, *, #266, .T. ) ;
#349 = CYLINDRICAL_SURFACE ( 'NONE', #165, 37.50000000000000000 ) ;
#350 = AXIS2_PLACEMENT_3D ( 'NONE', #126, #465, #122 ) ;
#351 = DIRECTION ( 'NONE',  ( 1.541976423090493661E-16, -1.000000000000000000, 0.000000000000000000 ) ) ;
#352 = CARTESIAN_POINT ( 'NONE',  ( 9.184850993605150311E-15, 40.00000000000000000, 75.00000000000001421 ) ) ;
#353 = CARTESIAN_POINT ( 'NONE',  ( -37.50000000000000000, 40.00000000000000000, -37.50000000000000000 ) ) ;
#354 = CARTESIAN_POINT ( 'NONE',  ( 3.469446951953614189E-14, 106.6611831308180030, 37.50000000000000000 ) ) ;
#355 = EDGE_CURVE ( 'NONE', #280, #252, #235, .T. ) ;
#356 = FACE_BOUND ( 'NONE', #39, .T. ) ;
#357 = CARTESIAN_POINT ( 'NONE',  ( 37.50000000000000000, 387.5000000000000000, 37.50000000000000000 ) ) ;
#358 = DIRECTION ( 'NONE',  ( -1.000000000000000000, 0.000000000000000000, 0.000000000000000000 ) ) ;
#359 = PRESENTATION_STYLE_ASSIGNMENT (( #409 ) ) ;
#360 = CARTESIAN_POINT ( 'NONE',  ( 27.50000000000003197, 106.6611831308180030, -42.49999999999986500 ) ) ;
#361 = EDGE_CURVE ( 'NONE', #87, #459, #37, .T. ) ;
#362 = ORIENTED_EDGE ( 'NONE', *, *, #355, .F. ) ;
#363 = DIRECTION ( 'NONE',  ( -0.000000000000000000, -1.000000000000000000, -0.000000000000000000 ) ) ;
#364 = ORIENTED_EDGE ( 'NONE', *, *, #191, .T. ) ;
#365 = FILL_AREA_STYLE_COLOUR ( '', #101 ) ;
#366 = CARTESIAN_POINT ( 'NONE',  ( -27.50000000000000355, 350.0000000000000000, 22.50000000000000711 ) ) ;
#367 = ORIENTED_EDGE ( 'NONE', *, *, #499, .F. ) ;
#368 = VECTOR ( 'NONE', #483, 1000.000000000000000 ) ;
#369 =( NAMED_UNIT ( * ) SI_UNIT ( $, .STERADIAN. ) SOLID_ANGLE_UNIT ( ) );
#370 = DIRECTION ( 'NONE',  ( 0.000000000000000000, 0.000000000000000000, 1.000000000000000000 ) ) ;
#371 = VERTEX_POINT ( 'NONE', #88 ) ;
#372 = CYLINDRICAL_SURFACE ( 'NONE', #421, 75.00000000000001421 ) ;
#373 = ORIENTED_EDGE ( 'NONE', *, *, #21, .T. ) ;
#374 = CARTESIAN_POINT ( 'NONE',  ( 0.000000000000000000, 0.000000000000000000, 0.000000000000000000 ) ) ;
#375 = VECTOR ( 'NONE', #538, 1000.000000000000000 ) ;
#376 = ORIENTED_EDGE ( 'NONE', *, *, #31, .T. ) ;
#377 = DIRECTION ( 'NONE',  ( 1.176416932795360423E-16, -1.000000000000000000, 0.000000000000000000 ) ) ;
#378 = CIRCLE ( 'NONE', #256, 22.50000000000000711 ) ;
#379 = ORIENTED_EDGE ( 'NONE', *, *, #291, .T. ) ;
#380 = APPLICATION_PROTOCOL_DEFINITION ( 'draft international standard', 'automotive_design', 1998, #185 ) ;
#381 = EDGE_CURVE ( 'NONE', #166, #94, #339, .T. ) ;
#382 = CARTESIAN_POINT ( 'NONE',  ( 0.000000000000000000, 40.00000000000000000, 0.000000000000000000 ) ) ;
#383 = ORIENTED_EDGE ( 'NONE', *, *, #508, .F. ) ;
#384 = CARTESIAN_POINT ( 'NONE',  ( -27.49999999999996092, 106.6611831308180030, 37.50000000000000000 ) ) ;
#385 = VERTEX_POINT ( 'NONE', #204 ) ;
#386 = VECTOR ( 'NONE', #285, 1000.000000000000000 ) ;
#387 = LINE ( 'NONE', #346, #218 ) ;
#388 = EDGE_CURVE ( 'NONE', #117, #550, #435, .T. ) ;
#389 = ORIENTED_EDGE ( 'NONE', *, *, #250, .F. ) ;
#390 = FACE_OUTER_BOUND ( 'NONE', #128, .T. ) ;
#391 = ADVANCED_FACE ( 'NONE', ( #164 ), #401, .F. ) ;
#392 = ORIENTED_EDGE ( 'NONE', *, *, #381, .F. ) ;
#393 = DIRECTION ( 'NONE',  ( 0.000000000000000000, 0.000000000000000000, -1.000000000000000000 ) ) ;
#394 = VERTEX_POINT ( 'NONE', #353 ) ;
#395 = CARTESIAN_POINT ( 'NONE',  ( 42.49999999999986500, 350.0000000000000000, 0.000000000000000000 ) ) ;
#396 = DIRECTION ( 'NONE',  ( 1.541976423090493661E-16, -1.000000000000000000, 0.000000000000000000 ) ) ;
#397 = VECTOR ( 'NONE', #303, 1000.000000000000000 ) ;
#398 = AXIS2_PLACEMENT_3D ( 'NONE', #171, #516, #568 ) ;
#399 = DIRECTION ( 'NONE',  ( -1.000000000000000000, 0.000000000000000000, 0.000000000000000000 ) ) ;
#400 = VECTOR ( 'NONE', #287, 1000.000000000000000 ) ;
#401 = CYLINDRICAL_SURFACE ( 'NONE', #398, 22.50000000000000711 ) ;
#402 = EDGE_CURVE ( 'NONE', #94, #166, #93, .T. ) ;
#403 = PRODUCT_DEFINITION_FORMATION_WITH_SPECIFIED_SOURCE ( 'ANY', '', #63, .NOT_KNOWN. ) ;
#404 = CARTESIAN_POINT ( 'NONE',  ( 37.50000000000000000, 40.00000000000000000, 37.50000000000000000 ) ) ;
#405 = CARTESIAN_POINT ( 'NONE',  ( 27.50000000000000355, 350.0000000000000000, 0.000000000000000000 ) ) ;
#406 = ADVANCED_FACE ( 'NONE', ( #468, #390 ), #86, .F. ) ;
#407 = LINE ( 'NONE', #10, #134 ) ;
#408 = DIRECTION ( 'NONE',  ( 0.000000000000000000, 0.000000000000000000, 1.000000000000000000 ) ) ;
#409 = SURFACE_STYLE_USAGE ( .BOTH. , #492 ) ;
#410 = LINE ( 'NONE', #61, #347 ) ;
#411 = ADVANCED_FACE ( 'NONE', ( #257, #129 ), #425, .F. ) ;
#412 = VECTOR ( 'NONE', #90, 1000.000000000000000 ) ;
#413 = LINE ( 'NONE', #419, #35 ) ;
#414 = VERTEX_POINT ( 'NONE', #168 ) ;
#415 = CARTESIAN_POINT ( 'NONE',  ( 9.184850993605150311E-15, 0.000000000000000000, 75.00000000000001421 ) ) ;
#416 = ORIENTED_EDGE ( 'NONE', *, *, #266, .F. ) ;
#417 = DIRECTION ( 'NONE',  ( 0.000000000000000000, 0.000000000000000000, 1.000000000000000000 ) ) ;
#418 = ORIENTED_EDGE ( 'NONE', *, *, #56, .T. ) ;
#419 = CARTESIAN_POINT ( 'NONE',  ( -37.50000000000000000, 387.5000000000000000, -37.50000000000000000 ) ) ;
#420 = CIRCLE ( 'NONE', #67, 37.50000000000000000 ) ;
#421 = AXIS2_PLACEMENT_3D ( 'NONE', #193, #553, #497 ) ;
#422 = EDGE_LOOP ( 'NONE', ( #72, #533 ) ) ;
#423 = CARTESIAN_POINT ( 'NONE',  ( -37.50000000000000000, 350.0000000000000000, 0.000000000000000000 ) ) ;
#424 = ORIENTED_EDGE ( 'NONE', *, *, #28, .F. ) ;
#425 = PLANE ( 'NONE',  #246 ) ;
#426 = ORIENTED_EDGE ( 'NONE', *, *, #241, .T. ) ;
#427 = VECTOR ( 'NONE', #542, 1000.000000000000000 ) ;
#428 = DIRECTION ( 'NONE',  ( -1.000000000000000000, -0.000000000000000000, -0.000000000000000000 ) ) ;
#429 = EDGE_CURVE ( 'NONE', #75, #254, #564, .T. ) ;
#430 = CIRCLE ( 'NONE', #47, 75.00000000000001421 ) ;
#431 = ORIENTED_EDGE ( 'NONE', *, *, #157, .F. ) ;
#432 = CARTESIAN_POINT ( 'NONE',  ( -37.50000000000000000, 387.5000000000000000, 37.50000000000000000 ) ) ;
#433 = ORIENTED_EDGE ( 'NONE', *, *, #263, .T. ) ;
#434 = UNCERTAINTY_MEASURE_WITH_UNIT (LENGTH_MEASURE( 1.000000000000000082E-05 ), #173, 'distance_accuracy_value', 'NONE');
#435 = LINE ( 'NONE', #561, #490 ) ;
#436 = VERTEX_POINT ( 'NONE', #262 ) ;
#437 = CARTESIAN_POINT ( 'NONE',  ( 37.50000000000000000, 387.5000000000000000, 37.50000000000000000 ) ) ;
#438 = VECTOR ( 'NONE', #220, 1000.000000000000000 ) ;
#439 = CARTESIAN_POINT ( 'NONE',  ( -37.50000000000000000, 40.00000000000000000, -37.50000000000000000 ) ) ;
#440 = EDGE_CURVE ( 'NONE', #459, #550, #159, .T. ) ;
#441 = CARTESIAN_POINT ( 'NONE',  ( 0.000000000000000000, 0.000000000000000000, 0.000000000000000000 ) ) ;
#442 =( NAMED_UNIT ( * ) PLANE_ANGLE_UNIT ( ) SI_UNIT ( $, .RADIAN. ) );
#443 = DIRECTION ( 'NONE',  ( -1.000000000000000000, -0.000000000000000000, -0.000000000000000000 ) ) ;
#444 = CARTESIAN_POINT ( 'NONE',  ( -37.50000000000000000, 350.0000000000000000, -22.50000000000000711 ) ) ;
#445 = ADVANCED_BREP_SHAPE_REPRESENTATION ( 'Link1', ( #558, #19 ), #26 ) ;
#446 = DIRECTION ( 'NONE',  ( 1.000000000000000000, 1.176416932795360423E-16, 0.000000000000000000 ) ) ;
#447 = CARTESIAN_POINT ( 'NONE',  ( 27.50000000000000355, 350.0000000000000000, -37.50000000000000000 ) ) ;
#448 = CARTESIAN_POINT ( 'NONE',  ( 0.000000000000000000, 0.000000000000000000, -75.00000000000001421 ) ) ;
#449 = PRESENTATION_STYLE_ASSIGNMENT (( #103 ) ) ;
#450 = DIRECTION ( 'NONE',  ( -1.000000000000000000, 0.000000000000000000, 0.000000000000000000 ) ) ;
#451 = EDGE_CURVE ( 'NONE', #436, #509, #143, .T. ) ;
#452 = ORIENTED_EDGE ( 'NONE', *, *, #208, .T. ) ;
#453 = DIRECTION ( 'NONE',  ( 1.000000000000000000, 1.176416932795360423E-16, 0.000000000000000000 ) ) ;
#454 = CIRCLE ( 'NONE', #202, 75.00000000000001421 ) ;
#455 = CARTESIAN_POINT ( 'NONE',  ( 37.50000000000000000, 350.0000000000000000, 0.000000000000000000 ) ) ;
#456 = CARTESIAN_POINT ( 'NONE',  ( -27.50000000000000355, 350.0000000000000000, 0.000000000000000000 ) ) ;
#457 = EDGE_LOOP ( 'NONE', ( #187, #215, #418, #376 ) ) ;
#458 = DIRECTION ( 'NONE',  ( 0.000000000000000000, 0.000000000000000000, 1.000000000000000000 ) ) ;
#459 = VERTEX_POINT ( 'NONE', #133 ) ;
#460 = DIRECTION ( 'NONE',  ( -1.000000000000000000, 0.000000000000000000, 0.000000000000000000 ) ) ;
#461 = EDGE_LOOP ( 'NONE', ( #33, #426 ) ) ;
#462 = FACE_OUTER_BOUND ( 'NONE', #329, .T. ) ;
#463 = AXIS2_PLACEMENT_3D ( 'NONE', #304, #513, #351 ) ;
#464 = ORIENTED_EDGE ( 'NONE', *, *, #519, .F. ) ;
#465 = DIRECTION ( 'NONE',  ( 0.000000000000000000, 0.000000000000000000, 1.000000000000000000 ) ) ;
#466 = ORIENTED_EDGE ( 'NONE', *, *, #493, .T. ) ;
#467 = EDGE_CURVE ( 'NONE', #189, #414, #264, .T. ) ;
#468 = FACE_BOUND ( 'NONE', #324, .T. ) ;
#469 = ORIENTED_EDGE ( 'NONE', *, *, #473, .T. ) ;
#470 = CARTESIAN_POINT ( 'NONE',  ( -27.50000000000000355, 350.0000000000000000, 0.000000000000000000 ) ) ;
#471 = VERTEX_POINT ( 'NONE', #444 ) ;
#472 = LINE ( 'NONE', #83, #491 ) ;
#473 = EDGE_CURVE ( 'NONE', #305, #43, #430, .T. ) ;
#474 = ORIENTED_EDGE ( 'NONE', *, *, #5, .T. ) ;
#475 = CARTESIAN_POINT ( 'NONE',  ( -37.50000000000000000, 350.0000000000000000, 0.000000000000000000 ) ) ;
#476 = CARTESIAN_POINT ( 'NONE',  ( 42.49999999999986500, 350.0000000000000000, 0.000000000000000000 ) ) ;
#477 = CARTESIAN_POINT ( 'NONE',  ( -27.49999999999998934, 350.0000000000000000, 37.50000000000000000 ) ) ;
#478 = VECTOR ( 'NONE', #323, 1000.000000000000000 ) ;
#479 = CARTESIAN_POINT ( 'NONE',  ( 27.50000000000000355, 350.0000000000000000, 22.50000000000000711 ) ) ;
#480 = ADVANCED_FACE ( 'NONE', ( #530 ), #6, .F. ) ;
#481 = AXIS2_PLACEMENT_3D ( 'NONE', #51, #222, #135 ) ;
#482 = ORIENTED_EDGE ( 'NONE', *, *, #328, .T. ) ;
#483 = DIRECTION ( 'NONE',  ( -1.000000000000000000, -0.000000000000000000, -0.000000000000000000 ) ) ;
#484 = ORIENTED_EDGE ( 'NONE', *, *, #429, .T. ) ;
#485 = DIRECTION ( 'NONE',  ( -1.000000000000000000, -1.176416932795360423E-16, -0.000000000000000000 ) ) ;
#486 = EDGE_CURVE ( 'NONE', #509, #436, #312, .T. ) ;
#487 = SURFACE_STYLE_FILL_AREA ( #267 ) ;
#488 = CARTESIAN_POINT ( 'NONE',  ( -37.50000000000000000, 387.5000000000000000, 37.50000000000000000 ) ) ;
#489 = FACE_OUTER_BOUND ( 'NONE', #495, .T. ) ;
#490 = VECTOR ( 'NONE', #44, 1000.000000000000000 ) ;
#491 = VECTOR ( 'NONE', #428, 1000.000000000000000 ) ;
#492 = SURFACE_SIDE_STYLE ('',( #487 ) ) ;
#493 = EDGE_CURVE ( 'NONE', #252, #436, #95, .T. ) ;
#494 = CARTESIAN_POINT ( 'NONE',  ( 37.50000000000000000, 350.0000000000000000, 37.50000000000000000 ) ) ;
#495 = EDGE_LOOP ( 'NONE', ( #484, #247, #313, #416 ) ) ;
#496 = LINE ( 'NONE', #229, #64 ) ;
#497 = DIRECTION ( 'NONE',  ( 0.000000000000000000, 0.000000000000000000, -1.000000000000000000 ) ) ;
#498 = AXIS2_PLACEMENT_3D ( 'NONE', #374, #197, #245 ) ;
#499 = EDGE_CURVE ( 'NONE', #87, #117, #420, .T. ) ;
#500 = ORIENTED_EDGE ( 'NONE', *, *, #56, .F. ) ;
#501 =( GEOMETRIC_REPRESENTATION_CONTEXT ( 3 ) GLOBAL_UNCERTAINTY_ASSIGNED_CONTEXT ( ( #211 ) ) GLOBAL_UNIT_ASSIGNED_CONTEXT ( ( #270, #98, #369 ) ) REPRESENTATION_CONTEXT ( 'NONE', 'WORKASPACE' ) );
#502 = CARTESIAN_POINT ( 'NONE',  ( 37.50000000000000000, 350.0000000000000000, -22.50000000000000711 ) ) ;
#503 = CIRCLE ( 'NONE', #58, 27.49999999999999645 ) ;
#504 = VERTEX_POINT ( 'NONE', #314 ) ;
#505 = DIRECTION ( 'NONE',  ( 0.000000000000000000, 1.000000000000000000, 0.000000000000000000 ) ) ;
#506 = ORIENTED_EDGE ( 'NONE', *, *, #486, .F. ) ;
#507 = CARTESIAN_POINT ( 'NONE',  ( 27.49999999999999645, 401.5776243375623267, 37.50000000000000000 ) ) ;
#508 = EDGE_CURVE ( 'NONE', #385, #394, #225, .T. ) ;
#509 = VERTEX_POINT ( 'NONE', #479 ) ;
#510 = CARTESIAN_POINT ( 'NONE',  ( -27.49999999999999645, 401.5776243375623267, -42.49999999999986500 ) ) ;
#511 = EDGE_LOOP ( 'NONE', ( #230, #392 ) ) ;
#512 = UNCERTAINTY_MEASURE_WITH_UNIT (LENGTH_MEASURE( 1.000000000000000082E-05 ), #55, 'distance_accuracy_value', 'NONE');
#513 = DIRECTION ( 'NONE',  ( 1.000000000000000000, 1.176416932795360423E-16, 0.000000000000000000 ) ) ;
#514 = PRESENTATION_LAYER_ASSIGNMENT (  '', '', ( #130 ) ) ;
#515 = ORIENTED_EDGE ( 'NONE', *, *, #284, .T. ) ;
#516 = DIRECTION ( 'NONE',  ( -1.000000000000000000, -0.000000000000000000, -0.000000000000000000 ) ) ;
#517 = ORIENTED_EDGE ( 'NONE', *, *, #21, .F. ) ;
#518 = CLOSED_SHELL ( 'NONE', ( #2, #300, #335, #345, #273, #406, #411, #310, #528, #522, #183, #480, #9, #391, #107, #137, #207 ) ) ;
#519 = EDGE_CURVE ( 'NONE', #414, #385, #92, .T. ) ;
#520 = CARTESIAN_POINT ( 'NONE',  ( 42.49999999999986500, 350.0000000000000000, 0.000000000000000000 ) ) ;
#521 = DIRECTION ( 'NONE',  ( -1.000000000000000000, -0.000000000000000000, -0.000000000000000000 ) ) ;
#522 = ADVANCED_FACE ( 'NONE', ( #356, #535 ), #226, .T. ) ;
#523 = ORIENTED_EDGE ( 'NONE', *, *, #361, .F. ) ;
#524 = ORIENTED_EDGE ( 'NONE', *, *, #361, .T. ) ;
#525 = CARTESIAN_POINT ( 'NONE',  ( -27.49999999999996092, 106.6611831308180030, -42.49999999999986500 ) ) ;
#526 = DIRECTION ( 'NONE',  ( 0.000000000000000000, 0.000000000000000000, 1.000000000000000000 ) ) ;
#527 = DIRECTION ( 'NONE',  ( -1.000000000000000000, -1.176416932795360423E-16, -0.000000000000000000 ) ) ;
#528 = ADVANCED_FACE ( 'NONE', ( #140 ), #8, .T. ) ;
#529 = CIRCLE ( 'NONE', #278, 37.50000000000000000 ) ;
#530 = FACE_OUTER_BOUND ( 'NONE', #194, .T. ) ;
#531 = CARTESIAN_POINT ( 'NONE',  ( 0.000000000000000000, 40.00000000000000000, 0.000000000000000000 ) ) ;
#532 = COLOUR_RGB ( '',0.7921568627450980005, 0.8196078431372548767, 0.9333333333333333481 ) ;
#533 = ORIENTED_EDGE ( 'NONE', *, *, #473, .F. ) ;
#534 = DIRECTION ( 'NONE',  ( 0.000000000000000000, 0.000000000000000000, 1.000000000000000000 ) ) ;
#535 = FACE_OUTER_BOUND ( 'NONE', #461, .T. ) ;
#536 = CARTESIAN_POINT ( 'NONE',  ( 27.49999999999999645, 401.5776243375623267, -42.49999999999986500 ) ) ;
#537 = CARTESIAN_POINT ( 'NONE',  ( 27.50000000000003197, 106.6611831308180030, 37.50000000000000000 ) ) ;
#538 = DIRECTION ( 'NONE',  ( 1.176416932795360423E-16, -1.000000000000000000, 0.000000000000000000 ) ) ;
#539 = VECTOR ( 'NONE', #308, 1000.000000000000000 ) ;
#540 = SURFACE_SIDE_STYLE ('',( #14 ) ) ;
#541 = PRODUCT_DEFINITION_SHAPE ( 'NONE', 'NONE',  #178 ) ;
#542 = DIRECTION ( 'NONE',  ( -0.000000000000000000, -0.000000000000000000, 1.000000000000000000 ) ) ;
#543 = ORIENTED_EDGE ( 'NONE', *, *, #219, .T. ) ;
#544 = CARTESIAN_POINT ( 'NONE',  ( -27.50000000000000355, 350.0000000000000000, -22.50000000000000711 ) ) ;
#545 = CARTESIAN_POINT ( 'NONE',  ( 42.49999999999986500, 350.0000000000000000, 37.50000000000000000 ) ) ;
#546 = CIRCLE ( 'NONE', #566, 27.49999999999999645 ) ;
#547 = EDGE_CURVE ( 'NONE', #87, #414, #221, .T. ) ;
#548 = EDGE_LOOP ( 'NONE', ( #562, #433, #125, #29 ) ) ;
#549 = CARTESIAN_POINT ( 'NONE',  ( -37.50000000000000000, 40.00000000000000000, 37.50000000000000000 ) ) ;
#550 = VERTEX_POINT ( 'NONE', #447 ) ;
#551 = DIRECTION ( 'NONE',  ( 0.000000000000000000, 0.000000000000000000, 1.000000000000000000 ) ) ;
#552 = ORIENTED_EDGE ( 'NONE', *, *, #429, .F. ) ;
#553 = DIRECTION ( 'NONE',  ( -0.000000000000000000, -1.000000000000000000, -0.000000000000000000 ) ) ;
#554 = VECTOR ( 'NONE', #248, 1000.000000000000000 ) ;
#555 = ORIENTED_EDGE ( 'NONE', *, *, #241, .F. ) ;
#556 = CYLINDRICAL_SURFACE ( 'NONE', #76, 22.50000000000000711 ) ;
#557 = AXIS2_PLACEMENT_3D ( 'NONE', #476, #521, #253 ) ;
#558 = MANIFOLD_SOLID_BREP ( 'Cut-Extrude3', #518 ) ;
#559 = ORIENTED_EDGE ( 'NONE', *, *, #150, .F. ) ;
#560 = CARTESIAN_POINT ( 'NONE',  ( 0.000000000000000000, 0.000000000000000000, 0.000000000000000000 ) ) ;
#561 = CARTESIAN_POINT ( 'NONE',  ( 42.49999999999986500, 350.0000000000000000, -37.50000000000000000 ) ) ;
#562 = ORIENTED_EDGE ( 'NONE', *, *, #131, .T. ) ;
#563 = APPLICATION_PROTOCOL_DEFINITION ( 'draft international standard', 'automotive_design', 1998, #170 ) ;
#564 = LINE ( 'NONE', #525, #412 ) ;
#565 = ORIENTED_EDGE ( 'NONE', *, *, #451, .F. ) ;
#566 = AXIS2_PLACEMENT_3D ( 'NONE', #354, #73, #156 ) ;
#567 = DIRECTION ( 'NONE',  ( -1.000000000000000000, -0.000000000000000000, -0.000000000000000000 ) ) ;
#568 = DIRECTION ( 'NONE',  ( 0.000000000000000000, 0.000000000000000000, 1.000000000000000000 ) ) ;
ENDSEC;
END-ISO-10303-21;
