ISO-10303-21;
HEADER;
FILE_DESCRIPTION (( 'STEP AP214' ),
    '1' );
FILE_NAME ('Link2.STEP',
    '2023-11-10T09:27:42',
    ( '' ),
    ( '' ),
    'SwSTEP 2.0',
    'SolidWorks 2020',
    '' );
FILE_SCHEMA (( 'AUTOMOTIVE_DESIGN' ));
ENDSEC;

DATA;
#1 = ORIENTED_EDGE ( 'NONE', *, *, #488, .F. ) ;
#2 = CARTESIAN_POINT ( 'NONE',  ( 22.50000000000000000, -22.50000000000000355, 47.49999999999992895 ) ) ;
#3 = LINE ( 'NONE', #468, #369 ) ;
#4 = EDGE_LOOP ( 'NONE', ( #377, #273, #173, #174 ) ) ;
#5 = ORIENTED_EDGE ( 'NONE', *, *, #388, .F. ) ;
#6 = CARTESIAN_POINT ( 'NONE',  ( 27.50000000000001776, -27.50000000000000355, 327.5000000000000000 ) ) ;
#7 = CARTESIAN_POINT ( 'NONE',  ( -27.49999999999998224, 27.49999999999999645, 27.49999999999999645 ) ) ;
#8 = ORIENTED_EDGE ( 'NONE', *, *, #221, .F. ) ;
#9 = ORIENTED_EDGE ( 'NONE', *, *, #254, .F. ) ;
#10 = CIRCLE ( 'NONE', #513, 27.49999999999999645 ) ;
#11 = ORIENTED_EDGE ( 'NONE', *, *, #197, .F. ) ;
#12 = ADVANCED_FACE ( 'NONE', ( #268, #134 ), #220, .F. ) ;
#13 = CARTESIAN_POINT ( 'NONE',  ( 22.49999999999999289, -10.30776406404428336, 47.49999999999992895 ) ) ;
#14 = DIRECTION ( 'NONE',  ( 0.000000000000000000, 0.000000000000000000, -1.000000000000000000 ) ) ;
#15 = ORIENTED_EDGE ( 'NONE', *, *, #294, .T. ) ;
#16 = ORIENTED_EDGE ( 'NONE', *, *, #250, .T. ) ;
#17 = EDGE_CURVE ( 'NONE', #62, #132, #181, .T. ) ;
#18 = DIRECTION ( 'NONE',  ( 1.000000000000000000, -0.000000000000000000, 0.000000000000000000 ) ) ;
#19 = VERTEX_POINT ( 'NONE', #87 ) ;
#20 = CARTESIAN_POINT ( 'NONE',  ( 27.50000000000001776, 2.755455298081544778E-15, 50.00000000000000000 ) ) ;
#21 = DIRECTION ( 'NONE',  ( 1.000000000000000000, -0.000000000000000000, -0.000000000000000000 ) ) ;
#22 = DIRECTION ( 'NONE',  ( -1.000000000000000000, -0.000000000000000000, -0.000000000000000000 ) ) ;
#23 = CARTESIAN_POINT ( 'NONE',  ( 22.50000000000000000, -22.50000000000000355, 47.49999999999992895 ) ) ;
#24 = DIRECTION ( 'NONE',  ( 0.000000000000000000, -0.000000000000000000, 1.000000000000000000 ) ) ;
#25 = CIRCLE ( 'NONE', #172, 22.50000000000000355 ) ;
#26 = EDGE_CURVE ( 'NONE', #432, #509, #427, .T. ) ;
#27 = EDGE_CURVE ( 'NONE', #473, #88, #231, .T. ) ;
#28 = VECTOR ( 'NONE', #479, 1000.000000000000000 ) ;
#29 = DIRECTION ( 'NONE',  ( 1.000000000000000000, 0.000000000000000000, 0.000000000000000000 ) ) ;
#30 = DIRECTION ( 'NONE',  ( -0.000000000000000000, -1.000000000000000000, -0.000000000000000000 ) ) ;
#31 = CIRCLE ( 'NONE', #342, 22.50000000000000355 ) ;
#32 = EDGE_CURVE ( 'NONE', #426, #238, #3, .T. ) ;
#33 = CARTESIAN_POINT ( 'NONE',  ( -22.50000000000000000, 22.49999999999999645, 47.49999999999992895 ) ) ;
#34 = MECHANICAL_DESIGN_GEOMETRIC_PRESENTATION_REPRESENTATION (  '', ( #285 ), #416 ) ;
#35 = ORIENTED_EDGE ( 'NONE', *, *, #469, .T. ) ;
#36 = CARTESIAN_POINT ( 'NONE',  ( 22.50000000000000000, -22.50000000000000355, 47.49999999999992895 ) ) ;
#37 = VECTOR ( 'NONE', #141, 1000.000000000000000 ) ;
#38 = CARTESIAN_POINT ( 'NONE',  ( 22.49999999999999289, 0.000000000000000000, 27.49999999999999645 ) ) ;
#39 = VECTOR ( 'NONE', #241, 1000.000000000000000 ) ;
#40 = DIRECTION ( 'NONE',  ( 0.000000000000000000, -0.000000000000000000, -1.000000000000000000 ) ) ;
#41 = EDGE_CURVE ( 'NONE', #133, #62, #350, .T. ) ;
#42 = ORIENTED_EDGE ( 'NONE', *, *, #108, .F. ) ;
#43 = ORIENTED_EDGE ( 'NONE', *, *, #266, .F. ) ;
#44 = CARTESIAN_POINT ( 'NONE',  ( -27.49999999999998224, -27.50000000000000355, 327.5000000000000000 ) ) ;
#45 = VECTOR ( 'NONE', #463, 1000.000000000000000 ) ;
#46 = CLOSED_SHELL ( 'NONE', ( #282, #338, #70, #483, #325, #521, #12, #316, #232, #227, #166, #480, #339, #538, #217 ) ) ;
#47 = ORIENTED_EDGE ( 'NONE', *, *, #465, .F. ) ;
#48 = CARTESIAN_POINT ( 'NONE',  ( -27.49999999999998224, -27.50000000000000355, 327.5000000000000000 ) ) ;
#49 = DIRECTION ( 'NONE',  ( -1.000000000000000000, 0.000000000000000000, 0.000000000000000000 ) ) ;
#50 = ORIENTED_EDGE ( 'NONE', *, *, #71, .T. ) ;
#51 = VERTEX_POINT ( 'NONE', #91 ) ;
#52 = CARTESIAN_POINT ( 'NONE',  ( -22.50000000000000000, -22.50000000000000355, 47.49999999999992895 ) ) ;
#53 = EDGE_CURVE ( 'NONE', #62, #426, #515, .T. ) ;
#54 = ORIENTED_EDGE ( 'NONE', *, *, #77, .F. ) ;
#55 = ORIENTED_EDGE ( 'NONE', *, *, #171, .T. ) ;
#56 = PRODUCT_DEFINITION_SHAPE ( 'NONE', 'NONE',  #261 ) ;
#57 = VECTOR ( 'NONE', #68, 1000.000000000000000 ) ;
#58 = CIRCLE ( 'NONE', #69, 27.49999999999999645 ) ;
#59 =( NAMED_UNIT ( * ) SI_UNIT ( $, .STERADIAN. ) SOLID_ANGLE_UNIT ( ) );
#60 = ORIENTED_EDGE ( 'NONE', *, *, #27, .T. ) ;
#61 = AXIS2_PLACEMENT_3D ( 'NONE', #115, #410, #156 ) ;
#62 = VERTEX_POINT ( 'NONE', #48 ) ;
#63 = CARTESIAN_POINT ( 'NONE',  ( -66.39087296526008686, -27.50000000000000355, 27.49999999999999645 ) ) ;
#64 = EDGE_CURVE ( 'NONE', #19, #509, #177, .T. ) ;
#65 = ORIENTED_EDGE ( 'NONE', *, *, #123, .T. ) ;
#66 = FILL_AREA_STYLE_COLOUR ( '', #112 ) ;
#67 = CYLINDRICAL_SURFACE ( 'NONE', #80, 27.49999999999999645 ) ;
#68 = DIRECTION ( 'NONE',  ( 0.000000000000000000, 1.000000000000000000, 0.000000000000000000 ) ) ;
#69 = AXIS2_PLACEMENT_3D ( 'NONE', #337, #440, #327 ) ;
#70 = ADVANCED_FACE ( 'NONE', ( #223, #137 ), #387, .F. ) ;
#71 = EDGE_CURVE ( 'NONE', #474, #127, #170, .T. ) ;
#72 = LINE ( 'NONE', #364, #276 ) ;
#73 = CARTESIAN_POINT ( 'NONE',  ( 0.000000000000000000, 0.000000000000000000, 47.49999999999992895 ) ) ;
#74 = DIRECTION ( 'NONE',  ( 0.000000000000000000, -0.000000000000000000, -1.000000000000000000 ) ) ;
#75 = CARTESIAN_POINT ( 'NONE',  ( -22.50000000000000000, 22.49999999999999645, 327.5000000000000000 ) ) ;
#76 = CARTESIAN_POINT ( 'NONE',  ( 27.50000000000001776, 27.49999999999999645, 327.5000000000000000 ) ) ;
#77 = EDGE_CURVE ( 'NONE', #88, #473, #118, .T. ) ;
#78 = LINE ( 'NONE', #536, #258 ) ;
#79 = CARTESIAN_POINT ( 'NONE',  ( 0.000000000000000000, 0.000000000000000000, 0.000000000000000000 ) ) ;
#80 = AXIS2_PLACEMENT_3D ( 'NONE', #400, #21, #194 ) ;
#81 = VECTOR ( 'NONE', #176, 1000.000000000000000 ) ;
#82 = CARTESIAN_POINT ( 'NONE',  ( 0.000000000000000000, 0.000000000000000000, 47.49999999999992895 ) ) ;
#83 = DIRECTION ( 'NONE',  ( 1.000000000000000000, -0.000000000000000000, -0.000000000000000000 ) ) ;
#84 = CYLINDRICAL_SURFACE ( 'NONE', #264, 22.50000000000000355 ) ;
#85 = VECTOR ( 'NONE', #291, 1000.000000000000000 ) ;
#86 = VERTEX_POINT ( 'NONE', #20 ) ;
#87 = CARTESIAN_POINT ( 'NONE',  ( 22.50000000000000000, -22.50000000000000355, 47.49999999999992895 ) ) ;
#88 = VERTEX_POINT ( 'NONE', #185 ) ;
#89 = DIRECTION ( 'NONE',  ( -1.000000000000000000, 0.000000000000000000, -0.000000000000000000 ) ) ;
#90 = ORIENTED_EDGE ( 'NONE', *, *, #254, .T. ) ;
#91 = CARTESIAN_POINT ( 'NONE',  ( 27.50000000000001776, 0.000000000000000000, 4.999999999999993783 ) ) ;
#92 = AXIS2_PLACEMENT_3D ( 'NONE', #376, #500, #295 ) ;
#93 = EDGE_CURVE ( 'NONE', #306, #216, #150, .T. ) ;
#94 = AXIS2_PLACEMENT_3D ( 'NONE', #52, #49, #178 ) ;
#95 = VERTEX_POINT ( 'NONE', #320 ) ;
#96 = ORIENTED_EDGE ( 'NONE', *, *, #221, .T. ) ;
#97 = EDGE_CURVE ( 'NONE', #169, #167, #318, .T. ) ;
#98 = ORIENTED_EDGE ( 'NONE', *, *, #382, .T. ) ;
#99 = DIRECTION ( 'NONE',  ( -0.000000000000000000, -0.000000000000000000, -1.000000000000000000 ) ) ;
#100 = VERTEX_POINT ( 'NONE', #144 ) ;
#101 = LINE ( 'NONE', #63, #275 ) ;
#102 =( LENGTH_UNIT ( ) NAMED_UNIT ( * ) SI_UNIT ( .MILLI., .METRE. ) );
#103 = EDGE_LOOP ( 'NONE', ( #42, #336, #146, #184 ) ) ;
#104 = FACE_OUTER_BOUND ( 'NONE', #520, .T. ) ;
#105 = DIRECTION ( 'NONE',  ( 1.000000000000000000, -0.000000000000000000, -0.000000000000000000 ) ) ;
#106 = ORIENTED_EDGE ( 'NONE', *, *, #274, .F. ) ;
#107 = CARTESIAN_POINT ( 'NONE',  ( -27.49999999999998224, -27.50000000000000355, 27.49999999999999645 ) ) ;
#108 = EDGE_CURVE ( 'NONE', #169, #132, #351, .T. ) ;
#109 = CARTESIAN_POINT ( 'NONE',  ( -22.50000000000000000, 22.49999999999999645, 47.49999999999992895 ) ) ;
#110 = FACE_OUTER_BOUND ( 'NONE', #136, .T. ) ;
#111 = DIRECTION ( 'NONE',  ( 1.000000000000000000, -0.000000000000000000, -0.000000000000000000 ) ) ;
#112 = COLOUR_RGB ( '',0.7921568627450980005, 0.8196078431372548767, 0.9333333333333333481 ) ;
#113 = DIRECTION ( 'NONE',  ( 1.000000000000000000, -0.000000000000000000, -0.000000000000000000 ) ) ;
#114 = EDGE_CURVE ( 'NONE', #132, #238, #101, .T. ) ;
#115 = CARTESIAN_POINT ( 'NONE',  ( -66.39087296526008686, 0.000000000000000000, 27.49999999999999645 ) ) ;
#116 = LINE ( 'NONE', #319, #57 ) ;
#117 = AXIS2_PLACEMENT_3D ( 'NONE', #82, #293, #125 ) ;
#118 = CIRCLE ( 'NONE', #434, 22.50000000000000355 ) ;
#119 = FACE_OUTER_BOUND ( 'NONE', #149, .T. ) ;
#120 = ADVANCED_BREP_SHAPE_REPRESENTATION ( 'Link2', ( #135, #182 ), #348 ) ;
#121 = FACE_OUTER_BOUND ( 'NONE', #436, .T. ) ;
#122 = APPLICATION_CONTEXT ( 'automotive_design' ) ;
#123 = EDGE_CURVE ( 'NONE', #439, #219, #189, .T. ) ;
#124 = ORIENTED_EDGE ( 'NONE', *, *, #519, .T. ) ;
#125 = DIRECTION ( 'NONE',  ( -1.000000000000000000, 0.000000000000000000, -0.000000000000000000 ) ) ;
#126 = VECTOR ( 'NONE', #30, 1000.000000000000000 ) ;
#127 = VERTEX_POINT ( 'NONE', #486 ) ;
#128 = ORIENTED_EDGE ( 'NONE', *, *, #274, .T. ) ;
#129 = AXIS2_PLACEMENT_3D ( 'NONE', #6, #512, #309 ) ;
#130 = VECTOR ( 'NONE', #402, 1000.000000000000000 ) ;
#131 = ORIENTED_EDGE ( 'NONE', *, *, #405, .T. ) ;
#132 = VERTEX_POINT ( 'NONE', #107 ) ;
#133 = VERTEX_POINT ( 'NONE', #281 ) ;
#134 = FACE_OUTER_BOUND ( 'NONE', #343, .T. ) ;
#135 = MANIFOLD_SOLID_BREP ( 'Cut-Extrude3', #46 ) ;
#136 = EDGE_LOOP ( 'NONE', ( #300, #507, #131, #234, #215, #140, #1 ) ) ;
#137 = FACE_OUTER_BOUND ( 'NONE', #259, .T. ) ;
#138 = VECTOR ( 'NONE', #287, 1000.000000000000000 ) ;
#139 = VECTOR ( 'NONE', #390, 1000.000000000000000 ) ;
#140 = ORIENTED_EDGE ( 'NONE', *, *, #502, .F. ) ;
#141 = DIRECTION ( 'NONE',  ( 0.000000000000000000, 1.000000000000000000, 0.000000000000000000 ) ) ;
#142 = DIRECTION ( 'NONE',  ( -0.000000000000000000, -0.000000000000000000, 1.000000000000000000 ) ) ;
#143 = ORIENTED_EDGE ( 'NONE', *, *, #438, .T. ) ;
#144 = CARTESIAN_POINT ( 'NONE',  ( 22.50000000000000000, 22.49999999999999645, 327.5000000000000000 ) ) ;
#145 = EDGE_CURVE ( 'NONE', #216, #100, #279, .T. ) ;
#146 = ORIENTED_EDGE ( 'NONE', *, *, #171, .F. ) ;
#147 = AXIS2_PLACEMENT_3D ( 'NONE', #335, #297, #459 ) ;
#148 =( GEOMETRIC_REPRESENTATION_CONTEXT ( 3 ) GLOBAL_UNCERTAINTY_ASSIGNED_CONTEXT ( ( #458 ) ) GLOBAL_UNIT_ASSIGNED_CONTEXT ( ( #102, #224, #59 ) ) REPRESENTATION_CONTEXT ( 'NONE', 'WORKASPACE' ) );
#149 = EDGE_LOOP ( 'NONE', ( #60, #314, #35, #385, #424, #296, #16, #11 ) ) ;
#150 = LINE ( 'NONE', #482, #428 ) ;
#151 = PRESENTATION_STYLE_ASSIGNMENT (( #272 ) ) ;
#152 = LINE ( 'NONE', #203, #211 ) ;
#153 = LINE ( 'NONE', #109, #39 ) ;
#154 = DIRECTION ( 'NONE',  ( 0.000000000000000000, 0.000000000000000000, -1.000000000000000000 ) ) ;
#155 = FILL_AREA_STYLE_COLOUR ( '', #366 ) ;
#156 = DIRECTION ( 'NONE',  ( 0.000000000000000000, 0.000000000000000000, -1.000000000000000000 ) ) ;
#157 = CARTESIAN_POINT ( 'NONE',  ( -27.49999999999998224, -27.50000000000000355, 327.5000000000000000 ) ) ;
#158 = VECTOR ( 'NONE', #105, 1000.000000000000000 ) ;
#159 =( NAMED_UNIT ( * ) SI_UNIT ( $, .STERADIAN. ) SOLID_ANGLE_UNIT ( ) );
#160 = MECHANICAL_DESIGN_GEOMETRIC_PRESENTATION_REPRESENTATION (  '', ( #447 ), #148 ) ;
#161 = DIRECTION ( 'NONE',  ( 0.000000000000000000, 0.000000000000000000, -1.000000000000000000 ) ) ;
#162 = DIRECTION ( 'NONE',  ( 0.000000000000000000, 0.000000000000000000, -1.000000000000000000 ) ) ;
#163 = PLANE ( 'NONE',  #117 ) ;
#164 = PRODUCT_RELATED_PRODUCT_CATEGORY ( 'part', '', ( #179 ) ) ;
#165 = PLANE ( 'NONE',  #472 ) ;
#166 = ADVANCED_FACE ( 'NONE', ( #104 ), #269, .F. ) ;
#167 = VERTEX_POINT ( 'NONE', #398 ) ;
#168 = UNCERTAINTY_MEASURE_WITH_UNIT (LENGTH_MEASURE( 1.000000000000000082E-05 ), #409, 'distance_accuracy_value', 'NONE');
#169 = VERTEX_POINT ( 'NONE', #230 ) ;
#170 = LINE ( 'NONE', #477, #494 ) ;
#171 = EDGE_CURVE ( 'NONE', #238, #167, #475, .T. ) ;
#172 = AXIS2_PLACEMENT_3D ( 'NONE', #38, #461, #375 ) ;
#173 = ORIENTED_EDGE ( 'NONE', *, *, #32, .F. ) ;
#174 = ORIENTED_EDGE ( 'NONE', *, *, #53, .F. ) ;
#175 = PRODUCT_DEFINITION_CONTEXT ( 'detailed design', #122, 'design' ) ;
#176 = DIRECTION ( 'NONE',  ( -0.000000000000000000, -0.000000000000000000, -1.000000000000000000 ) ) ;
#177 = LINE ( 'NONE', #2, #37 ) ;
#178 = DIRECTION ( 'NONE',  ( 0.000000000000000000, 0.000000000000000000, 1.000000000000000000 ) ) ;
#179 = PRODUCT ( 'Link2', 'Link2', '', ( #443 ) ) ;
#180 = ORIENTED_EDGE ( 'NONE', *, *, #294, .F. ) ;
#181 = LINE ( 'NONE', #226, #81 ) ;
#182 = AXIS2_PLACEMENT_3D ( 'NONE', #79, #354, #347 ) ;
#183 = EDGE_LOOP ( 'NONE', ( #423, #420, #90, #341 ) ) ;
#184 = ORIENTED_EDGE ( 'NONE', *, *, #114, .F. ) ;
#185 = CARTESIAN_POINT ( 'NONE',  ( -27.49999999999998224, 2.755455298081544778E-15, 50.00000000000000000 ) ) ;
#186 = EDGE_CURVE ( 'NONE', #426, #474, #191, .T. ) ;
#187 = SURFACE_SIDE_STYLE ('',( #394 ) ) ;
#188 = VERTEX_POINT ( 'NONE', #7 ) ;
#189 = LINE ( 'NONE', #526, #28 ) ;
#190 = AXIS2_PLACEMENT_3D ( 'NONE', #406, #198, #396 ) ;
#191 = LINE ( 'NONE', #524, #506 ) ;
#192 = FACE_OUTER_BOUND ( 'NONE', #252, .T. ) ;
#193 = VECTOR ( 'NONE', #522, 1000.000000000000000 ) ;
#194 = DIRECTION ( 'NONE',  ( 0.000000000000000000, 0.000000000000000000, -1.000000000000000000 ) ) ;
#195 = LINE ( 'NONE', #525, #464 ) ;
#196 = FACE_OUTER_BOUND ( 'NONE', #233, .T. ) ;
#197 = EDGE_CURVE ( 'NONE', #473, #51, #72, .T. ) ;
#198 = DIRECTION ( 'NONE',  ( -1.000000000000000000, 0.000000000000000000, -0.000000000000000000 ) ) ;
#199 = CARTESIAN_POINT ( 'NONE',  ( -91.13961030678926534, 2.755455298081545172E-15, 50.00000000000000000 ) ) ;
#200 = LINE ( 'NONE', #245, #85 ) ;
#201 = DIRECTION ( 'NONE',  ( 0.000000000000000000, -0.000000000000000000, 1.000000000000000000 ) ) ;
#202 = CYLINDRICAL_SURFACE ( 'NONE', #61, 27.49999999999999645 ) ;
#203 = CARTESIAN_POINT ( 'NONE',  ( -22.50000000000000000, -22.50000000000000355, 47.49999999999992895 ) ) ;
#204 = SURFACE_STYLE_FILL_AREA ( #368 ) ;
#205 = AXIS2_PLACEMENT_3D ( 'NONE', #323, #367, #24 ) ;
#206 = EDGE_CURVE ( 'NONE', #51, #86, #31, .T. ) ;
#207 = CARTESIAN_POINT ( 'NONE',  ( 27.50000000000001776, 0.000000000000000000, 27.49999999999999645 ) ) ;
#208 = CARTESIAN_POINT ( 'NONE',  ( -27.49999999999998224, 0.000000000000000000, 4.999999999999993783 ) ) ;
#209 =( LENGTH_UNIT ( ) NAMED_UNIT ( * ) SI_UNIT ( .MILLI., .METRE. ) );
#210 = LINE ( 'NONE', #498, #357 ) ;
#211 = VECTOR ( 'NONE', #401, 1000.000000000000000 ) ;
#212 = VECTOR ( 'NONE', #305, 1000.000000000000000 ) ;
#213 = CARTESIAN_POINT ( 'NONE',  ( -27.49999999999998224, 27.49999999999999645, 327.5000000000000000 ) ) ;
#214 = EDGE_CURVE ( 'NONE', #88, #228, #321, .T. ) ;
#215 = ORIENTED_EDGE ( 'NONE', *, *, #93, .F. ) ;
#216 = VERTEX_POINT ( 'NONE', #371 ) ;
#217 = ADVANCED_FACE ( 'NONE', ( #489 ), #449, .F. ) ;
#218 = CIRCLE ( 'NONE', #190, 22.50000000000000355 ) ;
#219 = VERTEX_POINT ( 'NONE', #290 ) ;
#220 = PLANE ( 'NONE',  #315 ) ;
#221 = EDGE_CURVE ( 'NONE', #133, #188, #326, .T. ) ;
#222 = ORIENTED_EDGE ( 'NONE', *, *, #388, .T. ) ;
#223 = FACE_BOUND ( 'NONE', #429, .T. ) ;
#224 =( NAMED_UNIT ( * ) PLANE_ANGLE_UNIT ( ) SI_UNIT ( $, .RADIAN. ) );
#225 = ORIENTED_EDGE ( 'NONE', *, *, #502, .T. ) ;
#226 = CARTESIAN_POINT ( 'NONE',  ( -27.49999999999998224, -27.50000000000000355, 327.5000000000000000 ) ) ;
#227 = ADVANCED_FACE ( 'NONE', ( #110 ), #247, .F. ) ;
#228 = VERTEX_POINT ( 'NONE', #496 ) ;
#229 = CARTESIAN_POINT ( 'NONE',  ( -91.13961030678926534, -10.30776406404428336, 47.49999999999992895 ) ) ;
#230 = CARTESIAN_POINT ( 'NONE',  ( -27.49999999999998224, 0.000000000000000000, 0.000000000000000000 ) ) ;
#231 = CIRCLE ( 'NONE', #302, 22.50000000000000355 ) ;
#232 = ADVANCED_FACE ( 'NONE', ( #286 ), #202, .T. ) ;
#233 = EDGE_LOOP ( 'NONE', ( #65, #518, #180, #143 ) ) ;
#234 = ORIENTED_EDGE ( 'NONE', *, *, #145, .F. ) ;
#235 = DIRECTION ( 'NONE',  ( 1.000000000000000000, -0.000000000000000000, -0.000000000000000000 ) ) ;
#236 = CARTESIAN_POINT ( 'NONE',  ( 22.50000000000000000, 22.49999999999999645, 47.49999999999992895 ) ) ;
#237 = CARTESIAN_POINT ( 'NONE',  ( -22.49999999999999289, 0.000000000000000000, 27.49999999999999645 ) ) ;
#238 = VERTEX_POINT ( 'NONE', #452 ) ;
#239 = FILL_AREA_STYLE ('',( #66 ) ) ;
#240 = PRESENTATION_LAYER_ASSIGNMENT (  '', '', ( #285 ) ) ;
#241 = DIRECTION ( 'NONE',  ( -1.000000000000000000, -0.000000000000000000, -0.000000000000000000 ) ) ;
#242 = CARTESIAN_POINT ( 'NONE',  ( -22.50000000000000000, -10.30776406404428513, 47.49999999999992895 ) ) ;
#243 = AXIS2_PLACEMENT_3D ( 'NONE', #392, #18, #14 ) ;
#244 = DIRECTION ( 'NONE',  ( 1.000000000000000000, -0.000000000000000000, -0.000000000000000000 ) ) ;
#245 = CARTESIAN_POINT ( 'NONE',  ( -22.50000000000000000, -22.50000000000000355, 47.49999999999992895 ) ) ;
#246 = DIRECTION ( 'NONE',  ( 0.000000000000000000, 0.000000000000000000, -1.000000000000000000 ) ) ;
#247 = PLANE ( 'NONE',  #435 ) ;
#248 = DIRECTION ( 'NONE',  ( -1.000000000000000000, -0.000000000000000000, -0.000000000000000000 ) ) ;
#249 = CARTESIAN_POINT ( 'NONE',  ( -22.50000000000000000, 22.49999999999999645, 327.5000000000000000 ) ) ;
#250 = EDGE_CURVE ( 'NONE', #86, #51, #411, .T. ) ;
#251 = CARTESIAN_POINT ( 'NONE',  ( -22.50000000000000000, -22.50000000000000355, 47.49999999999992895 ) ) ;
#252 = EDGE_LOOP ( 'NONE', ( #504, #508, #431, #334 ) ) ;
#253 = CYLINDRICAL_SURFACE ( 'NONE', #147, 22.50000000000000355 ) ;
#254 = EDGE_CURVE ( 'NONE', #188, #127, #78, .T. ) ;
#255 = AXIS2_PLACEMENT_3D ( 'NONE', #73, #154, #403 ) ;
#256 = ORIENTED_EDGE ( 'NONE', *, *, #469, .F. ) ;
#257 = PRESENTATION_LAYER_ASSIGNMENT (  '', '', ( #447 ) ) ;
#258 = VECTOR ( 'NONE', #445, 1000.000000000000000 ) ;
#259 = EDGE_LOOP ( 'NONE', ( #395, #55, #124, #393, #262 ) ) ;
#260 = CARTESIAN_POINT ( 'NONE',  ( -27.49999999999998224, 0.000000000000000000, 27.49999999999999645 ) ) ;
#261 = PRODUCT_DEFINITION ( 'UNKNOWN', '', #329, #175 ) ;
#262 = ORIENTED_EDGE ( 'NONE', *, *, #186, .F. ) ;
#263 = DIRECTION ( 'NONE',  ( -0.000000000000000000, -0.000000000000000000, -1.000000000000000000 ) ) ;
#264 = AXIS2_PLACEMENT_3D ( 'NONE', #457, #83, #374 ) ;
#265 = CARTESIAN_POINT ( 'NONE',  ( -27.49999999999998224, -27.50000000000000355, 327.5000000000000000 ) ) ;
#266 = EDGE_CURVE ( 'NONE', #216, #95, #153, .T. ) ;
#267 = ORIENTED_EDGE ( 'NONE', *, *, #331, .F. ) ;
#268 = FACE_BOUND ( 'NONE', #433, .T. ) ;
#269 = PLANE ( 'NONE',  #94 ) ;
#270 = ORIENTED_EDGE ( 'NONE', *, *, #64, .T. ) ;
#271 = CARTESIAN_POINT ( 'NONE',  ( -27.49999999999998224, 0.000000000000000000, 27.49999999999999645 ) ) ;
#272 = SURFACE_STYLE_USAGE ( .BOTH. , #187 ) ;
#273 = ORIENTED_EDGE ( 'NONE', *, *, #114, .T. ) ;
#274 = EDGE_CURVE ( 'NONE', #100, #317, #289, .T. ) ;
#275 = VECTOR ( 'NONE', #235, 1000.000000000000000 ) ;
#276 = VECTOR ( 'NONE', #244, 1000.000000000000000 ) ;
#277 = ORIENTED_EDGE ( 'NONE', *, *, #383, .T. ) ;
#278 = CARTESIAN_POINT ( 'NONE',  ( -27.49999999999998224, 0.000000000000000000, 27.49999999999999645 ) ) ;
#279 = LINE ( 'NONE', #236, #332 ) ;
#280 = ORIENTED_EDGE ( 'NONE', *, *, #123, .F. ) ;
#281 = CARTESIAN_POINT ( 'NONE',  ( -27.49999999999998224, 27.49999999999999645, 327.5000000000000000 ) ) ;
#282 = ADVANCED_FACE ( 'NONE', ( #441 ), #67, .T. ) ;
#283 = DIRECTION ( 'NONE',  ( -1.000000000000000000, -0.000000000000000000, -0.000000000000000000 ) ) ;
#284 = DIRECTION ( 'NONE',  ( -1.000000000000000000, -0.000000000000000000, -0.000000000000000000 ) ) ;
#285 = STYLED_ITEM ( 'NONE', ( #363 ), #120 ) ;
#286 = FACE_OUTER_BOUND ( 'NONE', #183, .T. ) ;
#287 = DIRECTION ( 'NONE',  ( -1.000000000000000000, 0.000000000000000000, 0.000000000000000000 ) ) ;
#288 = DIRECTION ( 'NONE',  ( 0.000000000000000000, 1.000000000000000000, 0.000000000000000000 ) ) ;
#289 = LINE ( 'NONE', #75, #313 ) ;
#290 = CARTESIAN_POINT ( 'NONE',  ( 22.50000000000000000, -22.50000000000000355, 327.5000000000000000 ) ) ;
#291 = DIRECTION ( 'NONE',  ( -0.000000000000000000, -1.000000000000000000, -0.000000000000000000 ) ) ;
#292 = EDGE_CURVE ( 'NONE', #19, #219, #361, .T. ) ;
#293 = DIRECTION ( 'NONE',  ( 0.000000000000000000, 0.000000000000000000, -1.000000000000000000 ) ) ;
#294 = EDGE_CURVE ( 'NONE', #355, #19, #378, .T. ) ;
#295 = DIRECTION ( 'NONE',  ( 0.000000000000000000, 0.000000000000000000, 1.000000000000000000 ) ) ;
#296 = ORIENTED_EDGE ( 'NONE', *, *, #384, .T. ) ;
#297 = DIRECTION ( 'NONE',  ( 1.000000000000000000, -0.000000000000000000, -0.000000000000000000 ) ) ;
#298 = AXIS2_PLACEMENT_3D ( 'NONE', #529, #454, #74 ) ;
#299 = CIRCLE ( 'NONE', #92, 22.50000000000000711 ) ;
#300 = ORIENTED_EDGE ( 'NONE', *, *, #64, .F. ) ;
#301 = EDGE_LOOP ( 'NONE', ( #128, #466, #43, #462 ) ) ;
#302 = AXIS2_PLACEMENT_3D ( 'NONE', #260, #505, #471 ) ;
#303 = VECTOR ( 'NONE', #113, 1000.000000000000000 ) ;
#304 = ORIENTED_EDGE ( 'NONE', *, *, #206, .T. ) ;
#305 = DIRECTION ( 'NONE',  ( -0.000000000000000000, -1.000000000000000000, -0.000000000000000000 ) ) ;
#306 = VERTEX_POINT ( 'NONE', #503 ) ;
#307 = ORIENTED_EDGE ( 'NONE', *, *, #460, .T. ) ;
#308 = ORIENTED_EDGE ( 'NONE', *, *, #53, .T. ) ;
#309 = DIRECTION ( 'NONE',  ( 0.000000000000000000, 0.000000000000000000, 1.000000000000000000 ) ) ;
#310 = ORIENTED_EDGE ( 'NONE', *, *, #26, .F. ) ;
#311 = DIRECTION ( 'NONE',  ( -1.000000000000000000, -0.000000000000000000, -0.000000000000000000 ) ) ;
#312 = APPLICATION_PROTOCOL_DEFINITION ( 'draft international standard', 'automotive_design', 1998, #122 ) ;
#313 = VECTOR ( 'NONE', #283, 1000.000000000000000 ) ;
#314 = ORIENTED_EDGE ( 'NONE', *, *, #214, .T. ) ;
#315 = AXIS2_PLACEMENT_3D ( 'NONE', #381, #467, #89 ) ;
#316 = ADVANCED_FACE ( 'NONE', ( #121 ), #84, .F. ) ;
#317 = VERTEX_POINT ( 'NONE', #249 ) ;
#318 = LINE ( 'NONE', #360, #193 ) ;
#319 = CARTESIAN_POINT ( 'NONE',  ( 22.50000000000000000, -22.50000000000000355, 327.5000000000000000 ) ) ;
#320 = CARTESIAN_POINT ( 'NONE',  ( -22.50000000000000000, 22.49999999999999645, 47.49999999999992895 ) ) ;
#321 = LINE ( 'NONE', #199, #303 ) ;
#322 = CARTESIAN_POINT ( 'NONE',  ( 22.49999999999999289, 2.755455298081544778E-15, 50.00000000000000000 ) ) ;
#323 = CARTESIAN_POINT ( 'NONE',  ( -22.50000000000000000, 22.49999999999999645, 47.49999999999992895 ) ) ;
#324 = LINE ( 'NONE', #450, #126 ) ;
#325 = ADVANCED_FACE ( 'NONE', ( #539 ), #165, .F. ) ;
#326 = LINE ( 'NONE', #492, #130 ) ;
#327 = DIRECTION ( 'NONE',  ( 0.000000000000000000, 0.000000000000000000, -1.000000000000000000 ) ) ;
#328 = SURFACE_STYLE_USAGE ( .BOTH. , #490 ) ;
#329 = PRODUCT_DEFINITION_FORMATION_WITH_SPECIFIED_SOURCE ( 'ANY', '', #179, .NOT_KNOWN. ) ;
#330 = DIRECTION ( 'NONE',  ( -0.000000000000000000, -0.000000000000000000, 1.000000000000000000 ) ) ;
#331 = EDGE_CURVE ( 'NONE', #95, #386, #210, .T. ) ;
#332 = VECTOR ( 'NONE', #142, 1000.000000000000000 ) ;
#333 = CARTESIAN_POINT ( 'NONE',  ( -22.50000000000000000, -22.50000000000000355, 47.49999999999992895 ) ) ;
#334 = ORIENTED_EDGE ( 'NONE', *, *, #455, .F. ) ;
#335 = CARTESIAN_POINT ( 'NONE',  ( -91.13961030678926534, 0.000000000000000000, 27.49999999999999645 ) ) ;
#336 = ORIENTED_EDGE ( 'NONE', *, *, #97, .T. ) ;
#337 = CARTESIAN_POINT ( 'NONE',  ( 27.50000000000001776, 0.000000000000000000, 27.49999999999999645 ) ) ;
#338 = ADVANCED_FACE ( 'NONE', ( #119 ), #253, .F. ) ;
#339 = ADVANCED_FACE ( 'NONE', ( #541 ), #163, .F. ) ;
#340 = UNCERTAINTY_MEASURE_WITH_UNIT (LENGTH_MEASURE( 1.000000000000000082E-05 ), #209, 'distance_accuracy_value', 'NONE');
#341 = ORIENTED_EDGE ( 'NONE', *, *, #519, .F. ) ;
#342 = AXIS2_PLACEMENT_3D ( 'NONE', #534, #29, #530 ) ;
#343 = EDGE_LOOP ( 'NONE', ( #485, #476, #511, #308 ) ) ;
#344 = ORIENTED_EDGE ( 'NONE', *, *, #77, .T. ) ;
#345 = EDGE_LOOP ( 'NONE', ( #307, #352, #501, #481, #96 ) ) ;
#346 = DIRECTION ( 'NONE',  ( 1.000000000000000000, 0.000000000000000000, 0.000000000000000000 ) ) ;
#347 = DIRECTION ( 'NONE',  ( 1.000000000000000000, 0.000000000000000000, 0.000000000000000000 ) ) ;
#348 =( GEOMETRIC_REPRESENTATION_CONTEXT ( 3 ) GLOBAL_UNCERTAINTY_ASSIGNED_CONTEXT ( ( #168 ) ) GLOBAL_UNIT_ASSIGNED_CONTEXT ( ( #409, #373, #532 ) ) REPRESENTATION_CONTEXT ( 'NONE', 'WORKASPACE' ) );
#349 = ORIENTED_EDGE ( 'NONE', *, *, #405, .F. ) ;
#350 = LINE ( 'NONE', #44, #212 ) ;
#351 = CIRCLE ( 'NONE', #499, 27.49999999999999645 ) ;
#352 = ORIENTED_EDGE ( 'NONE', *, *, #108, .T. ) ;
#353 = DIRECTION ( 'NONE',  ( 0.000000000000000000, 0.000000000000000000, -1.000000000000000000 ) ) ;
#354 = DIRECTION ( 'NONE',  ( 0.000000000000000000, 0.000000000000000000, 1.000000000000000000 ) ) ;
#355 = VERTEX_POINT ( 'NONE', #251 ) ;
#356 = DIRECTION ( 'NONE',  ( 0.000000000000000000, 1.000000000000000000, 0.000000000000000000 ) ) ;
#357 = VECTOR ( 'NONE', #412, 1000.000000000000000 ) ;
#358 = ORIENTED_EDGE ( 'NONE', *, *, #465, .T. ) ;
#359 = PLANE ( 'NONE',  #255 ) ;
#360 = CARTESIAN_POINT ( 'NONE',  ( -66.39087296526008686, 0.000000000000000000, 0.000000000000000000 ) ) ;
#361 = LINE ( 'NONE', #36, #444 ) ;
#362 = CARTESIAN_POINT ( 'NONE',  ( 27.50000000000001776, -27.50000000000000355, 327.5000000000000000 ) ) ;
#363 = PRESENTATION_STYLE_ASSIGNMENT (( #328 ) ) ;
#364 = CARTESIAN_POINT ( 'NONE',  ( -91.13961030678926534, 0.000000000000000000, 4.999999999999993783 ) ) ;
#365 =( NAMED_UNIT ( * ) PLANE_ANGLE_UNIT ( ) SI_UNIT ( $, .RADIAN. ) );
#366 = COLOUR_RGB ( '',0.7921568627450980005, 0.8196078431372548767, 0.9333333333333333481 ) ;
#367 = DIRECTION ( 'NONE',  ( -0.000000000000000000, 1.000000000000000000, 0.000000000000000000 ) ) ;
#368 = FILL_AREA_STYLE ('',( #155 ) ) ;
#369 = VECTOR ( 'NONE', #263, 1000.000000000000000 ) ;
#370 = AXIS2_PLACEMENT_3D ( 'NONE', #207, #407, #246 ) ;
#371 = CARTESIAN_POINT ( 'NONE',  ( 22.50000000000000000, 22.49999999999999645, 47.49999999999992895 ) ) ;
#372 = FACE_BOUND ( 'NONE', #399, .T. ) ;
#373 =( NAMED_UNIT ( * ) PLANE_ANGLE_UNIT ( ) SI_UNIT ( $, .RADIAN. ) );
#374 = DIRECTION ( 'NONE',  ( 0.000000000000000000, 0.000000000000000000, -1.000000000000000000 ) ) ;
#375 = DIRECTION ( 'NONE',  ( 0.000000000000000000, 0.000000000000000000, -1.000000000000000000 ) ) ;
#376 = CARTESIAN_POINT ( 'NONE',  ( -22.49999999999999289, 0.000000000000000000, 27.49999999999999645 ) ) ;
#377 = ORIENTED_EDGE ( 'NONE', *, *, #17, .T. ) ;
#378 = LINE ( 'NONE', #333, #45 ) ;
#379 = ORIENTED_EDGE ( 'NONE', *, *, #206, .F. ) ;
#380 = ORIENTED_EDGE ( 'NONE', *, *, #421, .F. ) ;
#381 = CARTESIAN_POINT ( 'NONE',  ( 0.000000000000000000, 0.000000000000000000, 327.5000000000000000 ) ) ;
#382 = EDGE_CURVE ( 'NONE', #95, #317, #414, .T. ) ;
#383 = EDGE_CURVE ( 'NONE', #386, #228, #299, .T. ) ;
#384 = EDGE_CURVE ( 'NONE', #389, #86, #493, .T. ) ;
#385 = ORIENTED_EDGE ( 'NONE', *, *, #26, .T. ) ;
#386 = VERTEX_POINT ( 'NONE', #497 ) ;
#387 = PLANE ( 'NONE',  #129 ) ;
#388 = EDGE_CURVE ( 'NONE', #432, #355, #200, .T. ) ;
#389 = VERTEX_POINT ( 'NONE', #322 ) ;
#390 = DIRECTION ( 'NONE',  ( 1.000000000000000000, -0.000000000000000000, -0.000000000000000000 ) ) ;
#391 = ORIENTED_EDGE ( 'NONE', *, *, #383, .F. ) ;
#392 = CARTESIAN_POINT ( 'NONE',  ( 27.50000000000001776, 0.000000000000000000, 27.49999999999999645 ) ) ;
#393 = ORIENTED_EDGE ( 'NONE', *, *, #71, .F. ) ;
#394 = SURFACE_STYLE_FILL_AREA ( #239 ) ;
#395 = ORIENTED_EDGE ( 'NONE', *, *, #32, .T. ) ;
#396 = DIRECTION ( 'NONE',  ( 0.000000000000000000, 0.000000000000000000, -1.000000000000000000 ) ) ;
#397 = DIRECTION ( 'NONE',  ( 0.000000000000000000, 0.000000000000000000, -1.000000000000000000 ) ) ;
#398 = CARTESIAN_POINT ( 'NONE',  ( 27.50000000000001776, 0.000000000000000000, 0.000000000000000000 ) ) ;
#399 = EDGE_LOOP ( 'NONE', ( #542, #54 ) ) ;
#400 = CARTESIAN_POINT ( 'NONE',  ( -66.39087296526008686, 0.000000000000000000, 27.49999999999999645 ) ) ;
#401 = DIRECTION ( 'NONE',  ( -0.000000000000000000, -0.000000000000000000, 1.000000000000000000 ) ) ;
#402 = DIRECTION ( 'NONE',  ( -0.000000000000000000, -0.000000000000000000, -1.000000000000000000 ) ) ;
#403 = DIRECTION ( 'NONE',  ( -1.000000000000000000, 0.000000000000000000, -0.000000000000000000 ) ) ;
#404 = APPLICATION_PROTOCOL_DEFINITION ( 'draft international standard', 'automotive_design', 1998, #422 ) ;
#405 = EDGE_CURVE ( 'NONE', #219, #100, #116, .T. ) ;
#406 = CARTESIAN_POINT ( 'NONE',  ( 22.49999999999999289, 0.000000000000000000, 27.49999999999999645 ) ) ;
#407 = DIRECTION ( 'NONE',  ( 1.000000000000000000, 0.000000000000000000, 0.000000000000000000 ) ) ;
#408 = PLANE ( 'NONE',  #456 ) ;
#409 =( LENGTH_UNIT ( ) NAMED_UNIT ( * ) SI_UNIT ( .MILLI., .METRE. ) );
#410 = DIRECTION ( 'NONE',  ( 1.000000000000000000, -0.000000000000000000, -0.000000000000000000 ) ) ;
#411 = CIRCLE ( 'NONE', #370, 22.50000000000000355 ) ;
#412 = DIRECTION ( 'NONE',  ( -0.000000000000000000, -1.000000000000000000, -0.000000000000000000 ) ) ;
#413 = DIRECTION ( 'NONE',  ( 0.000000000000000000, 0.000000000000000000, -1.000000000000000000 ) ) ;
#414 = LINE ( 'NONE', #33, #425 ) ;
#415 = ORIENTED_EDGE ( 'NONE', *, *, #384, .F. ) ;
#416 =( GEOMETRIC_REPRESENTATION_CONTEXT ( 3 ) GLOBAL_UNCERTAINTY_ASSIGNED_CONTEXT ( ( #340 ) ) GLOBAL_UNIT_ASSIGNED_CONTEXT ( ( #209, #365, #159 ) ) REPRESENTATION_CONTEXT ( 'NONE', 'WORKASPACE' ) );
#417 = DIRECTION ( 'NONE',  ( -0.000000000000000000, -0.000000000000000000, 1.000000000000000000 ) ) ;
#418 = EDGE_LOOP ( 'NONE', ( #222, #15, #270, #310 ) ) ;
#419 = DIRECTION ( 'NONE',  ( 0.000000000000000000, -1.000000000000000000, 0.000000000000000000 ) ) ;
#420 = ORIENTED_EDGE ( 'NONE', *, *, #460, .F. ) ;
#421 = EDGE_CURVE ( 'NONE', #474, #133, #195, .T. ) ;
#422 = APPLICATION_CONTEXT ( 'automotive_design' ) ;
#423 = ORIENTED_EDGE ( 'NONE', *, *, #97, .F. ) ;
#424 = ORIENTED_EDGE ( 'NONE', *, *, #488, .T. ) ;
#425 = VECTOR ( 'NONE', #417, 1000.000000000000000 ) ;
#426 = VERTEX_POINT ( 'NONE', #362 ) ;
#427 = LINE ( 'NONE', #229, #139 ) ;
#428 = VECTOR ( 'NONE', #356, 1000.000000000000000 ) ;
#429 = EDGE_LOOP ( 'NONE', ( #379, #523 ) ) ;
#430 = ORIENTED_EDGE ( 'NONE', *, *, #214, .F. ) ;
#431 = ORIENTED_EDGE ( 'NONE', *, *, #331, .T. ) ;
#432 = VERTEX_POINT ( 'NONE', #242 ) ;
#433 = EDGE_LOOP ( 'NONE', ( #106, #349, #280, #47 ) ) ;
#434 = AXIS2_PLACEMENT_3D ( 'NONE', #271, #284, #353 ) ;
#435 = AXIS2_PLACEMENT_3D ( 'NONE', #23, #527, #161 ) ;
#436 = EDGE_LOOP ( 'NONE', ( #430, #344, #514, #304, #415, #225, #478, #277 ) ) ;
#437 = CARTESIAN_POINT ( 'NONE',  ( -22.50000000000000000, -22.50000000000000355, 327.5000000000000000 ) ) ;
#438 = EDGE_CURVE ( 'NONE', #355, #439, #152, .T. ) ;
#439 = VERTEX_POINT ( 'NONE', #437 ) ;
#440 = DIRECTION ( 'NONE',  ( 1.000000000000000000, -0.000000000000000000, 0.000000000000000000 ) ) ;
#441 = FACE_OUTER_BOUND ( 'NONE', #103, .T. ) ;
#442 = CARTESIAN_POINT ( 'NONE',  ( -91.13961030678926534, 2.755455298081545172E-15, 50.00000000000000000 ) ) ;
#443 = PRODUCT_CONTEXT ( 'NONE', #422, 'mechanical' ) ;
#444 = VECTOR ( 'NONE', #330, 1000.000000000000000 ) ;
#445 = DIRECTION ( 'NONE',  ( 1.000000000000000000, -0.000000000000000000, -0.000000000000000000 ) ) ;
#446 = CARTESIAN_POINT ( 'NONE',  ( -27.49999999999998224, 0.000000000000000000, 27.49999999999999645 ) ) ;
#447 = STYLED_ITEM ( 'NONE', ( #151 ), #135 ) ;
#448 = PLANE ( 'NONE',  #298 ) ;
#449 = PLANE ( 'NONE',  #205 ) ;
#450 = CARTESIAN_POINT ( 'NONE',  ( -22.50000000000000000, -22.50000000000000355, 327.5000000000000000 ) ) ;
#451 = FACE_OUTER_BOUND ( 'NONE', #4, .T. ) ;
#452 = CARTESIAN_POINT ( 'NONE',  ( 27.50000000000001776, -27.50000000000000355, 27.49999999999999645 ) ) ;
#453 = LINE ( 'NONE', #484, #138 ) ;
#454 = DIRECTION ( 'NONE',  ( 0.000000000000000000, -1.000000000000000000, 0.000000000000000000 ) ) ;
#455 = EDGE_CURVE ( 'NONE', #306, #386, #453, .T. ) ;
#456 = AXIS2_PLACEMENT_3D ( 'NONE', #157, #535, #413 ) ;
#457 = CARTESIAN_POINT ( 'NONE',  ( -91.13961030678926534, 0.000000000000000000, 27.49999999999999645 ) ) ;
#458 = UNCERTAINTY_MEASURE_WITH_UNIT (LENGTH_MEASURE( 1.000000000000000082E-05 ), #102, 'distance_accuracy_value', 'NONE');
#459 = DIRECTION ( 'NONE',  ( 0.000000000000000000, 0.000000000000000000, -1.000000000000000000 ) ) ;
#460 = EDGE_CURVE ( 'NONE', #188, #169, #10, .T. ) ;
#461 = DIRECTION ( 'NONE',  ( -1.000000000000000000, 0.000000000000000000, -0.000000000000000000 ) ) ;
#462 = ORIENTED_EDGE ( 'NONE', *, *, #145, .T. ) ;
#463 = DIRECTION ( 'NONE',  ( 1.000000000000000000, 0.000000000000000000, 0.000000000000000000 ) ) ;
#464 = VECTOR ( 'NONE', #22, 1000.000000000000000 ) ;
#465 = EDGE_CURVE ( 'NONE', #317, #439, #324, .T. ) ;
#466 = ORIENTED_EDGE ( 'NONE', *, *, #382, .F. ) ;
#467 = DIRECTION ( 'NONE',  ( 0.000000000000000000, 0.000000000000000000, -1.000000000000000000 ) ) ;
#468 = CARTESIAN_POINT ( 'NONE',  ( 27.50000000000001776, -27.50000000000000355, 327.5000000000000000 ) ) ;
#469 = EDGE_CURVE ( 'NONE', #228, #432, #540, .T. ) ;
#470 = EDGE_LOOP ( 'NONE', ( #9, #8, #380, #50 ) ) ;
#471 = DIRECTION ( 'NONE',  ( 0.000000000000000000, 0.000000000000000000, -1.000000000000000000 ) ) ;
#472 = AXIS2_PLACEMENT_3D ( 'NONE', #213, #419, #40 ) ;
#473 = VERTEX_POINT ( 'NONE', #208 ) ;
#474 = VERTEX_POINT ( 'NONE', #76 ) ;
#475 = CIRCLE ( 'NONE', #243, 27.49999999999999645 ) ;
#476 = ORIENTED_EDGE ( 'NONE', *, *, #421, .T. ) ;
#477 = CARTESIAN_POINT ( 'NONE',  ( 27.50000000000001776, 27.49999999999999645, 327.5000000000000000 ) ) ;
#478 = ORIENTED_EDGE ( 'NONE', *, *, #455, .T. ) ;
#479 = DIRECTION ( 'NONE',  ( 1.000000000000000000, 0.000000000000000000, 0.000000000000000000 ) ) ;
#480 = ADVANCED_FACE ( 'NONE', ( #192 ), #359, .F. ) ;
#481 = ORIENTED_EDGE ( 'NONE', *, *, #41, .F. ) ;
#482 = CARTESIAN_POINT ( 'NONE',  ( 22.50000000000000000, -22.50000000000000355, 47.49999999999992895 ) ) ;
#483 = ADVANCED_FACE ( 'NONE', ( #372, #531 ), #408, .F. ) ;
#484 = CARTESIAN_POINT ( 'NONE',  ( -91.13961030678926534, 10.30776406404428336, 47.49999999999992895 ) ) ;
#485 = ORIENTED_EDGE ( 'NONE', *, *, #186, .T. ) ;
#486 = CARTESIAN_POINT ( 'NONE',  ( 27.50000000000001776, 27.49999999999999645, 27.49999999999999645 ) ) ;
#487 = DIRECTION ( 'NONE',  ( 0.000000000000000000, 1.000000000000000000, 0.000000000000000000 ) ) ;
#488 = EDGE_CURVE ( 'NONE', #509, #389, #25, .T. ) ;
#489 = FACE_OUTER_BOUND ( 'NONE', #301, .T. ) ;
#490 = SURFACE_SIDE_STYLE ('',( #204 ) ) ;
#491 = AXIS2_PLACEMENT_3D ( 'NONE', #237, #111, #528 ) ;
#492 = CARTESIAN_POINT ( 'NONE',  ( -27.49999999999998224, 27.49999999999999645, 327.5000000000000000 ) ) ;
#493 = LINE ( 'NONE', #442, #158 ) ;
#494 = VECTOR ( 'NONE', #99, 1000.000000000000000 ) ;
#495 = PLANE ( 'NONE',  #533 ) ;
#496 = CARTESIAN_POINT ( 'NONE',  ( -22.49999999999999289, 2.755455298081544778E-15, 50.00000000000000000 ) ) ;
#497 = CARTESIAN_POINT ( 'NONE',  ( -22.50000000000000000, 10.30776406404427092, 47.49999999999992895 ) ) ;
#498 = CARTESIAN_POINT ( 'NONE',  ( -22.50000000000000000, -22.50000000000000355, 47.49999999999992895 ) ) ;
#499 = AXIS2_PLACEMENT_3D ( 'NONE', #278, #311, #397 ) ;
#500 = DIRECTION ( 'NONE',  ( 1.000000000000000000, -0.000000000000000000, -0.000000000000000000 ) ) ;
#501 = ORIENTED_EDGE ( 'NONE', *, *, #17, .F. ) ;
#502 = EDGE_CURVE ( 'NONE', #389, #306, #218, .T. ) ;
#503 = CARTESIAN_POINT ( 'NONE',  ( 22.50000000000000000, 10.30776406404427092, 47.49999999999992895 ) ) ;
#504 = ORIENTED_EDGE ( 'NONE', *, *, #93, .T. ) ;
#505 = DIRECTION ( 'NONE',  ( -1.000000000000000000, -0.000000000000000000, -0.000000000000000000 ) ) ;
#506 = VECTOR ( 'NONE', #487, 1000.000000000000000 ) ;
#507 = ORIENTED_EDGE ( 'NONE', *, *, #292, .T. ) ;
#508 = ORIENTED_EDGE ( 'NONE', *, *, #266, .T. ) ;
#509 = VERTEX_POINT ( 'NONE', #13 ) ;
#510 = ORIENTED_EDGE ( 'NONE', *, *, #438, .F. ) ;
#511 = ORIENTED_EDGE ( 'NONE', *, *, #41, .T. ) ;
#512 = DIRECTION ( 'NONE',  ( -1.000000000000000000, 0.000000000000000000, 0.000000000000000000 ) ) ;
#513 = AXIS2_PLACEMENT_3D ( 'NONE', #446, #248, #162 ) ;
#514 = ORIENTED_EDGE ( 'NONE', *, *, #197, .T. ) ;
#515 = LINE ( 'NONE', #265, #516 ) ;
#516 = VECTOR ( 'NONE', #346, 1000.000000000000000 ) ;
#517 = SHAPE_DEFINITION_REPRESENTATION ( #56, #120 ) ;
#518 = ORIENTED_EDGE ( 'NONE', *, *, #292, .F. ) ;
#519 = EDGE_CURVE ( 'NONE', #167, #127, #58, .T. ) ;
#520 = EDGE_LOOP ( 'NONE', ( #267, #98, #358, #510, #5, #256, #391 ) ) ;
#521 = ADVANCED_FACE ( 'NONE', ( #451 ), #495, .F. ) ;
#522 = DIRECTION ( 'NONE',  ( 1.000000000000000000, -0.000000000000000000, -0.000000000000000000 ) ) ;
#523 = ORIENTED_EDGE ( 'NONE', *, *, #250, .F. ) ;
#524 = CARTESIAN_POINT ( 'NONE',  ( 27.50000000000001776, -27.50000000000000355, 327.5000000000000000 ) ) ;
#525 = CARTESIAN_POINT ( 'NONE',  ( -27.49999999999998224, 27.49999999999999645, 327.5000000000000000 ) ) ;
#526 = CARTESIAN_POINT ( 'NONE',  ( -22.50000000000000000, -22.50000000000000355, 327.5000000000000000 ) ) ;
#527 = DIRECTION ( 'NONE',  ( 1.000000000000000000, -0.000000000000000000, 0.000000000000000000 ) ) ;
#528 = DIRECTION ( 'NONE',  ( 0.000000000000000000, 0.000000000000000000, 1.000000000000000000 ) ) ;
#529 = CARTESIAN_POINT ( 'NONE',  ( -22.50000000000000000, -22.50000000000000355, 47.49999999999992895 ) ) ;
#530 = DIRECTION ( 'NONE',  ( 0.000000000000000000, 0.000000000000000000, -1.000000000000000000 ) ) ;
#531 = FACE_OUTER_BOUND ( 'NONE', #345, .T. ) ;
#532 =( NAMED_UNIT ( * ) SI_UNIT ( $, .STERADIAN. ) SOLID_ANGLE_UNIT ( ) );
#533 = AXIS2_PLACEMENT_3D ( 'NONE', #537, #288, #201 ) ;
#534 = CARTESIAN_POINT ( 'NONE',  ( 27.50000000000001776, 0.000000000000000000, 27.49999999999999645 ) ) ;
#535 = DIRECTION ( 'NONE',  ( 1.000000000000000000, 0.000000000000000000, 0.000000000000000000 ) ) ;
#536 = CARTESIAN_POINT ( 'NONE',  ( -66.39087296526008686, 27.49999999999999645, 27.49999999999999645 ) ) ;
#537 = CARTESIAN_POINT ( 'NONE',  ( -27.49999999999998224, -27.50000000000000355, 327.5000000000000000 ) ) ;
#538 = ADVANCED_FACE ( 'NONE', ( #196 ), #448, .F. ) ;
#539 = FACE_OUTER_BOUND ( 'NONE', #470, .T. ) ;
#540 = CIRCLE ( 'NONE', #491, 22.50000000000000711 ) ;
#541 = FACE_OUTER_BOUND ( 'NONE', #418, .T. ) ;
#542 = ORIENTED_EDGE ( 'NONE', *, *, #27, .F. ) ;
ENDSEC;
END-ISO-10303-21;
