ISO-10303-21;
HEADER;
FILE_DESCRIPTION (( 'STEP AP214' ),
    '1' );
FILE_NAME ('Link3.STEP',
    '2023-11-10T07:16:45',
    ( '' ),
    ( '' ),
    'SwSTEP 2.0',
    'SolidWorks 2020',
    '' );
FILE_SCHEMA (( 'AUTOMOTIVE_DESIGN' ));
ENDSEC;

DATA;
#1 = EDGE_CURVE ( 'NONE', #143, #336, #190, .T. ) ;
#2 =( NAMED_UNIT ( * ) PLANE_ANGLE_UNIT ( ) SI_UNIT ( $, .RADIAN. ) );
#3 =( LENGTH_UNIT ( ) NAMED_UNIT ( * ) SI_UNIT ( .MILLI., .METRE. ) );
#4 = AXIS2_PLACEMENT_3D ( 'NONE', #44, #36, #439 ) ;
#5 = EDGE_CURVE ( 'NONE', #176, #238, #329, .T. ) ;
#6 = DIRECTION ( 'NONE',  ( 0.000000000000000000, -0.000000000000000000, 1.000000000000000000 ) ) ;
#7 = CARTESIAN_POINT ( 'NONE',  ( 27.50000000000000355, 17.50000000000000000, 305.0000000000001137 ) ) ;
#8 =( NAMED_UNIT ( * ) PLANE_ANGLE_UNIT ( ) SI_UNIT ( $, .RADIAN. ) );
#9 = CARTESIAN_POINT ( 'NONE',  ( -22.50000000000000000, 22.50000000000000355, 320.0000000000001137 ) ) ;
#10 = DIRECTION ( 'NONE',  ( -0.000000000000000000, -1.000000000000000000, -0.000000000000000000 ) ) ;
#11 = DIRECTION ( 'NONE',  ( 0.000000000000000000, -2.312964634635740985E-16, -1.000000000000000000 ) ) ;
#12 = LINE ( 'NONE', #153, #21 ) ;
#13 = FACE_OUTER_BOUND ( 'NONE', #415, .T. ) ;
#14 = PLANE ( 'NONE',  #16 ) ;
#15 = EDGE_CURVE ( 'NONE', #171, #176, #215, .T. ) ;
#16 = AXIS2_PLACEMENT_3D ( 'NONE', #219, #406, #11 ) ;
#17 = DIRECTION ( 'NONE',  ( 0.000000000000000000, 0.000000000000000000, 1.000000000000000000 ) ) ;
#18 = DIRECTION ( 'NONE',  ( 0.000000000000000000, -0.7071067811865427988, -0.7071067811865522357 ) ) ;
#19 = ORIENTED_EDGE ( 'NONE', *, *, #344, .F. ) ;
#20 = CARTESIAN_POINT ( 'NONE',  ( 22.50000000000000000, 17.49999999999999645, 290.0000000000001137 ) ) ;
#21 = VECTOR ( 'NONE', #180, 1000.000000000000000 ) ;
#22 = DIRECTION ( 'NONE',  ( 1.000000000000000000, 0.000000000000000000, 0.000000000000000000 ) ) ;
#23 = ORIENTED_EDGE ( 'NONE', *, *, #57, .F. ) ;
#24 = APPLICATION_PROTOCOL_DEFINITION ( 'draft international standard', 'automotive_design', 1998, #381 ) ;
#25 = CARTESIAN_POINT ( 'NONE',  ( 22.50000000000000000, -22.49999999999999645, 290.0000000000001137 ) ) ;
#26 = LINE ( 'NONE', #165, #164 ) ;
#27 = PLANE ( 'NONE',  #96 ) ;
#28 = DIRECTION ( 'NONE',  ( 0.000000000000000000, 0.000000000000000000, -1.000000000000000000 ) ) ;
#29 = DIRECTION ( 'NONE',  ( 0.000000000000000000, -0.7071067811865522357, 0.7071067811865427988 ) ) ;
#30 = ORIENTED_EDGE ( 'NONE', *, *, #418, .F. ) ;
#31 = VERTEX_POINT ( 'NONE', #444 ) ;
#32 = CARTESIAN_POINT ( 'NONE',  ( 22.50000000000000000, 17.50000000000000000, 305.0000000000001137 ) ) ;
#33 = ORIENTED_EDGE ( 'NONE', *, *, #433, .F. ) ;
#34 = EDGE_LOOP ( 'NONE', ( #37, #453, #423, #132 ) ) ;
#35 = EDGE_CURVE ( 'NONE', #426, #425, #352, .T. ) ;
#36 = DIRECTION ( 'NONE',  ( 0.000000000000000000, 0.000000000000000000, -1.000000000000000000 ) ) ;
#37 = ORIENTED_EDGE ( 'NONE', *, *, #183, .T. ) ;
#38 =( GEOMETRIC_REPRESENTATION_CONTEXT ( 3 ) GLOBAL_UNCERTAINTY_ASSIGNED_CONTEXT ( ( #241 ) ) GLOBAL_UNIT_ASSIGNED_CONTEXT ( ( #283, #8, #437 ) ) REPRESENTATION_CONTEXT ( 'NONE', 'WORKASPACE' ) );
#39 = CARTESIAN_POINT ( 'NONE',  ( -22.50000000000000000, 22.50000000000000355, 0.000000000000000000 ) ) ;
#40 = CARTESIAN_POINT ( 'NONE',  ( -22.50000000000000000, -22.49999999999999645, 0.000000000000000000 ) ) ;
#41 = DIRECTION ( 'NONE',  ( 0.000000000000000000, 0.7071067811865521247, -0.7071067811865430208 ) ) ;
#42 = CARTESIAN_POINT ( 'NONE',  ( 27.50000000000000355, -17.49999999999999645, 305.0000000000001137 ) ) ;
#43 = CARTESIAN_POINT ( 'NONE',  ( 27.50000000000000355, -17.49999999999999645, 290.0000000000001137 ) ) ;
#44 = CARTESIAN_POINT ( 'NONE',  ( 0.000000000000000000, 0.000000000000000000, 320.0000000000001137 ) ) ;
#45 = ADVANCED_FACE ( 'NONE', ( #184 ), #258, .T. ) ;
#46 = ORIENTED_EDGE ( 'NONE', *, *, #309, .F. ) ;
#47 = FACE_OUTER_BOUND ( 'NONE', #314, .T. ) ;
#48 = VECTOR ( 'NONE', #173, 1000.000000000000000 ) ;
#49 = CARTESIAN_POINT ( 'NONE',  ( -22.50000000000000000, -22.49999999999999645, 320.0000000000001137 ) ) ;
#50 = DIRECTION ( 'NONE',  ( 0.000000000000000000, 0.000000000000000000, 1.000000000000000000 ) ) ;
#51 = DIRECTION ( 'NONE',  ( -1.000000000000000000, 0.000000000000000000, -0.000000000000000000 ) ) ;
#52 = CARTESIAN_POINT ( 'NONE',  ( -22.50000000000000000, -22.49999999999999645, 320.0000000000001137 ) ) ;
#53 = LINE ( 'NONE', #398, #243 ) ;
#54 = ADVANCED_FACE ( 'NONE', ( #13 ), #86, .F. ) ;
#55 = DIRECTION ( 'NONE',  ( -1.000000000000000000, 0.000000000000000000, -0.000000000000000000 ) ) ;
#56 = CARTESIAN_POINT ( 'NONE',  ( -22.50000000000000000, -22.49999999999999645, 0.000000000000000000 ) ) ;
#57 = EDGE_CURVE ( 'NONE', #171, #100, #117, .T. ) ;
#58 =( GEOMETRIC_REPRESENTATION_CONTEXT ( 3 ) GLOBAL_UNCERTAINTY_ASSIGNED_CONTEXT ( ( #181 ) ) GLOBAL_UNIT_ASSIGNED_CONTEXT ( ( #3, #2, #213 ) ) REPRESENTATION_CONTEXT ( 'NONE', 'WORKASPACE' ) );
#59 = DIRECTION ( 'NONE',  ( 0.000000000000000000, 0.7071067811865429098, 0.7071067811865522357 ) ) ;
#60 = PLANE ( 'NONE',  #159 ) ;
#61 = DIRECTION ( 'NONE',  ( 0.000000000000000000, -0.7071067811865523467, 0.7071067811865427988 ) ) ;
#62 = EDGE_CURVE ( 'NONE', #312, #426, #84, .T. ) ;
#63 = CARTESIAN_POINT ( 'NONE',  ( 22.50000000000000000, -10.00000000000027001, 332.5000000000000000 ) ) ;
#64 = CARTESIAN_POINT ( 'NONE',  ( -22.50000000000000000, -2.500000000000231370, 320.0000000000001137 ) ) ;
#65 = ORIENTED_EDGE ( 'NONE', *, *, #410, .T. ) ;
#66 = EDGE_LOOP ( 'NONE', ( #46, #325, #229, #300, #19, #70, #303, #373, #114, #234, #350, #341 ) ) ;
#67 = AXIS2_PLACEMENT_3D ( 'NONE', #93, #368, #55 ) ;
#68 = ORIENTED_EDGE ( 'NONE', *, *, #121, .F. ) ;
#69 = PRODUCT_DEFINITION_SHAPE ( 'NONE', 'NONE',  #282 ) ;
#70 = ORIENTED_EDGE ( 'NONE', *, *, #374, .T. ) ;
#71 = VECTOR ( 'NONE', #156, 1000.000000000000000 ) ;
#72 = VERTEX_POINT ( 'NONE', #261 ) ;
#73 = VECTOR ( 'NONE', #356, 1000.000000000000000 ) ;
#74 = VERTEX_POINT ( 'NONE', #405 ) ;
#75 = CARTESIAN_POINT ( 'NONE',  ( -22.50000000000000000, 161.2499999999999432, 161.2500000000020748 ) ) ;
#76 = EDGE_CURVE ( 'NONE', #336, #100, #148, .T. ) ;
#77 = VERTEX_POINT ( 'NONE', #88 ) ;
#78 = DIRECTION ( 'NONE',  ( 0.000000000000000000, 0.7071067811865426878, 0.7071067811865522357 ) ) ;
#79 = ORIENTED_EDGE ( 'NONE', *, *, #338, .T. ) ;
#80 = FACE_OUTER_BOUND ( 'NONE', #208, .T. ) ;
#81 = CARTESIAN_POINT ( 'NONE',  ( 22.50000000000000000, -22.49999999999999645, 320.0000000000001137 ) ) ;
#82 = AXIS2_PLACEMENT_3D ( 'NONE', #250, #123, #245 ) ;
#83 = DIRECTION ( 'NONE',  ( 0.000000000000000000, 1.000000000000000000, 0.000000000000000000 ) ) ;
#84 = LINE ( 'NONE', #9, #387 ) ;
#85 = DIRECTION ( 'NONE',  ( 1.000000000000000000, 0.000000000000000000, 0.000000000000000000 ) ) ;
#86 = PLANE ( 'NONE',  #97 ) ;
#87 = DIRECTION ( 'NONE',  ( 0.000000000000000000, 0.000000000000000000, 1.000000000000000000 ) ) ;
#88 = CARTESIAN_POINT ( 'NONE',  ( -22.50000000000000000, 10.42893218813454759, 320.0000000000001137 ) ) ;
#89 = LINE ( 'NONE', #42, #269 ) ;
#90 = AXIS2_PLACEMENT_3D ( 'NONE', #49, #83, #6 ) ;
#91 = EDGE_CURVE ( 'NONE', #77, #312, #354, .T. ) ;
#92 = CARTESIAN_POINT ( 'NONE',  ( -22.50000000000000000, -17.49999999999999645, 305.0000000000001137 ) ) ;
#93 = CARTESIAN_POINT ( 'NONE',  ( 0.000000000000000000, 0.000000000000000000, 0.000000000000000000 ) ) ;
#94 = DIRECTION ( 'NONE',  ( 1.000000000000000000, 0.000000000000000000, 0.000000000000000000 ) ) ;
#95 = ORIENTED_EDGE ( 'NONE', *, *, #374, .F. ) ;
#96 = AXIS2_PLACEMENT_3D ( 'NONE', #232, #372, #59 ) ;
#97 = AXIS2_PLACEMENT_3D ( 'NONE', #322, #402, #127 ) ;
#98 = FACE_OUTER_BOUND ( 'NONE', #131, .T. ) ;
#99 = PRODUCT_CONTEXT ( 'NONE', #220, 'mechanical' ) ;
#100 = VERTEX_POINT ( 'NONE', #187 ) ;
#101 = FILL_AREA_STYLE_COLOUR ( '', #460 ) ;
#102 = DIRECTION ( 'NONE',  ( -0.000000000000000000, 0.7071067811865430208, 0.7071067811865521247 ) ) ;
#103 = ORIENTED_EDGE ( 'NONE', *, *, #57, .T. ) ;
#104 = EDGE_LOOP ( 'NONE', ( #317, #294, #95, #233 ) ) ;
#105 = VECTOR ( 'NONE', #281, 1000.000000000000000 ) ;
#106 = ORIENTED_EDGE ( 'NONE', *, *, #380, .T. ) ;
#107 = VERTEX_POINT ( 'NONE', #362 ) ;
#108 = EDGE_CURVE ( 'NONE', #160, #238, #194, .T. ) ;
#109 = VECTOR ( 'NONE', #135, 1000.000000000000000 ) ;
#110 = ORIENTED_EDGE ( 'NONE', *, *, #1, .T. ) ;
#111 = AXIS2_PLACEMENT_3D ( 'NONE', #291, #259, #51 ) ;
#112 = STYLED_ITEM ( 'NONE', ( #459 ), #214 ) ;
#113 = CARTESIAN_POINT ( 'NONE',  ( -22.50000000000000000, -161.2500000000001990, 161.2499999999980105 ) ) ;
#114 = ORIENTED_EDGE ( 'NONE', *, *, #246, .F. ) ;
#115 = VECTOR ( 'NONE', #226, 1000.000000000000000 ) ;
#116 = DIRECTION ( 'NONE',  ( 0.000000000000000000, 1.000000000000000000, 0.000000000000000000 ) ) ;
#117 = LINE ( 'NONE', #400, #224 ) ;
#118 = CARTESIAN_POINT ( 'NONE',  ( -22.50000000000000000, -17.49999999999999645, 290.0000000000001137 ) ) ;
#119 = CARTESIAN_POINT ( 'NONE',  ( 22.50000000000000000, -22.49999999999999645, 320.0000000000001137 ) ) ;
#120 = DIRECTION ( 'NONE',  ( -1.000000000000000000, 0.000000000000000000, 0.000000000000000000 ) ) ;
#121 = EDGE_CURVE ( 'NONE', #266, #236, #455, .T. ) ;
#122 = VECTOR ( 'NONE', #78, 1000.000000000000114 ) ;
#123 = DIRECTION ( 'NONE',  ( 0.000000000000000000, -1.000000000000000000, 0.000000000000000000 ) ) ;
#124 = CARTESIAN_POINT ( 'NONE',  ( -22.50000000000000000, 165.2144660940672622, 165.2144660940693655 ) ) ;
#125 = LINE ( 'NONE', #299, #416 ) ;
#126 = DIRECTION ( 'NONE',  ( 0.000000000000000000, 2.312964634635740985E-16, 1.000000000000000000 ) ) ;
#127 = DIRECTION ( 'NONE',  ( 0.000000000000000000, -0.000000000000000000, -1.000000000000000000 ) ) ;
#128 = PLANE ( 'NONE',  #263 ) ;
#129 = EDGE_CURVE ( 'NONE', #425, #176, #340, .T. ) ;
#130 = AXIS2_PLACEMENT_3D ( 'NONE', #464, #61, #170 ) ;
#131 = EDGE_LOOP ( 'NONE', ( #196, #411, #23, #280 ) ) ;
#132 = ORIENTED_EDGE ( 'NONE', *, *, #228, .F. ) ;
#133 = ADVANCED_FACE ( 'NONE', ( #98 ), #27, .F. ) ;
#134 = VECTOR ( 'NONE', #189, 1000.000000000000000 ) ;
#135 = DIRECTION ( 'NONE',  ( 0.000000000000000000, 1.000000000000000000, -0.000000000000000000 ) ) ;
#136 = PRODUCT_RELATED_PRODUCT_CATEGORY ( 'part', '', ( #286 ) ) ;
#137 = ORIENTED_EDGE ( 'NONE', *, *, #298, .T. ) ;
#138 = DIRECTION ( 'NONE',  ( 0.000000000000000000, 1.000000000000000000, 0.000000000000000000 ) ) ;
#139 = ORIENTED_EDGE ( 'NONE', *, *, #307, .T. ) ;
#140 = EDGE_LOOP ( 'NONE', ( #169, #466, #201, #33 ) ) ;
#141 = EDGE_CURVE ( 'NONE', #267, #266, #375, .T. ) ;
#142 = CARTESIAN_POINT ( 'NONE',  ( 27.50000000000000355, 22.50000000000001421, 307.9289321881347519 ) ) ;
#143 = VERTEX_POINT ( 'NONE', #64 ) ;
#144 = AXIS2_PLACEMENT_3D ( 'NONE', #412, #448, #94 ) ;
#145 = LINE ( 'NONE', #327, #361 ) ;
#146 = ORIENTED_EDGE ( 'NONE', *, *, #15, .T. ) ;
#147 = ADVANCED_FACE ( 'NONE', ( #80 ), #295, .F. ) ;
#148 = LINE ( 'NONE', #218, #188 ) ;
#149 = LINE ( 'NONE', #401, #73 ) ;
#150 = DIRECTION ( 'NONE',  ( -1.000000000000000000, -0.000000000000000000, -0.000000000000000000 ) ) ;
#151 = LINE ( 'NONE', #195, #71 ) ;
#152 = PLANE ( 'NONE',  #4 ) ;
#153 = CARTESIAN_POINT ( 'NONE',  ( -22.50000000000000000, 22.50000000000000355, 0.000000000000000000 ) ) ;
#154 = LINE ( 'NONE', #394, #48 ) ;
#155 = CARTESIAN_POINT ( 'NONE',  ( -22.50000000000000000, -22.49999999999999645, 320.0000000000001137 ) ) ;
#156 = DIRECTION ( 'NONE',  ( 1.000000000000000000, 0.000000000000000000, 0.000000000000000000 ) ) ;
#157 = LINE ( 'NONE', #52, #275 ) ;
#158 =( NAMED_UNIT ( * ) PLANE_ANGLE_UNIT ( ) SI_UNIT ( $, .RADIAN. ) );
#159 = AXIS2_PLACEMENT_3D ( 'NONE', #419, #377, #28 ) ;
#160 = VERTEX_POINT ( 'NONE', #288 ) ;
#161 = SHAPE_DEFINITION_REPRESENTATION ( #69, #214 ) ;
#162 = FACE_OUTER_BOUND ( 'NONE', #34, .T. ) ;
#163 = EDGE_LOOP ( 'NONE', ( #335, #391, #239, #414 ) ) ;
#164 = VECTOR ( 'NONE', #203, 1000.000000000000000 ) ;
#165 = CARTESIAN_POINT ( 'NONE',  ( -22.50000000000000000, -22.49999999999999645, 320.0000000000001137 ) ) ;
#166 = ORIENTED_EDGE ( 'NONE', *, *, #292, .T. ) ;
#167 = EDGE_CURVE ( 'NONE', #74, #463, #125, .T. ) ;
#168 = DIRECTION ( 'NONE',  ( 0.000000000000000000, -0.7071067811865521247, 0.7071067811865430208 ) ) ;
#169 = ORIENTED_EDGE ( 'NONE', *, *, #5, .F. ) ;
#170 = DIRECTION ( 'NONE',  ( 0.000000000000000000, -0.7071067811865426878, -0.7071067811865522357 ) ) ;
#171 = VERTEX_POINT ( 'NONE', #452 ) ;
#172 = ORIENTED_EDGE ( 'NONE', *, *, #141, .F. ) ;
#173 = DIRECTION ( 'NONE',  ( 0.000000000000000000, 0.000000000000000000, 1.000000000000000000 ) ) ;
#174 = VECTOR ( 'NONE', #22, 1000.000000000000000 ) ;
#175 = LINE ( 'NONE', #63, #382 ) ;
#176 = VERTEX_POINT ( 'NONE', #223 ) ;
#177 = ORIENTED_EDGE ( 'NONE', *, *, #417, .F. ) ;
#178 = ADVANCED_FACE ( 'NONE', ( #256 ), #14, .T. ) ;
#179 = SURFACE_SIDE_STYLE ('',( #249 ) ) ;
#180 = DIRECTION ( 'NONE',  ( -1.000000000000000000, -0.000000000000000000, -0.000000000000000000 ) ) ;
#181 = UNCERTAINTY_MEASURE_WITH_UNIT (LENGTH_MEASURE( 1.000000000000000082E-05 ), #3, 'distance_accuracy_value', 'NONE');
#182 = VECTOR ( 'NONE', #116, 1000.000000000000000 ) ;
#183 = EDGE_CURVE ( 'NONE', #393, #230, #89, .T. ) ;
#184 = FACE_OUTER_BOUND ( 'NONE', #104, .T. ) ;
#185 = LINE ( 'NONE', #227, #301 ) ;
#186 = LINE ( 'NONE', #7, #319 ) ;
#187 = CARTESIAN_POINT ( 'NONE',  ( -22.50000000000000000, -22.49999999999999289, 307.9289321881345245 ) ) ;
#188 = VECTOR ( 'NONE', #440, 1000.000000000000000 ) ;
#189 = DIRECTION ( 'NONE',  ( -1.000000000000000000, -0.000000000000000000, -0.000000000000000000 ) ) ;
#190 = LINE ( 'NONE', #155, #310 ) ;
#191 = CARTESIAN_POINT ( 'NONE',  ( 22.50000000000000000, -22.49999999999999645, 320.0000000000001137 ) ) ;
#192 = STYLED_ITEM ( 'NONE', ( #428 ), #279 ) ;
#193 = CARTESIAN_POINT ( 'NONE',  ( -22.50000000000000000, 2.499999999999713562, 320.0000000000001705 ) ) ;
#194 = LINE ( 'NONE', #284, #315 ) ;
#195 = CARTESIAN_POINT ( 'NONE',  ( 0.000000000000000000, 10.42893218813450318, 320.0000000000001137 ) ) ;
#196 = ORIENTED_EDGE ( 'NONE', *, *, #410, .F. ) ;
#197 = ORIENTED_EDGE ( 'NONE', *, *, #433, .T. ) ;
#198 = MECHANICAL_DESIGN_GEOMETRIC_PRESENTATION_REPRESENTATION (  '', ( #192 ), #58 ) ;
#199 = ADVANCED_FACE ( 'NONE', ( #446 ), #363, .F. ) ;
#200 = VERTEX_POINT ( 'NONE', #326 ) ;
#201 = ORIENTED_EDGE ( 'NONE', *, *, #35, .F. ) ;
#202 = AXIS2_PLACEMENT_3D ( 'NONE', #191, #449, #17 ) ;
#203 = DIRECTION ( 'NONE',  ( -0.000000000000000000, -0.000000000000000000, -1.000000000000000000 ) ) ;
#204 = ORIENTED_EDGE ( 'NONE', *, *, #447, .T. ) ;
#205 = AXIS2_PLACEMENT_3D ( 'NONE', #273, #102, #168 ) ;
#206 = EDGE_LOOP ( 'NONE', ( #465, #421, #276, #137 ) ) ;
#207 = PLANE ( 'NONE',  #130 ) ;
#208 = EDGE_LOOP ( 'NONE', ( #287, #79, #146, #346, #345, #272, #347, #237, #209, #172, #204, #339 ) ) ;
#209 = ORIENTED_EDGE ( 'NONE', *, *, #380, .F. ) ;
#210 = EDGE_CURVE ( 'NONE', #77, #31, #151, .T. ) ;
#211 = CARTESIAN_POINT ( 'NONE',  ( 0.000000000000000000, -10.42893218813456357, 320.0000000000001137 ) ) ;
#212 = ORIENTED_EDGE ( 'NONE', *, *, #129, .T. ) ;
#213 =( NAMED_UNIT ( * ) SI_UNIT ( $, .STERADIAN. ) SOLID_ANGLE_UNIT ( ) );
#214 = ADVANCED_BREP_SHAPE_REPRESENTATION ( 'Link3', ( #279, #144 ), #38 ) ;
#215 = LINE ( 'NONE', #119, #369 ) ;
#216 = CARTESIAN_POINT ( 'NONE',  ( 22.50000000000000000, -12.49999999999997335, 310.0000000000002274 ) ) ;
#217 = DIRECTION ( 'NONE',  ( -1.000000000000000000, 0.000000000000000000, 0.000000000000000000 ) ) ;
#218 = CARTESIAN_POINT ( 'NONE',  ( -22.50000000000000000, -165.2144660940674328, 165.2144660940652443 ) ) ;
#219 = CARTESIAN_POINT ( 'NONE',  ( 27.50000000000000355, 17.49999999999993250, -4.047688110612531217E-15 ) ) ;
#220 = APPLICATION_CONTEXT ( 'automotive_design' ) ;
#221 = LINE ( 'NONE', #113, #122 ) ;
#222 = CARTESIAN_POINT ( 'NONE',  ( 22.50000000000000000, -22.49999999999999645, 0.000000000000000000 ) ) ;
#223 = CARTESIAN_POINT ( 'NONE',  ( 22.50000000000000000, -22.49999999999999645, 0.000000000000000000 ) ) ;
#224 = VECTOR ( 'NONE', #150, 1000.000000000000000 ) ;
#225 = LINE ( 'NONE', #75, #270 ) ;
#226 = DIRECTION ( 'NONE',  ( 0.000000000000000000, 1.000000000000000000, 0.000000000000000000 ) ) ;
#227 = CARTESIAN_POINT ( 'NONE',  ( 22.50000000000000000, -22.49999999999999645, 320.0000000000001137 ) ) ;
#228 = EDGE_CURVE ( 'NONE', #393, #107, #296, .T. ) ;
#229 = ORIENTED_EDGE ( 'NONE', *, *, #1, .F. ) ;
#230 = VERTEX_POINT ( 'NONE', #92 ) ;
#231 = FILL_AREA_STYLE ('',( #101 ) ) ;
#232 = CARTESIAN_POINT ( 'NONE',  ( 27.50000000000000355, -165.2144660940674328, 165.2144660940652443 ) ) ;
#233 = ORIENTED_EDGE ( 'NONE', *, *, #277, .F. ) ;
#234 = ORIENTED_EDGE ( 'NONE', *, *, #91, .T. ) ;
#235 = VECTOR ( 'NONE', #138, 1000.000000000000000 ) ;
#236 = VERTEX_POINT ( 'NONE', #441 ) ;
#237 = ORIENTED_EDGE ( 'NONE', *, *, #307, .F. ) ;
#238 = VERTEX_POINT ( 'NONE', #365 ) ;
#239 = ORIENTED_EDGE ( 'NONE', *, *, #183, .F. ) ;
#240 = EDGE_CURVE ( 'NONE', #31, #160, #53, .T. ) ;
#241 = UNCERTAINTY_MEASURE_WITH_UNIT (LENGTH_MEASURE( 1.000000000000000082E-05 ), #283, 'distance_accuracy_value', 'NONE');
#242 = EDGE_CURVE ( 'NONE', #72, #107, #185, .T. ) ;
#243 = VECTOR ( 'NONE', #353, 1000.000000000000000 ) ;
#244 = ADVANCED_FACE ( 'NONE', ( #47 ), #128, .T. ) ;
#245 = DIRECTION ( 'NONE',  ( 0.000000000000000000, -0.000000000000000000, -1.000000000000000000 ) ) ;
#246 = EDGE_CURVE ( 'NONE', #77, #463, #157, .T. ) ;
#247 = ORIENTED_EDGE ( 'NONE', *, *, #15, .F. ) ;
#248 = CLOSED_SHELL ( 'NONE', ( #147, #54, #331, #199, #462, #348, #265, #366, #45, #178, #244, #332, #324, #133 ) ) ;
#249 = SURFACE_STYLE_FILL_AREA ( #432 ) ;
#250 = CARTESIAN_POINT ( 'NONE',  ( 27.50000000000000355, -17.49999999999999645, 0.000000000000000000 ) ) ;
#251 = DIRECTION ( 'NONE',  ( -0.000000000000000000, -0.000000000000000000, -1.000000000000000000 ) ) ;
#252 = DIRECTION ( 'NONE',  ( -1.000000000000000000, -0.000000000000000000, -0.000000000000000000 ) ) ;
#253 = LINE ( 'NONE', #81, #235 ) ;
#254 = CARTESIAN_POINT ( 'NONE',  ( 27.50000000000000355, 0.000000000000000000, 290.0000000000001137 ) ) ;
#255 = PRESENTATION_LAYER_ASSIGNMENT (  '', '', ( #192 ) ) ;
#256 = FACE_OUTER_BOUND ( 'NONE', #422, .T. ) ;
#257 = LINE ( 'NONE', #211, #328 ) ;
#258 = PLANE ( 'NONE',  #436 ) ;
#259 = DIRECTION ( 'NONE',  ( 0.000000000000000000, 0.000000000000000000, -1.000000000000000000 ) ) ;
#260 = FACE_OUTER_BOUND ( 'NONE', #427, .T. ) ;
#261 = CARTESIAN_POINT ( 'NONE',  ( 22.50000000000000000, -10.42893218813456713, 320.0000000000001137 ) ) ;
#262 = CARTESIAN_POINT ( 'NONE',  ( 22.50000000000000000, -16.46446609406720185, 313.9644660940674044 ) ) ;
#263 = AXIS2_PLACEMENT_3D ( 'NONE', #442, #18, #364 ) ;
#264 = DIRECTION ( 'NONE',  ( 0.000000000000000000, 1.000000000000000000, 0.000000000000000000 ) ) ;
#265 = ADVANCED_FACE ( 'NONE', ( #297 ), #450, .T. ) ;
#266 = VERTEX_POINT ( 'NONE', #20 ) ;
#267 = VERTEX_POINT ( 'NONE', #302 ) ;
#268 = ORIENTED_EDGE ( 'NONE', *, *, #292, .F. ) ;
#269 = VECTOR ( 'NONE', #252, 1000.000000000000000 ) ;
#270 = VECTOR ( 'NONE', #404, 1000.000000000000114 ) ;
#271 = LINE ( 'NONE', #262, #316 ) ;
#272 = ORIENTED_EDGE ( 'NONE', *, *, #240, .F. ) ;
#273 = CARTESIAN_POINT ( 'NONE',  ( 27.50000000000000355, 165.2144660940672622, 165.2144660940693655 ) ) ;
#274 = ORIENTED_EDGE ( 'NONE', *, *, #108, .T. ) ;
#275 = VECTOR ( 'NONE', #355, 1000.000000000000000 ) ;
#276 = ORIENTED_EDGE ( 'NONE', *, *, #167, .F. ) ;
#277 = EDGE_CURVE ( 'NONE', #267, #388, #454, .T. ) ;
#278 = ORIENTED_EDGE ( 'NONE', *, *, #210, .T. ) ;
#279 = MANIFOLD_SOLID_BREP ( 'Cut-Extrude3', #248 ) ;
#280 = ORIENTED_EDGE ( 'NONE', *, *, #338, .F. ) ;
#281 = DIRECTION ( 'NONE',  ( -1.000000000000000000, -0.000000000000000000, -0.000000000000000000 ) ) ;
#282 = PRODUCT_DEFINITION ( 'UNKNOWN', '', #318, #445 ) ;
#283 =( LENGTH_UNIT ( ) NAMED_UNIT ( * ) SI_UNIT ( .MILLI., .METRE. ) );
#284 = CARTESIAN_POINT ( 'NONE',  ( 22.50000000000000000, 22.50000000000000355, 320.0000000000001137 ) ) ;
#285 = DIRECTION ( 'NONE',  ( -1.000000000000000000, -0.000000000000000000, -0.000000000000000000 ) ) ;
#286 = PRODUCT ( 'Link3', 'Link3', '', ( #99 ) ) ;
#287 = ORIENTED_EDGE ( 'NONE', *, *, #242, .F. ) ;
#288 = CARTESIAN_POINT ( 'NONE',  ( 22.50000000000000000, 22.50000000000001421, 307.9289321881347519 ) ) ;
#289 = LINE ( 'NONE', #142, #134 ) ;
#290 = ORIENTED_EDGE ( 'NONE', *, *, #407, .F. ) ;
#291 = CARTESIAN_POINT ( 'NONE',  ( 0.000000000000000000, 0.000000000000000000, 320.0000000000001137 ) ) ;
#292 = EDGE_CURVE ( 'NONE', #306, #200, #186, .T. ) ;
#293 = LINE ( 'NONE', #320, #408 ) ;
#294 = ORIENTED_EDGE ( 'NONE', *, *, #121, .T. ) ;
#295 = PLANE ( 'NONE',  #202 ) ;
#296 = LINE ( 'NONE', #216, #359 ) ;
#297 = FACE_OUTER_BOUND ( 'NONE', #140, .T. ) ;
#298 = EDGE_CURVE ( 'NONE', #74, #31, #253, .T. ) ;
#299 = CARTESIAN_POINT ( 'NONE',  ( 0.000000000000000000, 2.499999999999791722, 320.0000000000001137 ) ) ;
#300 = ORIENTED_EDGE ( 'NONE', *, *, #396, .F. ) ;
#301 = VECTOR ( 'NONE', #264, 1000.000000000000000 ) ;
#302 = CARTESIAN_POINT ( 'NONE',  ( 22.50000000000000000, -17.49999999999999645, 290.0000000000001137 ) ) ;
#303 = ORIENTED_EDGE ( 'NONE', *, *, #418, .T. ) ;
#304 = SURFACE_STYLE_USAGE ( .BOTH. , #376 ) ;
#305 = CARTESIAN_POINT ( 'NONE',  ( -22.50000000000000000, -10.42893218813453338, 320.0000000000001137 ) ) ;
#306 = VERTEX_POINT ( 'NONE', #32 ) ;
#307 = EDGE_CURVE ( 'NONE', #306, #74, #175, .T. ) ;
#308 = CARTESIAN_POINT ( 'NONE',  ( -22.50000000000000000, 22.50000000000001421, 307.9289321881347519 ) ) ;
#309 = EDGE_CURVE ( 'NONE', #100, #425, #26, .T. ) ;
#310 = VECTOR ( 'NONE', #438, 1000.000000000000000 ) ;
#311 = FACE_OUTER_BOUND ( 'NONE', #66, .T. ) ;
#312 = VERTEX_POINT ( 'NONE', #308 ) ;
#313 = ORIENTED_EDGE ( 'NONE', *, *, #403, .T. ) ;
#314 = EDGE_LOOP ( 'NONE', ( #139, #385, #290, #268 ) ) ;
#315 = VECTOR ( 'NONE', #251, 1000.000000000000000 ) ;
#316 = VECTOR ( 'NONE', #334, 1000.000000000000000 ) ;
#317 = ORIENTED_EDGE ( 'NONE', *, *, #141, .T. ) ;
#318 = PRODUCT_DEFINITION_FORMATION_WITH_SPECIFIED_SOURCE ( 'ANY', '', #286, .NOT_KNOWN. ) ;
#319 = VECTOR ( 'NONE', #285, 1000.000000000000000 ) ;
#320 = CARTESIAN_POINT ( 'NONE',  ( 22.50000000000000000, -17.49999999999999645, 320.0000000000001137 ) ) ;
#321 = CARTESIAN_POINT ( 'NONE',  ( 22.50000000000000000, -17.49999999999999645, 305.0000000000001137 ) ) ;
#322 = CARTESIAN_POINT ( 'NONE',  ( -22.50000000000000000, 22.50000000000000355, 320.0000000000001137 ) ) ;
#323 = APPLICATION_PROTOCOL_DEFINITION ( 'draft international standard', 'automotive_design', 1998, #220 ) ;
#324 = ADVANCED_FACE ( 'NONE', ( #420 ), #461, .T. ) ;
#325 = ORIENTED_EDGE ( 'NONE', *, *, #76, .F. ) ;
#326 = CARTESIAN_POINT ( 'NONE',  ( -22.50000000000000000, 17.50000000000000000, 305.0000000000001137 ) ) ;
#327 = CARTESIAN_POINT ( 'NONE',  ( -22.50000000000000000, 17.49999999999993250, -4.047688110612531217E-15 ) ) ;
#328 = VECTOR ( 'NONE', #85, 1000.000000000000000 ) ;
#329 = LINE ( 'NONE', #222, #115 ) ;
#330 = CARTESIAN_POINT ( 'NONE',  ( -22.50000000000000000, 0.000000000000000000, 290.0000000000001137 ) ) ;
#331 = ADVANCED_FACE ( 'NONE', ( #311 ), #60, .F. ) ;
#332 = ADVANCED_FACE ( 'NONE', ( #162 ), #207, .F. ) ;
#333 = SURFACE_STYLE_FILL_AREA ( #231 ) ;
#334 = DIRECTION ( 'NONE',  ( 0.000000000000000000, -0.7071067811865429098, -0.7071067811865522357 ) ) ;
#335 = ORIENTED_EDGE ( 'NONE', *, *, #277, .T. ) ;
#336 = VERTEX_POINT ( 'NONE', #305 ) ;
#337 =( NAMED_UNIT ( * ) SI_UNIT ( $, .STERADIAN. ) SOLID_ANGLE_UNIT ( ) );
#338 = EDGE_CURVE ( 'NONE', #72, #171, #271, .T. ) ;
#339 = ORIENTED_EDGE ( 'NONE', *, *, #228, .T. ) ;
#340 = LINE ( 'NONE', #56, #174 ) ;
#341 = ORIENTED_EDGE ( 'NONE', *, *, #35, .T. ) ;
#342 =( GEOMETRIC_REPRESENTATION_CONTEXT ( 3 ) GLOBAL_UNCERTAINTY_ASSIGNED_CONTEXT ( ( #386 ) ) GLOBAL_UNIT_ASSIGNED_CONTEXT ( ( #370, #158, #337 ) ) REPRESENTATION_CONTEXT ( 'NONE', 'WORKASPACE' ) );
#343 = ORIENTED_EDGE ( 'NONE', *, *, #62, .F. ) ;
#344 = EDGE_CURVE ( 'NONE', #388, #230, #154, .T. ) ;
#345 = ORIENTED_EDGE ( 'NONE', *, *, #108, .F. ) ;
#346 = ORIENTED_EDGE ( 'NONE', *, *, #5, .T. ) ;
#347 = ORIENTED_EDGE ( 'NONE', *, *, #298, .F. ) ;
#348 = ADVANCED_FACE ( 'NONE', ( #389 ), #152, .F. ) ;
#349 = CARTESIAN_POINT ( 'NONE',  ( -22.50000000000000000, -22.49999999999999645, 0.000000000000000000 ) ) ;
#350 = ORIENTED_EDGE ( 'NONE', *, *, #62, .T. ) ;
#351 = FILL_AREA_STYLE_COLOUR ( '', #399 ) ;
#352 = LINE ( 'NONE', #40, #357 ) ;
#353 = DIRECTION ( 'NONE',  ( 0.000000000000000000, 0.7071067811865521247, -0.7071067811865430208 ) ) ;
#354 = LINE ( 'NONE', #124, #457 ) ;
#355 = DIRECTION ( 'NONE',  ( -0.000000000000000000, -1.000000000000000000, -0.000000000000000000 ) ) ;
#356 = DIRECTION ( 'NONE',  ( 0.000000000000000000, 2.312964634635740985E-16, 1.000000000000000000 ) ) ;
#357 = VECTOR ( 'NONE', #10, 1000.000000000000000 ) ;
#358 = DIRECTION ( 'NONE',  ( 1.000000000000000000, 0.000000000000000000, -0.000000000000000000 ) ) ;
#359 = VECTOR ( 'NONE', #409, 1000.000000000000114 ) ;
#360 = FACE_OUTER_BOUND ( 'NONE', #163, .T. ) ;
#361 = VECTOR ( 'NONE', #126, 1000.000000000000000 ) ;
#362 = CARTESIAN_POINT ( 'NONE',  ( 22.50000000000000000, -2.500000000000193623, 320.0000000000001705 ) ) ;
#363 = PLANE ( 'NONE',  #111 ) ;
#364 = DIRECTION ( 'NONE',  ( 0.000000000000000000, 0.7071067811865522357, -0.7071067811865427988 ) ) ;
#365 = CARTESIAN_POINT ( 'NONE',  ( 22.50000000000000000, 22.50000000000000355, 0.000000000000000000 ) ) ;
#366 = ADVANCED_FACE ( 'NONE', ( #360 ), #395, .F. ) ;
#367 = ORIENTED_EDGE ( 'NONE', *, *, #91, .F. ) ;
#368 = DIRECTION ( 'NONE',  ( 0.000000000000000000, 0.000000000000000000, -1.000000000000000000 ) ) ;
#369 = VECTOR ( 'NONE', #397, 1000.000000000000000 ) ;
#370 =( LENGTH_UNIT ( ) NAMED_UNIT ( * ) SI_UNIT ( .MILLI., .METRE. ) );
#371 = VECTOR ( 'NONE', #413, 1000.000000000000000 ) ;
#372 = DIRECTION ( 'NONE',  ( 0.000000000000000000, 0.7071067811865522357, -0.7071067811865429098 ) ) ;
#373 = ORIENTED_EDGE ( 'NONE', *, *, #407, .T. ) ;
#374 = EDGE_CURVE ( 'NONE', #388, #236, #430, .T. ) ;
#375 = LINE ( 'NONE', #25, #109 ) ;
#376 = SURFACE_SIDE_STYLE ('',( #333 ) ) ;
#377 = DIRECTION ( 'NONE',  ( 1.000000000000000000, 0.000000000000000000, 0.000000000000000000 ) ) ;
#378 = CARTESIAN_POINT ( 'NONE',  ( 27.50000000000000355, 17.49999999999999645, 290.0000000000001137 ) ) ;
#379 = EDGE_LOOP ( 'NONE', ( #431, #456, #367, #278 ) ) ;
#380 = EDGE_CURVE ( 'NONE', #266, #306, #149, .T. ) ;
#381 = APPLICATION_CONTEXT ( 'automotive_design' ) ;
#382 = VECTOR ( 'NONE', #29, 1000.000000000000000 ) ;
#383 = EDGE_LOOP ( 'NONE', ( #110, #65, #384, #313 ) ) ;
#384 = ORIENTED_EDGE ( 'NONE', *, *, #242, .T. ) ;
#385 = ORIENTED_EDGE ( 'NONE', *, *, #167, .T. ) ;
#386 = UNCERTAINTY_MEASURE_WITH_UNIT (LENGTH_MEASURE( 1.000000000000000082E-05 ), #370, 'distance_accuracy_value', 'NONE');
#387 = VECTOR ( 'NONE', #435, 1000.000000000000000 ) ;
#388 = VERTEX_POINT ( 'NONE', #118 ) ;
#389 = FACE_OUTER_BOUND ( 'NONE', #383, .T. ) ;
#390 = SURFACE_STYLE_USAGE ( .BOTH. , #179 ) ;
#391 = ORIENTED_EDGE ( 'NONE', *, *, #344, .T. ) ;
#392 = LINE ( 'NONE', #443, #424 ) ;
#393 = VERTEX_POINT ( 'NONE', #321 ) ;
#394 = CARTESIAN_POINT ( 'NONE',  ( -22.50000000000000000, -17.49999999999999645, 0.000000000000000000 ) ) ;
#395 = PLANE ( 'NONE',  #82 ) ;
#396 = EDGE_CURVE ( 'NONE', #230, #143, #221, .T. ) ;
#397 = DIRECTION ( 'NONE',  ( -0.000000000000000000, -0.000000000000000000, -1.000000000000000000 ) ) ;
#398 = CARTESIAN_POINT ( 'NONE',  ( 22.50000000000000000, -6.035533905932963350, 336.4644660940674044 ) ) ;
#399 = COLOUR_RGB ( '',0.7921568627450980005, 0.8196078431372548767, 0.9333333333333333481 ) ;
#400 = CARTESIAN_POINT ( 'NONE',  ( 27.50000000000000355, -22.49999999999999289, 307.9289321881345245 ) ) ;
#401 = CARTESIAN_POINT ( 'NONE',  ( 22.50000000000000000, 17.50000000000000355, 320.0000000000001137 ) ) ;
#402 = DIRECTION ( 'NONE',  ( 0.000000000000000000, -1.000000000000000000, 0.000000000000000000 ) ) ;
#403 = EDGE_CURVE ( 'NONE', #107, #143, #392, .T. ) ;
#404 = DIRECTION ( 'NONE',  ( 0.000000000000000000, -0.7071067811865522357, 0.7071067811865427988 ) ) ;
#405 = CARTESIAN_POINT ( 'NONE',  ( 22.50000000000000000, 2.499999999999713562, 320.0000000000001705 ) ) ;
#406 = DIRECTION ( 'NONE',  ( 0.000000000000000000, -1.000000000000000000, 2.312964634635740985E-16 ) ) ;
#407 = EDGE_CURVE ( 'NONE', #200, #463, #225, .T. ) ;
#408 = VECTOR ( 'NONE', #87, 1000.000000000000000 ) ;
#409 = DIRECTION ( 'NONE',  ( 0.000000000000000000, 0.7071067811865426878, 0.7071067811865522357 ) ) ;
#410 = EDGE_CURVE ( 'NONE', #336, #72, #257, .T. ) ;
#411 = ORIENTED_EDGE ( 'NONE', *, *, #76, .T. ) ;
#412 = CARTESIAN_POINT ( 'NONE',  ( 0.000000000000000000, 0.000000000000000000, 0.000000000000000000 ) ) ;
#413 = DIRECTION ( 'NONE',  ( -1.000000000000000000, -0.000000000000000000, -0.000000000000000000 ) ) ;
#414 = ORIENTED_EDGE ( 'NONE', *, *, #447, .F. ) ;
#415 = EDGE_LOOP ( 'NONE', ( #177, #274, #197, #343 ) ) ;
#416 = VECTOR ( 'NONE', #120, 1000.000000000000000 ) ;
#417 = EDGE_CURVE ( 'NONE', #160, #312, #289, .T. ) ;
#418 = EDGE_CURVE ( 'NONE', #236, #200, #145, .T. ) ;
#419 = CARTESIAN_POINT ( 'NONE',  ( -22.50000000000000000, -22.49999999999999645, 320.0000000000001137 ) ) ;
#420 = FACE_OUTER_BOUND ( 'NONE', #379, .T. ) ;
#421 = ORIENTED_EDGE ( 'NONE', *, *, #246, .T. ) ;
#422 = EDGE_LOOP ( 'NONE', ( #106, #166, #30, #68 ) ) ;
#423 = ORIENTED_EDGE ( 'NONE', *, *, #403, .F. ) ;
#424 = VECTOR ( 'NONE', #217, 1000.000000000000000 ) ;
#425 = VERTEX_POINT ( 'NONE', #349 ) ;
#426 = VERTEX_POINT ( 'NONE', #39 ) ;
#427 = EDGE_LOOP ( 'NONE', ( #247, #103, #458, #212 ) ) ;
#428 = PRESENTATION_STYLE_ASSIGNMENT (( #390 ) ) ;
#429 = PRESENTATION_LAYER_ASSIGNMENT (  '', '', ( #112 ) ) ;
#430 = LINE ( 'NONE', #330, #182 ) ;
#431 = ORIENTED_EDGE ( 'NONE', *, *, #240, .T. ) ;
#432 = FILL_AREA_STYLE ('',( #351 ) ) ;
#433 = EDGE_CURVE ( 'NONE', #238, #426, #12, .T. ) ;
#434 = PLANE ( 'NONE',  #90 ) ;
#435 = DIRECTION ( 'NONE',  ( -0.000000000000000000, -0.000000000000000000, -1.000000000000000000 ) ) ;
#436 = AXIS2_PLACEMENT_3D ( 'NONE', #254, #50, #358 ) ;
#437 =( NAMED_UNIT ( * ) SI_UNIT ( $, .STERADIAN. ) SOLID_ANGLE_UNIT ( ) );
#438 = DIRECTION ( 'NONE',  ( -0.000000000000000000, -1.000000000000000000, -0.000000000000000000 ) ) ;
#439 = DIRECTION ( 'NONE',  ( -1.000000000000000000, 0.000000000000000000, -0.000000000000000000 ) ) ;
#440 = DIRECTION ( 'NONE',  ( 0.000000000000000000, -0.7071067811865429098, -0.7071067811865522357 ) ) ;
#441 = CARTESIAN_POINT ( 'NONE',  ( -22.50000000000000000, 17.49999999999999645, 290.0000000000001137 ) ) ;
#442 = CARTESIAN_POINT ( 'NONE',  ( 27.50000000000000355, 161.2499999999999432, 161.2500000000020748 ) ) ;
#443 = CARTESIAN_POINT ( 'NONE',  ( 0.000000000000000000, -2.500000000000229150, 320.0000000000001137 ) ) ;
#444 = CARTESIAN_POINT ( 'NONE',  ( 22.50000000000000000, 10.42893218813455825, 320.0000000000001137 ) ) ;
#445 = PRODUCT_DEFINITION_CONTEXT ( 'detailed design', #381, 'design' ) ;
#446 = FACE_OUTER_BOUND ( 'NONE', #206, .T. ) ;
#447 = EDGE_CURVE ( 'NONE', #267, #393, #293, .T. ) ;
#448 = DIRECTION ( 'NONE',  ( 0.000000000000000000, 0.000000000000000000, 1.000000000000000000 ) ) ;
#449 = DIRECTION ( 'NONE',  ( -1.000000000000000000, 0.000000000000000000, 0.000000000000000000 ) ) ;
#450 = PLANE ( 'NONE',  #67 ) ;
#451 = MECHANICAL_DESIGN_GEOMETRIC_PRESENTATION_REPRESENTATION (  '', ( #112 ), #342 ) ;
#452 = CARTESIAN_POINT ( 'NONE',  ( 22.50000000000000000, -22.49999999999999289, 307.9289321881345245 ) ) ;
#453 = ORIENTED_EDGE ( 'NONE', *, *, #396, .T. ) ;
#454 = LINE ( 'NONE', #43, #105 ) ;
#455 = LINE ( 'NONE', #378, #371 ) ;
#456 = ORIENTED_EDGE ( 'NONE', *, *, #417, .T. ) ;
#457 = VECTOR ( 'NONE', #41, 1000.000000000000000 ) ;
#458 = ORIENTED_EDGE ( 'NONE', *, *, #309, .T. ) ;
#459 = PRESENTATION_STYLE_ASSIGNMENT (( #304 ) ) ;
#460 = COLOUR_RGB ( '',0.7921568627450980005, 0.8196078431372548767, 0.9333333333333333481 ) ;
#461 = PLANE ( 'NONE',  #205 ) ;
#462 = ADVANCED_FACE ( 'NONE', ( #260 ), #434, .F. ) ;
#463 = VERTEX_POINT ( 'NONE', #193 ) ;
#464 = CARTESIAN_POINT ( 'NONE',  ( 27.50000000000000355, -161.2500000000001990, 161.2499999999980105 ) ) ;
#465 = ORIENTED_EDGE ( 'NONE', *, *, #210, .F. ) ;
#466 = ORIENTED_EDGE ( 'NONE', *, *, #129, .F. ) ;
ENDSEC;
END-ISO-10303-21;
