ISO-10303-21;
HEADER;
FILE_DESCRIPTION (( 'STEP AP214' ),
    '1' );
FILE_NAME ('LINK1.STEP',
    '2023-11-01T15:38:41',
    ( '' ),
    ( '' ),
    'SwSTEP 2.0',
    'SolidWorks 2020',
    '' );
FILE_SCHEMA (( 'AUTOMOTIVE_DESIGN' ));
ENDSEC;

DATA;
#1 = EDGE_CURVE ( 'NONE', #164, #63, #42, .T. ) ;
#2 = VECTOR ( 'NONE', #51, 1000.000000000000000 ) ;
#3 = PLANE ( 'NONE',  #259 ) ;
#4 = DIRECTION ( 'NONE',  ( 0.000000000000000000, 0.000000000000000000, 1.000000000000000000 ) ) ;
#5 = EDGE_CURVE ( 'NONE', #281, #21, #18, .T. ) ;
#6 = ORIENTED_EDGE ( 'NONE', *, *, #1, .T. ) ;
#7 = DIRECTION ( 'NONE',  ( 0.000000000000000000, -0.000000000000000000, -1.000000000000000000 ) ) ;
#8 = LINE ( 'NONE', #97, #282 ) ;
#9 = DIRECTION ( 'NONE',  ( 1.000000000000000000, 0.000000000000000000, 0.000000000000000000 ) ) ;
#10 = DIRECTION ( 'NONE',  ( -0.000000000000000000, -0.000000000000000000, -1.000000000000000000 ) ) ;
#11 = PLANE ( 'NONE',  #143 ) ;
#12 = EDGE_LOOP ( 'NONE', ( #14, #172, #128, #89 ) ) ;
#13 = LINE ( 'NONE', #161, #40 ) ;
#14 = ORIENTED_EDGE ( 'NONE', *, *, #265, .F. ) ;
#15 = CIRCLE ( 'NONE', #174, 40.00000000000000000 ) ;
#16 = DIRECTION ( 'NONE',  ( -0.000000000000000000, -0.000000000000000000, -1.000000000000000000 ) ) ;
#17 = ORIENTED_EDGE ( 'NONE', *, *, #217, .T. ) ;
#18 = LINE ( 'NONE', #257, #203 ) ;
#19 = EDGE_CURVE ( 'NONE', #239, #281, #168, .T. ) ;
#20 = VECTOR ( 'NONE', #146, 1000.000000000000000 ) ;
#21 = VERTEX_POINT ( 'NONE', #23 ) ;
#22 = VERTEX_POINT ( 'NONE', #216 ) ;
#23 = CARTESIAN_POINT ( 'NONE',  ( -40.00000000000000000, 0.000000000000000000, 0.000000000000000000 ) ) ;
#24 = DIRECTION ( 'NONE',  ( 1.000000000000000000, 0.000000000000000000, -0.000000000000000000 ) ) ;
#25 = MECHANICAL_DESIGN_GEOMETRIC_PRESENTATION_REPRESENTATION (  '', ( #131 ), #244 ) ;
#26 = FACE_OUTER_BOUND ( 'NONE', #136, .T. ) ;
#27 = DIRECTION ( 'NONE',  ( 0.000000000000000000, 0.000000000000000000, 1.000000000000000000 ) ) ;
#28 = CARTESIAN_POINT ( 'NONE',  ( 9.999999999999996447, -10.00000000000000355, 370.0000000000001705 ) ) ;
#29 = PRODUCT ( 'LINK1', 'LINK1', '', ( #159 ) ) ;
#30 = COLOUR_RGB ( '',0.7921568627450980005, 0.8196078431372548767, 0.9333333333333333481 ) ;
#31 = SHAPE_DEFINITION_REPRESENTATION ( #204, #50 ) ;
#32 = FACE_OUTER_BOUND ( 'NONE', #149, .T. ) ;
#33 = PLANE ( 'NONE',  #78 ) ;
#34 = PRESENTATION_LAYER_ASSIGNMENT (  '', '', ( #48 ) ) ;
#35 = FILL_AREA_STYLE ('',( #162 ) ) ;
#36 = DIRECTION ( 'NONE',  ( -0.000000000000000000, -0.000000000000000000, -1.000000000000000000 ) ) ;
#37 = EDGE_LOOP ( 'NONE', ( #147, #124, #173, #129 ) ) ;
#38 = CARTESIAN_POINT ( 'NONE',  ( -40.00000000000000000, 0.000000000000000000, 19.99999999999999645 ) ) ;
#39 = ORIENTED_EDGE ( 'NONE', *, *, #188, .T. ) ;
#40 = VECTOR ( 'NONE', #278, 1000.000000000000000 ) ;
#41 = DIRECTION ( 'NONE',  ( -0.000000000000000000, -0.000000000000000000, -1.000000000000000000 ) ) ;
#42 = LINE ( 'NONE', #261, #65 ) ;
#43 = VERTEX_POINT ( 'NONE', #196 ) ;
#44 = DIRECTION ( 'NONE',  ( -0.000000000000000000, -1.000000000000000000, -0.000000000000000000 ) ) ;
#45 = CARTESIAN_POINT ( 'NONE',  ( -10.00000000000000355, -10.00000000000000355, 370.0000000000001705 ) ) ;
#46 =( NAMED_UNIT ( * ) PLANE_ANGLE_UNIT ( ) SI_UNIT ( $, .RADIAN. ) );
#47 = UNCERTAINTY_MEASURE_WITH_UNIT (LENGTH_MEASURE( 1.000000000000000082E-05 ), #81, 'distance_accuracy_value', 'NONE');
#48 = STYLED_ITEM ( 'NONE', ( #267 ), #91 ) ;
#49 = CARTESIAN_POINT ( 'NONE',  ( -10.00000000000000355, 9.999999999999996447, 370.0000000000001705 ) ) ;
#50 = ADVANCED_BREP_SHAPE_REPRESENTATION ( 'LINK1', ( #91, #198 ), #59 ) ;
#51 = DIRECTION ( 'NONE',  ( -1.000000000000000000, -0.000000000000000000, -0.000000000000000000 ) ) ;
#52 = EDGE_CURVE ( 'NONE', #193, #22, #62, .T. ) ;
#53 = VECTOR ( 'NONE', #209, 1000.000000000000000 ) ;
#54 = CARTESIAN_POINT ( 'NONE',  ( 0.000000000000000000, 0.000000000000000000, 19.99999999999999645 ) ) ;
#55 = APPLICATION_PROTOCOL_DEFINITION ( 'draft international standard', 'automotive_design', 1998, #80 ) ;
#56 = DIRECTION ( 'NONE',  ( 0.000000000000000000, 0.000000000000000000, -1.000000000000000000 ) ) ;
#57 = LINE ( 'NONE', #144, #53 ) ;
#58 = ORIENTED_EDGE ( 'NONE', *, *, #150, .F. ) ;
#59 =( GEOMETRIC_REPRESENTATION_CONTEXT ( 3 ) GLOBAL_UNCERTAINTY_ASSIGNED_CONTEXT ( ( #47 ) ) GLOBAL_UNIT_ASSIGNED_CONTEXT ( ( #81, #227, #186 ) ) REPRESENTATION_CONTEXT ( 'NONE', 'WORKASPACE' ) );
#60 = SURFACE_SIDE_STYLE ('',( #122 ) ) ;
#61 = CARTESIAN_POINT ( 'NONE',  ( 9.999999999999996447, -10.00000000000000355, 19.99999999999999645 ) ) ;
#62 = LINE ( 'NONE', #234, #249 ) ;
#63 = VERTEX_POINT ( 'NONE', #213 ) ;
#64 = FACE_OUTER_BOUND ( 'NONE', #37, .T. ) ;
#65 = VECTOR ( 'NONE', #44, 1000.000000000000000 ) ;
#66 = ORIENTED_EDGE ( 'NONE', *, *, #154, .F. ) ;
#67 = ORIENTED_EDGE ( 'NONE', *, *, #241, .F. ) ;
#68 = CIRCLE ( 'NONE', #105, 40.00000000000000000 ) ;
#69 = ORIENTED_EDGE ( 'NONE', *, *, #123, .T. ) ;
#70 = ADVANCED_FACE ( 'NONE', ( #108 ), #192, .F. ) ;
#71 = PLANE ( 'NONE',  #140 ) ;
#72 = DIRECTION ( 'NONE',  ( 0.000000000000000000, -1.000000000000000000, 0.000000000000000000 ) ) ;
#73 = APPLICATION_CONTEXT ( 'automotive_design' ) ;
#74 = VECTOR ( 'NONE', #185, 1000.000000000000000 ) ;
#75 = CARTESIAN_POINT ( 'NONE',  ( 40.00000000000000000, 4.898587196589413026E-15, 0.000000000000000000 ) ) ;
#76 = SURFACE_SIDE_STYLE ('',( #262 ) ) ;
#77 = CARTESIAN_POINT ( 'NONE',  ( -10.00000000000000355, 9.999999999999996447, 19.99999999999999645 ) ) ;
#78 = AXIS2_PLACEMENT_3D ( 'NONE', #141, #142, #85 ) ;
#79 = FACE_OUTER_BOUND ( 'NONE', #194, .T. ) ;
#80 = APPLICATION_CONTEXT ( 'automotive_design' ) ;
#81 =( LENGTH_UNIT ( ) NAMED_UNIT ( * ) SI_UNIT ( .MILLI., .METRE. ) );
#82 = ADVANCED_FACE ( 'NONE', ( #64 ), #148, .T. ) ;
#83 = EDGE_LOOP ( 'NONE', ( #69, #39, #170, #104 ) ) ;
#84 = AXIS2_PLACEMENT_3D ( 'NONE', #130, #258, #219 ) ;
#85 = DIRECTION ( 'NONE',  ( 0.000000000000000000, 0.000000000000000000, 1.000000000000000000 ) ) ;
#86 = ORIENTED_EDGE ( 'NONE', *, *, #210, .F. ) ;
#87 = VERTEX_POINT ( 'NONE', #268 ) ;
#88 = DIRECTION ( 'NONE',  ( 0.000000000000000000, 1.000000000000000000, 0.000000000000000000 ) ) ;
#89 = ORIENTED_EDGE ( 'NONE', *, *, #150, .T. ) ;
#90 = ORIENTED_EDGE ( 'NONE', *, *, #241, .T. ) ;
#91 = MANIFOLD_SOLID_BREP ( 'Boss-Extrude2', #152 ) ;
#92 = DIRECTION ( 'NONE',  ( 1.000000000000000000, 0.000000000000000000, 0.000000000000000000 ) ) ;
#93 = DIRECTION ( 'NONE',  ( 0.000000000000000000, 0.000000000000000000, -1.000000000000000000 ) ) ;
#94 = CARTESIAN_POINT ( 'NONE',  ( 0.000000000000000000, 0.000000000000000000, 19.99999999999999645 ) ) ;
#95 = PRODUCT_DEFINITION_CONTEXT ( 'detailed design', #73, 'design' ) ;
#96 =( NAMED_UNIT ( * ) SI_UNIT ( $, .STERADIAN. ) SOLID_ANGLE_UNIT ( ) );
#97 = CARTESIAN_POINT ( 'NONE',  ( 9.999999999999996447, -10.00000000000000355, 19.99999999999999645 ) ) ;
#98 = FACE_OUTER_BOUND ( 'NONE', #111, .T. ) ;
#99 = CARTESIAN_POINT ( 'NONE',  ( -10.00000000000000355, -10.00000000000000355, 370.0000000000001705 ) ) ;
#100 = EDGE_CURVE ( 'NONE', #145, #21, #206, .T. ) ;
#101 = DIRECTION ( 'NONE',  ( 1.000000000000000000, 0.000000000000000000, -0.000000000000000000 ) ) ;
#102 = ORIENTED_EDGE ( 'NONE', *, *, #19, .T. ) ;
#103 = DIRECTION ( 'NONE',  ( -1.000000000000000000, 0.000000000000000000, 0.000000000000000000 ) ) ;
#104 = ORIENTED_EDGE ( 'NONE', *, *, #154, .T. ) ;
#105 = AXIS2_PLACEMENT_3D ( 'NONE', #221, #113, #92 ) ;
#106 = DIRECTION ( 'NONE',  ( 0.000000000000000000, 0.000000000000000000, 1.000000000000000000 ) ) ;
#107 = ORIENTED_EDGE ( 'NONE', *, *, #217, .F. ) ;
#108 = FACE_OUTER_BOUND ( 'NONE', #218, .T. ) ;
#109 = EDGE_LOOP ( 'NONE', ( #86, #67, #189, #208 ) ) ;
#110 = AXIS2_PLACEMENT_3D ( 'NONE', #274, #276, #56 ) ;
#111 = EDGE_LOOP ( 'NONE', ( #214, #102 ) ) ;
#112 = ADVANCED_FACE ( 'NONE', ( #270, #98 ), #138, .T. ) ;
#113 = DIRECTION ( 'NONE',  ( 0.000000000000000000, 0.000000000000000000, 1.000000000000000000 ) ) ;
#114 =( GEOMETRIC_REPRESENTATION_CONTEXT ( 3 ) GLOBAL_UNCERTAINTY_ASSIGNED_CONTEXT ( ( #263 ) ) GLOBAL_UNIT_ASSIGNED_CONTEXT ( ( #134, #46, #115 ) ) REPRESENTATION_CONTEXT ( 'NONE', 'WORKASPACE' ) );
#115 =( NAMED_UNIT ( * ) SI_UNIT ( $, .STERADIAN. ) SOLID_ANGLE_UNIT ( ) );
#116 = LINE ( 'NONE', #245, #120 ) ;
#117 = MECHANICAL_DESIGN_GEOMETRIC_PRESENTATION_REPRESENTATION (  '', ( #48 ), #114 ) ;
#118 = CARTESIAN_POINT ( 'NONE',  ( 0.000000000000000000, 0.000000000000000000, 19.99999999999999645 ) ) ;
#119 = EDGE_CURVE ( 'NONE', #22, #164, #181, .T. ) ;
#120 = VECTOR ( 'NONE', #199, 1000.000000000000000 ) ;
#121 = PRODUCT_DEFINITION_FORMATION_WITH_SPECIFIED_SOURCE ( 'ANY', '', #29, .NOT_KNOWN. ) ;
#122 = SURFACE_STYLE_FILL_AREA ( #35 ) ;
#123 = EDGE_CURVE ( 'NONE', #43, #193, #200, .T. ) ;
#124 = ORIENTED_EDGE ( 'NONE', *, *, #265, .T. ) ;
#125 = VECTOR ( 'NONE', #135, 1000.000000000000000 ) ;
#126 = VERTEX_POINT ( 'NONE', #45 ) ;
#127 = ORIENTED_EDGE ( 'NONE', *, *, #52, .F. ) ;
#128 = ORIENTED_EDGE ( 'NONE', *, *, #5, .T. ) ;
#129 = ORIENTED_EDGE ( 'NONE', *, *, #5, .F. ) ;
#130 = CARTESIAN_POINT ( 'NONE',  ( 0.000000000000000000, 0.000000000000000000, 19.99999999999999645 ) ) ;
#131 = STYLED_ITEM ( 'NONE', ( #165 ), #50 ) ;
#132 = PRODUCT_RELATED_PRODUCT_CATEGORY ( 'part', '', ( #29 ) ) ;
#133 = DIRECTION ( 'NONE',  ( -0.000000000000000000, -0.000000000000000000, -1.000000000000000000 ) ) ;
#134 =( LENGTH_UNIT ( ) NAMED_UNIT ( * ) SI_UNIT ( .MILLI., .METRE. ) );
#135 = DIRECTION ( 'NONE',  ( 0.000000000000000000, 1.000000000000000000, 0.000000000000000000 ) ) ;
#136 = EDGE_LOOP ( 'NONE', ( #169, #166, #191, #215 ) ) ;
#137 = DIRECTION ( 'NONE',  ( -1.000000000000000000, 0.000000000000000000, -0.000000000000000000 ) ) ;
#138 = PLANE ( 'NONE',  #187 ) ;
#139 = APPLICATION_PROTOCOL_DEFINITION ( 'draft international standard', 'automotive_design', 1998, #73 ) ;
#140 = AXIS2_PLACEMENT_3D ( 'NONE', #49, #72, #7 ) ;
#141 = CARTESIAN_POINT ( 'NONE',  ( 9.999999999999996447, -10.00000000000000355, 370.0000000000001705 ) ) ;
#142 = DIRECTION ( 'NONE',  ( -1.000000000000000000, 0.000000000000000000, 0.000000000000000000 ) ) ;
#143 = AXIS2_PLACEMENT_3D ( 'NONE', #190, #106, #101 ) ;
#144 = CARTESIAN_POINT ( 'NONE',  ( -10.00000000000000355, -10.00000000000000355, 19.99999999999999645 ) ) ;
#145 = VERTEX_POINT ( 'NONE', #75 ) ;
#146 = DIRECTION ( 'NONE',  ( -0.000000000000000000, -0.000000000000000000, -1.000000000000000000 ) ) ;
#147 = ORIENTED_EDGE ( 'NONE', *, *, #19, .F. ) ;
#148 = CYLINDRICAL_SURFACE ( 'NONE', #226, 40.00000000000000000 ) ;
#149 = EDGE_LOOP ( 'NONE', ( #240, #127, #256, #17 ) ) ;
#150 = EDGE_CURVE ( 'NONE', #21, #145, #68, .T. ) ;
#151 = ORIENTED_EDGE ( 'NONE', *, *, #260, .T. ) ;
#152 = CLOSED_SHELL ( 'NONE', ( #82, #246, #112, #252, #271, #158, #224, #70, #176 ) ) ;
#153 = LINE ( 'NONE', #156, #2 ) ;
#154 = EDGE_CURVE ( 'NONE', #126, #43, #116, .T. ) ;
#155 = SURFACE_STYLE_USAGE ( .BOTH. , #76 ) ;
#156 = CARTESIAN_POINT ( 'NONE',  ( -10.00000000000000355, 9.999999999999996447, 370.0000000000001705 ) ) ;
#157 =( LENGTH_UNIT ( ) NAMED_UNIT ( * ) SI_UNIT ( .MILLI., .METRE. ) );
#158 = ADVANCED_FACE ( 'NONE', ( #26 ), #71, .F. ) ;
#159 = PRODUCT_CONTEXT ( 'NONE', #80, 'mechanical' ) ;
#160 = AXIS2_PLACEMENT_3D ( 'NONE', #280, #88, #167 ) ;
#161 = CARTESIAN_POINT ( 'NONE',  ( -10.00000000000000355, -10.00000000000000355, 370.0000000000001705 ) ) ;
#162 = FILL_AREA_STYLE_COLOUR ( '', #254 ) ;
#163 = LINE ( 'NONE', #99, #74 ) ;
#164 = VERTEX_POINT ( 'NONE', #223 ) ;
#165 = PRESENTATION_STYLE_ASSIGNMENT (( #230 ) ) ;
#166 = ORIENTED_EDGE ( 'NONE', *, *, #237, .F. ) ;
#167 = DIRECTION ( 'NONE',  ( 0.000000000000000000, -0.000000000000000000, 1.000000000000000000 ) ) ;
#168 = CIRCLE ( 'NONE', #84, 40.00000000000000000 ) ;
#169 = ORIENTED_EDGE ( 'NONE', *, *, #119, .T. ) ;
#170 = ORIENTED_EDGE ( 'NONE', *, *, #220, .T. ) ;
#171 = EDGE_CURVE ( 'NONE', #281, #239, #15, .T. ) ;
#172 = ORIENTED_EDGE ( 'NONE', *, *, #171, .F. ) ;
#173 = ORIENTED_EDGE ( 'NONE', *, *, #100, .T. ) ;
#174 = AXIS2_PLACEMENT_3D ( 'NONE', #94, #4, #264 ) ;
#175 = DIRECTION ( 'NONE',  ( -1.000000000000000000, 0.000000000000000000, 0.000000000000000000 ) ) ;
#176 = ADVANCED_FACE ( 'NONE', ( #225 ), #3, .F. ) ;
#177 = CARTESIAN_POINT ( 'NONE',  ( 0.000000000000000000, 0.000000000000000000, 0.000000000000000000 ) ) ;
#178 = CARTESIAN_POINT ( 'NONE',  ( 0.000000000000000000, 0.000000000000000000, 370.0000000000001705 ) ) ;
#179 = PRODUCT_DEFINITION ( 'UNKNOWN', '', #121, #95 ) ;
#180 = DIRECTION ( 'NONE',  ( 0.000000000000000000, 1.000000000000000000, 0.000000000000000000 ) ) ;
#181 = LINE ( 'NONE', #77, #243 ) ;
#182 = PLANE ( 'NONE',  #110 ) ;
#183 = LINE ( 'NONE', #253, #20 ) ;
#184 =( NAMED_UNIT ( * ) PLANE_ANGLE_UNIT ( ) SI_UNIT ( $, .RADIAN. ) );
#185 = DIRECTION ( 'NONE',  ( -0.000000000000000000, -1.000000000000000000, -0.000000000000000000 ) ) ;
#186 =( NAMED_UNIT ( * ) SI_UNIT ( $, .STERADIAN. ) SOLID_ANGLE_UNIT ( ) );
#187 = AXIS2_PLACEMENT_3D ( 'NONE', #118, #27, #24 ) ;
#188 = EDGE_CURVE ( 'NONE', #193, #87, #153, .T. ) ;
#189 = ORIENTED_EDGE ( 'NONE', *, *, #1, .F. ) ;
#190 = CARTESIAN_POINT ( 'NONE',  ( 0.000000000000000000, 0.000000000000000000, 0.000000000000000000 ) ) ;
#191 = ORIENTED_EDGE ( 'NONE', *, *, #188, .F. ) ;
#192 = PLANE ( 'NONE',  #160 ) ;
#193 = VERTEX_POINT ( 'NONE', #202 ) ;
#194 = EDGE_LOOP ( 'NONE', ( #58, #211 ) ) ;
#195 = PRESENTATION_LAYER_ASSIGNMENT (  '', '', ( #131 ) ) ;
#196 = CARTESIAN_POINT ( 'NONE',  ( 9.999999999999996447, -10.00000000000000355, 370.0000000000001705 ) ) ;
#197 = AXIS2_PLACEMENT_3D ( 'NONE', #54, #36, #103 ) ;
#198 = AXIS2_PLACEMENT_3D ( 'NONE', #269, #228, #272 ) ;
#199 = DIRECTION ( 'NONE',  ( 1.000000000000000000, 0.000000000000000000, 0.000000000000000000 ) ) ;
#200 = LINE ( 'NONE', #28, #125 ) ;
#201 = UNCERTAINTY_MEASURE_WITH_UNIT (LENGTH_MEASURE( 1.000000000000000082E-05 ), #157, 'distance_accuracy_value', 'NONE');
#202 = CARTESIAN_POINT ( 'NONE',  ( 9.999999999999996447, 9.999999999999996447, 370.0000000000001705 ) ) ;
#203 = VECTOR ( 'NONE', #133, 1000.000000000000000 ) ;
#204 = PRODUCT_DEFINITION_SHAPE ( 'NONE', 'NONE',  #179 ) ;
#205 = CARTESIAN_POINT ( 'NONE',  ( -10.00000000000000355, 9.999999999999996447, 370.0000000000001705 ) ) ;
#206 = CIRCLE ( 'NONE', #277, 40.00000000000000000 ) ;
#207 = CARTESIAN_POINT ( 'NONE',  ( 40.00000000000000000, 4.898587196589413026E-15, 19.99999999999999645 ) ) ;
#208 = ORIENTED_EDGE ( 'NONE', *, *, #119, .F. ) ;
#209 = DIRECTION ( 'NONE',  ( 1.000000000000000000, 0.000000000000000000, 0.000000000000000000 ) ) ;
#210 = EDGE_CURVE ( 'NONE', #233, #22, #8, .T. ) ;
#211 = ORIENTED_EDGE ( 'NONE', *, *, #100, .F. ) ;
#212 = DIRECTION ( 'NONE',  ( -0.000000000000000000, -0.000000000000000000, -1.000000000000000000 ) ) ;
#213 = CARTESIAN_POINT ( 'NONE',  ( -10.00000000000000355, -10.00000000000000355, 19.99999999999999645 ) ) ;
#214 = ORIENTED_EDGE ( 'NONE', *, *, #171, .T. ) ;
#215 = ORIENTED_EDGE ( 'NONE', *, *, #52, .T. ) ;
#216 = CARTESIAN_POINT ( 'NONE',  ( 9.999999999999996447, 9.999999999999996447, 19.99999999999999645 ) ) ;
#217 = EDGE_CURVE ( 'NONE', #43, #233, #232, .T. ) ;
#218 = EDGE_LOOP ( 'NONE', ( #90, #107, #66, #151 ) ) ;
#219 = DIRECTION ( 'NONE',  ( 1.000000000000000000, 0.000000000000000000, 0.000000000000000000 ) ) ;
#220 = EDGE_CURVE ( 'NONE', #87, #126, #163, .T. ) ;
#221 = CARTESIAN_POINT ( 'NONE',  ( 0.000000000000000000, 0.000000000000000000, 0.000000000000000000 ) ) ;
#222 = DIRECTION ( 'NONE',  ( 0.000000000000000000, 0.000000000000000000, 1.000000000000000000 ) ) ;
#223 = CARTESIAN_POINT ( 'NONE',  ( -10.00000000000000355, 9.999999999999996447, 19.99999999999999645 ) ) ;
#224 = ADVANCED_FACE ( 'NONE', ( #255 ), #182, .F. ) ;
#225 = FACE_OUTER_BOUND ( 'NONE', #83, .T. ) ;
#226 = AXIS2_PLACEMENT_3D ( 'NONE', #236, #41, #175 ) ;
#227 =( NAMED_UNIT ( * ) PLANE_ANGLE_UNIT ( ) SI_UNIT ( $, .RADIAN. ) );
#228 = DIRECTION ( 'NONE',  ( 0.000000000000000000, 0.000000000000000000, 1.000000000000000000 ) ) ;
#229 = VECTOR ( 'NONE', #10, 1000.000000000000000 ) ;
#230 = SURFACE_STYLE_USAGE ( .BOTH. , #60 ) ;
#231 = EDGE_LOOP ( 'NONE', ( #6, #235, #238, #279 ) ) ;
#232 = LINE ( 'NONE', #250, #229 ) ;
#233 = VERTEX_POINT ( 'NONE', #61 ) ;
#234 = CARTESIAN_POINT ( 'NONE',  ( 9.999999999999996447, 9.999999999999996447, 370.0000000000001705 ) ) ;
#235 = ORIENTED_EDGE ( 'NONE', *, *, #260, .F. ) ;
#236 = CARTESIAN_POINT ( 'NONE',  ( 0.000000000000000000, 0.000000000000000000, 19.99999999999999645 ) ) ;
#237 = EDGE_CURVE ( 'NONE', #87, #164, #251, .T. ) ;
#238 = ORIENTED_EDGE ( 'NONE', *, *, #220, .F. ) ;
#239 = VERTEX_POINT ( 'NONE', #207 ) ;
#240 = ORIENTED_EDGE ( 'NONE', *, *, #210, .T. ) ;
#241 = EDGE_CURVE ( 'NONE', #63, #233, #57, .T. ) ;
#242 = DIRECTION ( 'NONE',  ( -1.000000000000000000, -0.000000000000000000, -0.000000000000000000 ) ) ;
#243 = VECTOR ( 'NONE', #242, 1000.000000000000000 ) ;
#244 =( GEOMETRIC_REPRESENTATION_CONTEXT ( 3 ) GLOBAL_UNCERTAINTY_ASSIGNED_CONTEXT ( ( #201 ) ) GLOBAL_UNIT_ASSIGNED_CONTEXT ( ( #157, #184, #96 ) ) REPRESENTATION_CONTEXT ( 'NONE', 'WORKASPACE' ) );
#245 = CARTESIAN_POINT ( 'NONE',  ( -10.00000000000000355, -10.00000000000000355, 370.0000000000001705 ) ) ;
#246 = ADVANCED_FACE ( 'NONE', ( #273 ), #275, .T. ) ;
#247 = FILL_AREA_STYLE ('',( #248 ) ) ;
#248 = FILL_AREA_STYLE_COLOUR ( '', #30 ) ;
#249 = VECTOR ( 'NONE', #16, 1000.000000000000000 ) ;
#250 = CARTESIAN_POINT ( 'NONE',  ( 9.999999999999996447, -10.00000000000000355, 370.0000000000001705 ) ) ;
#251 = LINE ( 'NONE', #205, #266 ) ;
#252 = ADVANCED_FACE ( 'NONE', ( #79 ), #11, .F. ) ;
#253 = CARTESIAN_POINT ( 'NONE',  ( 40.00000000000000000, 4.898587196589413026E-15, 19.99999999999999645 ) ) ;
#254 = COLOUR_RGB ( '',0.7921568627450980005, 0.8196078431372548767, 0.9333333333333333481 ) ;
#255 = FACE_OUTER_BOUND ( 'NONE', #231, .T. ) ;
#256 = ORIENTED_EDGE ( 'NONE', *, *, #123, .F. ) ;
#257 = CARTESIAN_POINT ( 'NONE',  ( -40.00000000000000000, 0.000000000000000000, 19.99999999999999645 ) ) ;
#258 = DIRECTION ( 'NONE',  ( 0.000000000000000000, 0.000000000000000000, 1.000000000000000000 ) ) ;
#259 = AXIS2_PLACEMENT_3D ( 'NONE', #178, #93, #137 ) ;
#260 = EDGE_CURVE ( 'NONE', #126, #63, #13, .T. ) ;
#261 = CARTESIAN_POINT ( 'NONE',  ( -10.00000000000000355, -10.00000000000000355, 19.99999999999999645 ) ) ;
#262 = SURFACE_STYLE_FILL_AREA ( #247 ) ;
#263 = UNCERTAINTY_MEASURE_WITH_UNIT (LENGTH_MEASURE( 1.000000000000000082E-05 ), #134, 'distance_accuracy_value', 'NONE');
#264 = DIRECTION ( 'NONE',  ( 1.000000000000000000, 0.000000000000000000, 0.000000000000000000 ) ) ;
#265 = EDGE_CURVE ( 'NONE', #239, #145, #183, .T. ) ;
#266 = VECTOR ( 'NONE', #212, 1000.000000000000000 ) ;
#267 = PRESENTATION_STYLE_ASSIGNMENT (( #155 ) ) ;
#268 = CARTESIAN_POINT ( 'NONE',  ( -10.00000000000000355, 9.999999999999996447, 370.0000000000001705 ) ) ;
#269 = CARTESIAN_POINT ( 'NONE',  ( 0.000000000000000000, 0.000000000000000000, 0.000000000000000000 ) ) ;
#270 = FACE_BOUND ( 'NONE', #109, .T. ) ;
#271 = ADVANCED_FACE ( 'NONE', ( #32 ), #33, .F. ) ;
#272 = DIRECTION ( 'NONE',  ( 1.000000000000000000, 0.000000000000000000, 0.000000000000000000 ) ) ;
#273 = FACE_OUTER_BOUND ( 'NONE', #12, .T. ) ;
#274 = CARTESIAN_POINT ( 'NONE',  ( -10.00000000000000355, -10.00000000000000355, 370.0000000000001705 ) ) ;
#275 = CYLINDRICAL_SURFACE ( 'NONE', #197, 40.00000000000000000 ) ;
#276 = DIRECTION ( 'NONE',  ( 1.000000000000000000, 0.000000000000000000, 0.000000000000000000 ) ) ;
#277 = AXIS2_PLACEMENT_3D ( 'NONE', #177, #222, #9 ) ;
#278 = DIRECTION ( 'NONE',  ( -0.000000000000000000, -0.000000000000000000, -1.000000000000000000 ) ) ;
#279 = ORIENTED_EDGE ( 'NONE', *, *, #237, .T. ) ;
#280 = CARTESIAN_POINT ( 'NONE',  ( -10.00000000000000355, -10.00000000000000355, 370.0000000000001705 ) ) ;
#281 = VERTEX_POINT ( 'NONE', #38 ) ;
#282 = VECTOR ( 'NONE', #180, 1000.000000000000000 ) ;
ENDSEC;
END-ISO-10303-21;
