ISO-10303-21;
HEADER;
FILE_DESCRIPTION (( 'STEP AP214' ),
    '1' );
FILE_NAME ('LINK3.STEP',
    '2023-11-01T15:34:18',
    ( '' ),
    ( '' ),
    'SwSTEP 2.0',
    'SolidWorks 2020',
    '' );
FILE_SCHEMA (( 'AUTOMOTIVE_DESIGN' ));
ENDSEC;

DATA;
#1 = PRODUCT_DEFINITION_CONTEXT ( 'detailed design', #155, 'design' ) ;
#2 = ORIENTED_EDGE ( 'NONE', *, *, #275, .T. ) ;
#3 = CARTESIAN_POINT ( 'NONE',  ( 10.00000000000000533, -14.99999999999999645, 200.0000000000000000 ) ) ;
#4 = CARTESIAN_POINT ( 'NONE',  ( 10.00000000000000533, -14.99999999999999645, 200.0000000000000000 ) ) ;
#5 = VECTOR ( 'NONE', #319, 1000.000000000000000 ) ;
#6 = SURFACE_STYLE_USAGE ( .BOTH. , #256 ) ;
#7 = CARTESIAN_POINT ( 'NONE',  ( -9.999999999999998224, -7.500000000000000000, 210.0000000000000284 ) ) ;
#8 = ADVANCED_FACE ( 'NONE', ( #261 ), #229, .T. ) ;
#9 = ORIENTED_EDGE ( 'NONE', *, *, #305, .F. ) ;
#10 = LINE ( 'NONE', #410, #116 ) ;
#11 = ORIENTED_EDGE ( 'NONE', *, *, #156, .F. ) ;
#12 = DIRECTION ( 'NONE',  ( -0.000000000000000000, 0.7071067811865514585, 0.7071067811865435759 ) ) ;
#13 = ADVANCED_FACE ( 'NONE', ( #334 ), #160, .F. ) ;
#14 = DIRECTION ( 'NONE',  ( -1.000000000000000000, 0.000000000000000000, -0.000000000000000000 ) ) ;
#15 = CARTESIAN_POINT ( 'NONE',  ( 0.000000000000000000, 0.000000000000000000, 200.0000000000000000 ) ) ;
#16 = VERTEX_POINT ( 'NONE', #78 ) ;
#17 = PLANE ( 'NONE',  #269 ) ;
#18 = PRESENTATION_LAYER_ASSIGNMENT (  '', '', ( #27 ) ) ;
#19 = EDGE_CURVE ( 'NONE', #396, #465, #463, .T. ) ;
#20 = CARTESIAN_POINT ( 'NONE',  ( 10.00000000000000000, 10.00000000000000178, 200.0000000000000000 ) ) ;
#21 = COLOUR_RGB ( '',0.7921568627450980005, 0.8196078431372548767, 0.9333333333333333481 ) ;
#22 = EDGE_CURVE ( 'NONE', #179, #16, #394, .T. ) ;
#23 = CARTESIAN_POINT ( 'NONE',  ( -10.00000000000000000, -9.999999999999998224, 0.000000000000000000 ) ) ;
#24 = DIRECTION ( 'NONE',  ( -0.000000000000000000, -0.000000000000000000, -1.000000000000000000 ) ) ;
#25 = DIRECTION ( 'NONE',  ( -0.000000000000000000, -0.000000000000000000, -1.000000000000000000 ) ) ;
#26 = LINE ( 'NONE', #242, #157 ) ;
#27 = STYLED_ITEM ( 'NONE', ( #50 ), #207 ) ;
#28 = VECTOR ( 'NONE', #301, 1000.000000000000000 ) ;
#29 = PLANE ( 'NONE',  #262 ) ;
#30 = EDGE_CURVE ( 'NONE', #369, #429, #118, .T. ) ;
#31 = VERTEX_POINT ( 'NONE', #41 ) ;
#32 = LINE ( 'NONE', #99, #392 ) ;
#33 =( LENGTH_UNIT ( ) NAMED_UNIT ( * ) SI_UNIT ( .MILLI., .METRE. ) );
#34 = ORIENTED_EDGE ( 'NONE', *, *, #156, .T. ) ;
#35 = PRODUCT_DEFINITION_SHAPE ( 'NONE', 'NONE',  #254 ) ;
#36 = DIRECTION ( 'NONE',  ( -0.000000000000000000, -0.000000000000000000, -1.000000000000000000 ) ) ;
#37 = ORIENTED_EDGE ( 'NONE', *, *, #30, .T. ) ;
#38 = EDGE_CURVE ( 'NONE', #396, #249, #224, .T. ) ;
#39 = DIRECTION ( 'NONE',  ( -1.000000000000000000, 0.000000000000000000, -0.000000000000000000 ) ) ;
#40 = ORIENTED_EDGE ( 'NONE', *, *, #42, .T. ) ;
#41 = CARTESIAN_POINT ( 'NONE',  ( -9.999999999999998224, 7.500000000000000000, 210.0000000000000284 ) ) ;
#42 = EDGE_CURVE ( 'NONE', #266, #393, #149, .T. ) ;
#43 = VERTEX_POINT ( 'NONE', #220 ) ;
#44 = DIRECTION ( 'NONE',  ( 1.000000000000000000, 0.000000000000000000, 0.000000000000000000 ) ) ;
#45 = STYLED_ITEM ( 'NONE', ( #136 ), #307 ) ;
#46 = DIRECTION ( 'NONE',  ( -1.000000000000000000, 0.000000000000000000, 0.000000000000000000 ) ) ;
#47 =( LENGTH_UNIT ( ) NAMED_UNIT ( * ) SI_UNIT ( .MILLI., .METRE. ) );
#48 = CARTESIAN_POINT ( 'NONE',  ( -9.999999999999998224, -7.500000000000000000, 210.0000000000000284 ) ) ;
#49 = ADVANCED_FACE ( 'NONE', ( #227 ), #368, .F. ) ;
#50 = PRESENTATION_STYLE_ASSIGNMENT (( #6 ) ) ;
#51 = ORIENTED_EDGE ( 'NONE', *, *, #297, .T. ) ;
#52 = LINE ( 'NONE', #373, #98 ) ;
#53 = DIRECTION ( 'NONE',  ( 0.000000000000000000, 0.000000000000000000, -1.000000000000000000 ) ) ;
#54 = ADVANCED_FACE ( 'NONE', ( #257 ), #434, .F. ) ;
#55 = LINE ( 'NONE', #132, #321 ) ;
#56 = ORIENTED_EDGE ( 'NONE', *, *, #95, .F. ) ;
#57 = AXIS2_PLACEMENT_3D ( 'NONE', #154, #147, #287 ) ;
#58 = CARTESIAN_POINT ( 'NONE',  ( 10.00000000000000533, 15.00000000000000355, 214.9999999999999432 ) ) ;
#59 = ORIENTED_EDGE ( 'NONE', *, *, #353, .T. ) ;
#60 = CARTESIAN_POINT ( 'NONE',  ( 10.00000000000000533, -14.99999999999999645, 200.0000000000000000 ) ) ;
#61 = ADVANCED_FACE ( 'NONE', ( #110 ), #250, .F. ) ;
#62 = AXIS2_PLACEMENT_3D ( 'NONE', #282, #354, #348 ) ;
#63 = CARTESIAN_POINT ( 'NONE',  ( 10.00000000000000533, -14.99999999999999645, 225.0000000000000000 ) ) ;
#64 = SURFACE_SIDE_STYLE ('',( #102 ) ) ;
#65 = VECTOR ( 'NONE', #412, 1000.000000000000000 ) ;
#66 = DIRECTION ( 'NONE',  ( -1.000000000000000000, -0.000000000000000000, -0.000000000000000000 ) ) ;
#67 = MECHANICAL_DESIGN_GEOMETRIC_PRESENTATION_REPRESENTATION (  '', ( #45 ), #280 ) ;
#68 = CARTESIAN_POINT ( 'NONE',  ( -9.999999999999994671, -14.99999999999999645, 214.9999999999999432 ) ) ;
#69 = CARTESIAN_POINT ( 'NONE',  ( 10.00000000000000178, -7.500000000000000000, 210.0000000000000284 ) ) ;
#70 = FILL_AREA_STYLE ('',( #241 ) ) ;
#71 =( NAMED_UNIT ( * ) SI_UNIT ( $, .STERADIAN. ) SOLID_ANGLE_UNIT ( ) );
#72 = ORIENTED_EDGE ( 'NONE', *, *, #317, .T. ) ;
#73 = DIRECTION ( 'NONE',  ( 0.000000000000000000, -1.000000000000000000, 0.000000000000000000 ) ) ;
#74 = ORIENTED_EDGE ( 'NONE', *, *, #244, .F. ) ;
#75 = EDGE_CURVE ( 'NONE', #338, #274, #360, .T. ) ;
#76 = CARTESIAN_POINT ( 'NONE',  ( -10.00000000000000000, 4.999999999999827693, 225.0000000000000000 ) ) ;
#77 = ORIENTED_EDGE ( 'NONE', *, *, #130, .F. ) ;
#78 = CARTESIAN_POINT ( 'NONE',  ( 10.00000000000000178, 7.500000000000000000, 222.4999999999998579 ) ) ;
#79 = EDGE_CURVE ( 'NONE', #165, #266, #113, .T. ) ;
#80 = VERTEX_POINT ( 'NONE', #4 ) ;
#81 = DIRECTION ( 'NONE',  ( 1.000000000000000000, 0.000000000000000000, 0.000000000000000000 ) ) ;
#82 = APPLICATION_PROTOCOL_DEFINITION ( 'draft international standard', 'automotive_design', 1998, #155 ) ;
#83 = CARTESIAN_POINT ( 'NONE',  ( -9.999999999999994671, -14.99999999999999645, 225.0000000000000000 ) ) ;
#84 = CARTESIAN_POINT ( 'NONE',  ( -10.00000000000000000, 10.00000000000000178, 0.000000000000000000 ) ) ;
#85 = CARTESIAN_POINT ( 'NONE',  ( 0.000000000000000000, 0.000000000000000000, 0.000000000000000000 ) ) ;
#86 = ORIENTED_EDGE ( 'NONE', *, *, #342, .T. ) ;
#87 = ORIENTED_EDGE ( 'NONE', *, *, #322, .F. ) ;
#88 = FACE_OUTER_BOUND ( 'NONE', #303, .T. ) ;
#89 = ORIENTED_EDGE ( 'NONE', *, *, #19, .F. ) ;
#90 = DIRECTION ( 'NONE',  ( 0.000000000000000000, 1.000000000000000000, 0.000000000000000000 ) ) ;
#91 = ORIENTED_EDGE ( 'NONE', *, *, #297, .F. ) ;
#92 = VECTOR ( 'NONE', #447, 1000.000000000000000 ) ;
#93 = CARTESIAN_POINT ( 'NONE',  ( -9.999999999999994671, 15.00000000000000355, 225.0000000000000000 ) ) ;
#94 = FACE_OUTER_BOUND ( 'NONE', #449, .T. ) ;
#95 = EDGE_CURVE ( 'NONE', #274, #80, #397, .T. ) ;
#96 = DIRECTION ( 'NONE',  ( -0.000000000000000000, -0.000000000000000000, -1.000000000000000000 ) ) ;
#97 = DIRECTION ( 'NONE',  ( 0.000000000000000000, -0.000000000000000000, -1.000000000000000000 ) ) ;
#98 = VECTOR ( 'NONE', #96, 1000.000000000000000 ) ;
#99 = CARTESIAN_POINT ( 'NONE',  ( -9.999999999999998224, 7.500000000000000000, 210.0000000000000284 ) ) ;
#100 = CARTESIAN_POINT ( 'NONE',  ( 10.00000000000000533, 15.00000000000000355, 225.0000000000000000 ) ) ;
#101 = VECTOR ( 'NONE', #279, 1000.000000000000000 ) ;
#102 = SURFACE_STYLE_FILL_AREA ( #70 ) ;
#103 = ORIENTED_EDGE ( 'NONE', *, *, #336, .F. ) ;
#104 = EDGE_CURVE ( 'NONE', #369, #359, #363, .T. ) ;
#105 = LINE ( 'NONE', #175, #364 ) ;
#106 = ORIENTED_EDGE ( 'NONE', *, *, #30, .F. ) ;
#107 = CARTESIAN_POINT ( 'NONE',  ( -9.999999999999998224, -7.500000000000000000, 210.0000000000000284 ) ) ;
#108 = ADVANCED_FACE ( 'NONE', ( #190 ), #402, .F. ) ;
#109 = ORIENTED_EDGE ( 'NONE', *, *, #22, .T. ) ;
#110 = FACE_OUTER_BOUND ( 'NONE', #340, .T. ) ;
#111 = DIRECTION ( 'NONE',  ( 0.000000000000000000, 0.7071067811865435759, -0.7071067811865514585 ) ) ;
#112 = ORIENTED_EDGE ( 'NONE', *, *, #285, .F. ) ;
#113 = LINE ( 'NONE', #331, #452 ) ;
#114 =( NAMED_UNIT ( * ) PLANE_ANGLE_UNIT ( ) SI_UNIT ( $, .RADIAN. ) );
#115 = UNCERTAINTY_MEASURE_WITH_UNIT (LENGTH_MEASURE( 1.000000000000000082E-05 ), #47, 'distance_accuracy_value', 'NONE');
#116 = VECTOR ( 'NONE', #414, 1000.000000000000000 ) ;
#117 = CARTESIAN_POINT ( 'NONE',  ( -10.00000000000000000, 10.00000000000000178, 200.0000000000000000 ) ) ;
#118 = LINE ( 'NONE', #48, #222 ) ;
#119 = ORIENTED_EDGE ( 'NONE', *, *, #104, .F. ) ;
#120 = ORIENTED_EDGE ( 'NONE', *, *, #124, .F. ) ;
#121 = AXIS2_PLACEMENT_3D ( 'NONE', #339, #341, #168 ) ;
#122 = CARTESIAN_POINT ( 'NONE',  ( -9.999999999999994671, 15.00000000000000355, 214.9999999999999432 ) ) ;
#123 = ORIENTED_EDGE ( 'NONE', *, *, #180, .F. ) ;
#124 = EDGE_CURVE ( 'NONE', #429, #337, #428, .T. ) ;
#125 = LINE ( 'NONE', #273, #381 ) ;
#126 = ORIENTED_EDGE ( 'NONE', *, *, #194, .F. ) ;
#127 = AXIS2_PLACEMENT_3D ( 'NONE', #346, #417, #97 ) ;
#128 = LINE ( 'NONE', #378, #292 ) ;
#129 = VERTEX_POINT ( 'NONE', #131 ) ;
#130 = EDGE_CURVE ( 'NONE', #129, #286, #164, .T. ) ;
#131 = CARTESIAN_POINT ( 'NONE',  ( -9.999999999999994671, 15.00000000000000355, 214.9999999999999432 ) ) ;
#132 = CARTESIAN_POINT ( 'NONE',  ( -9.999999999999994671, -14.99999999999999645, 200.0000000000000000 ) ) ;
#133 = ORIENTED_EDGE ( 'NONE', *, *, #305, .T. ) ;
#134 = FACE_OUTER_BOUND ( 'NONE', #377, .T. ) ;
#135 = EDGE_CURVE ( 'NONE', #396, #266, #371, .T. ) ;
#136 = PRESENTATION_STYLE_ASSIGNMENT (( #312 ) ) ;
#137 = VECTOR ( 'NONE', #36, 1000.000000000000000 ) ;
#138 = SURFACE_STYLE_FILL_AREA ( #218 ) ;
#139 =( NAMED_UNIT ( * ) PLANE_ANGLE_UNIT ( ) SI_UNIT ( $, .RADIAN. ) );
#140 = FACE_OUTER_BOUND ( 'NONE', #314, .T. ) ;
#141 = ORIENTED_EDGE ( 'NONE', *, *, #336, .T. ) ;
#142 = DIRECTION ( 'NONE',  ( -1.000000000000000000, -0.000000000000000000, -0.000000000000000000 ) ) ;
#143 = LINE ( 'NONE', #278, #101 ) ;
#144 = ORIENTED_EDGE ( 'NONE', *, *, #451, .F. ) ;
#145 = AXIS2_PLACEMENT_3D ( 'NONE', #150, #289, #466 ) ;
#146 = ORIENTED_EDGE ( 'NONE', *, *, #38, .F. ) ;
#147 = DIRECTION ( 'NONE',  ( 1.000000000000000000, 0.000000000000000000, 0.000000000000000000 ) ) ;
#148 = ORIENTED_EDGE ( 'NONE', *, *, #275, .F. ) ;
#149 = LINE ( 'NONE', #84, #344 ) ;
#150 = CARTESIAN_POINT ( 'NONE',  ( -9.999999999999998224, -7.500000000000000000, 210.0000000000000284 ) ) ;
#151 = VECTOR ( 'NONE', #66, 1000.000000000000000 ) ;
#152 = CARTESIAN_POINT ( 'NONE',  ( -9.999999999999994671, -14.99999999999999645, 200.0000000000000000 ) ) ;
#153 = DIRECTION ( 'NONE',  ( 0.000000000000000000, 0.000000000000000000, 1.000000000000000000 ) ) ;
#154 = CARTESIAN_POINT ( 'NONE',  ( -10.00000000000000000, -9.999999999999998224, 200.0000000000000000 ) ) ;
#155 = APPLICATION_CONTEXT ( 'automotive_design' ) ;
#156 = EDGE_CURVE ( 'NONE', #465, #393, #52, .T. ) ;
#157 = VECTOR ( 'NONE', #383, 1000.000000000000000 ) ;
#158 = VERTEX_POINT ( 'NONE', #335 ) ;
#159 = DIRECTION ( 'NONE',  ( -1.000000000000000000, 0.000000000000000000, -0.000000000000000000 ) ) ;
#160 = PLANE ( 'NONE',  #398 ) ;
#161 = VECTOR ( 'NONE', #366, 1000.000000000000000 ) ;
#162 = DIRECTION ( 'NONE',  ( -1.000000000000000000, 0.000000000000000000, 0.000000000000000000 ) ) ;
#163 = ORIENTED_EDGE ( 'NONE', *, *, #75, .T. ) ;
#164 = LINE ( 'NONE', #93, #234 ) ;
#165 = VERTEX_POINT ( 'NONE', #267 ) ;
#166 = EDGE_CURVE ( 'NONE', #286, #465, #55, .T. ) ;
#167 = LINE ( 'NONE', #304, #92 ) ;
#168 = DIRECTION ( 'NONE',  ( -1.000000000000000000, 0.000000000000000000, -0.000000000000000000 ) ) ;
#169 =( NAMED_UNIT ( * ) SI_UNIT ( $, .STERADIAN. ) SOLID_ANGLE_UNIT ( ) );
#170 = EDGE_CURVE ( 'NONE', #338, #359, #271, .T. ) ;
#171 = ADVANCED_FACE ( 'NONE', ( #376 ), #195, .F. ) ;
#172 = CARTESIAN_POINT ( 'NONE',  ( 10.00000000000000533, -9.999999999999998224, 200.0000000000000000 ) ) ;
#173 = LINE ( 'NONE', #421, #151 ) ;
#174 = VECTOR ( 'NONE', #235, 1000.000000000000000 ) ;
#175 = CARTESIAN_POINT ( 'NONE',  ( 10.00000000000000000, -4.999999999999820588, 225.0000000000000000 ) ) ;
#176 = VERTEX_POINT ( 'NONE', #343 ) ;
#177 = CARTESIAN_POINT ( 'NONE',  ( 10.00000000000000178, 7.500000000000000000, 210.0000000000000284 ) ) ;
#178 = CARTESIAN_POINT ( 'NONE',  ( 10.00000000000000000, 10.00000000000000178, 200.0000000000000000 ) ) ;
#179 = VERTEX_POINT ( 'NONE', #58 ) ;
#180 = EDGE_CURVE ( 'NONE', #337, #16, #10, .T. ) ;
#181 = PLANE ( 'NONE',  #270 ) ;
#182 = ORIENTED_EDGE ( 'NONE', *, *, #130, .T. ) ;
#183 = FACE_OUTER_BOUND ( 'NONE', #455, .T. ) ;
#184 = LINE ( 'NONE', #76, #443 ) ;
#185 = ORIENTED_EDGE ( 'NONE', *, *, #317, .F. ) ;
#186 = DIRECTION ( 'NONE',  ( 0.000000000000000000, 0.000000000000000000, 1.000000000000000000 ) ) ;
#187 = DIRECTION ( 'NONE',  ( 1.000000000000000000, 0.000000000000000000, 0.000000000000000000 ) ) ;
#188 = UNCERTAINTY_MEASURE_WITH_UNIT (LENGTH_MEASURE( 1.000000000000000082E-05 ), #33, 'distance_accuracy_value', 'NONE');
#189 = EDGE_LOOP ( 'NONE', ( #77, #197, #245, #86 ) ) ;
#190 = FACE_OUTER_BOUND ( 'NONE', #202, .T. ) ;
#191 = CARTESIAN_POINT ( 'NONE',  ( 10.00000000000000000, 4.999999999999827693, 225.0000000000000000 ) ) ;
#192 = CARTESIAN_POINT ( 'NONE',  ( -9.999999999999994671, -14.99999999999999645, 225.0000000000000000 ) ) ;
#193 = ORIENTED_EDGE ( 'NONE', *, *, #214, .F. ) ;
#194 = EDGE_CURVE ( 'NONE', #80, #435, #201, .T. ) ;
#195 = PLANE ( 'NONE',  #361 ) ;
#196 = APPLICATION_CONTEXT ( 'automotive_design' ) ;
#197 = ORIENTED_EDGE ( 'NONE', *, *, #272, .T. ) ;
#198 = DIRECTION ( 'NONE',  ( -0.000000000000000000, -0.000000000000000000, -1.000000000000000000 ) ) ;
#199 = ORIENTED_EDGE ( 'NONE', *, *, #214, .T. ) ;
#200 = VECTOR ( 'NONE', #430, 1000.000000000000000 ) ;
#201 = LINE ( 'NONE', #60, #65 ) ;
#202 = EDGE_LOOP ( 'NONE', ( #390, #411, #119, #233, #326, #281, #182, #425, #34, #228, #441, #252 ) ) ;
#203 = DIRECTION ( 'NONE',  ( -1.000000000000000000, -0.000000000000000000, -0.000000000000000000 ) ) ;
#204 = LINE ( 'NONE', #408, #174 ) ;
#205 = VECTOR ( 'NONE', #90, 1000.000000000000000 ) ;
#206 = DIRECTION ( 'NONE',  ( -0.000000000000000000, -0.000000000000000000, -1.000000000000000000 ) ) ;
#207 = ADVANCED_BREP_SHAPE_REPRESENTATION ( 'LINK3', ( #307, #375 ), #320 ) ;
#208 = ADVANCED_FACE ( 'NONE', ( #94 ), #333, .F. ) ;
#209 = CARTESIAN_POINT ( 'NONE',  ( -9.999999999999998224, -7.500000000000000000, 210.0000000000000284 ) ) ;
#210 = DIRECTION ( 'NONE',  ( 0.000000000000000000, -0.000000000000000000, -1.000000000000000000 ) ) ;
#211 = DIRECTION ( 'NONE',  ( -0.000000000000000000, -0.000000000000000000, 1.000000000000000000 ) ) ;
#212 = FACE_OUTER_BOUND ( 'NONE', #217, .T. ) ;
#213 = DIRECTION ( 'NONE',  ( -0.000000000000000000, 0.7071067811865514585, -0.7071067811865435759 ) ) ;
#214 = EDGE_CURVE ( 'NONE', #438, #435, #125, .T. ) ;
#215 = ORIENTED_EDGE ( 'NONE', *, *, #166, .F. ) ;
#216 = CARTESIAN_POINT ( 'NONE',  ( -10.00000000000000000, 10.00000000000000178, 200.0000000000000000 ) ) ;
#217 = EDGE_LOOP ( 'NONE', ( #462, #404, #300, #223 ) ) ;
#218 = FILL_AREA_STYLE ('',( #426 ) ) ;
#219 = ORIENTED_EDGE ( 'NONE', *, *, #95, .T. ) ;
#220 = CARTESIAN_POINT ( 'NONE',  ( -10.00000000000000000, -9.999999999999998224, 0.000000000000000000 ) ) ;
#221 =( GEOMETRIC_REPRESENTATION_CONTEXT ( 3 ) GLOBAL_UNCERTAINTY_ASSIGNED_CONTEXT ( ( #115 ) ) GLOBAL_UNIT_ASSIGNED_CONTEXT ( ( #47, #114, #399 ) ) REPRESENTATION_CONTEXT ( 'NONE', 'WORKASPACE' ) );
#222 = VECTOR ( 'NONE', #44, 1000.000000000000000 ) ;
#223 = ORIENTED_EDGE ( 'NONE', *, *, #42, .F. ) ;
#224 = LINE ( 'NONE', #3, #433 ) ;
#225 = SHAPE_DEFINITION_REPRESENTATION ( #35, #207 ) ;
#226 = DIRECTION ( 'NONE',  ( 0.000000000000000000, -0.000000000000000000, 1.000000000000000000 ) ) ;
#227 = FACE_OUTER_BOUND ( 'NONE', #231, .T. ) ;
#228 = ORIENTED_EDGE ( 'NONE', *, *, #416, .T. ) ;
#229 = PLANE ( 'NONE',  #277 ) ;
#230 = DIRECTION ( 'NONE',  ( -0.000000000000000000, -0.000000000000000000, -1.000000000000000000 ) ) ;
#231 = EDGE_LOOP ( 'NONE', ( #356, #72, #103, #106 ) ) ;
#232 = DIRECTION ( 'NONE',  ( -0.000000000000000000, -0.7071067811865435759, -0.7071067811865514585 ) ) ;
#233 = ORIENTED_EDGE ( 'NONE', *, *, #382, .F. ) ;
#234 = VECTOR ( 'NONE', #198, 1000.000000000000000 ) ;
#235 = DIRECTION ( 'NONE',  ( -1.000000000000000000, 0.000000000000000000, 0.000000000000000000 ) ) ;
#236 = CARTESIAN_POINT ( 'NONE',  ( -9.999999999999994671, 15.00000000000000355, 200.0000000000000000 ) ) ;
#237 = VECTOR ( 'NONE', #419, 1000.000000000000000 ) ;
#238 = LINE ( 'NONE', #380, #259 ) ;
#239 = ADVANCED_FACE ( 'NONE', ( #88 ), #17, .T. ) ;
#240 = CLOSED_SHELL ( 'NONE', ( #13, #365, #108, #370, #431, #239, #423, #61, #8, #49, #54, #208, #171, #442 ) ) ;
#241 = FILL_AREA_STYLE_COLOUR ( '', #21 ) ;
#242 = CARTESIAN_POINT ( 'NONE',  ( 10.00000000000000178, -7.500000000000000000, 210.0000000000000284 ) ) ;
#243 = FACE_OUTER_BOUND ( 'NONE', #189, .T. ) ;
#244 = EDGE_CURVE ( 'NONE', #176, #338, #204, .T. ) ;
#245 = ORIENTED_EDGE ( 'NONE', *, *, #407, .T. ) ;
#246 = COLOUR_RGB ( '',0.7921568627450980005, 0.8196078431372548767, 0.9333333333333333481 ) ;
#247 = LINE ( 'NONE', #107, #384 ) ;
#248 = ORIENTED_EDGE ( 'NONE', *, *, #135, .F. ) ;
#249 = VERTEX_POINT ( 'NONE', #295 ) ;
#250 = PLANE ( 'NONE',  #296 ) ;
#251 = CARTESIAN_POINT ( 'NONE',  ( 10.00000000000000000, -9.999999999999998224, 200.0000000000000000 ) ) ;
#252 = ORIENTED_EDGE ( 'NONE', *, *, #285, .T. ) ;
#253 = DIRECTION ( 'NONE',  ( 0.000000000000000000, 1.000000000000000000, 0.000000000000000000 ) ) ;
#254 = PRODUCT_DEFINITION ( 'UNKNOWN', '', #310, #1 ) ;
#255 = VECTOR ( 'NONE', #81, 1000.000000000000000 ) ;
#256 = SURFACE_SIDE_STYLE ('',( #138 ) ) ;
#257 = FACE_OUTER_BOUND ( 'NONE', #422, .T. ) ;
#258 = DIRECTION ( 'NONE',  ( 0.000000000000000000, 1.000000000000000000, 0.000000000000000000 ) ) ;
#259 = VECTOR ( 'NONE', #206, 1000.000000000000000 ) ;
#260 = ORIENTED_EDGE ( 'NONE', *, *, #170, .F. ) ;
#261 = FACE_OUTER_BOUND ( 'NONE', #264, .T. ) ;
#262 = AXIS2_PLACEMENT_3D ( 'NONE', #323, #111, #385 ) ;
#263 = CARTESIAN_POINT ( 'NONE',  ( 0.000000000000000000, 4.999999999999827693, 225.0000000000000000 ) ) ;
#264 = EDGE_LOOP ( 'NONE', ( #112, #199, #126, #56 ) ) ;
#265 = DIRECTION ( 'NONE',  ( 1.000000000000000000, 0.000000000000000000, 0.000000000000000000 ) ) ;
#266 = VERTEX_POINT ( 'NONE', #437 ) ;
#267 = CARTESIAN_POINT ( 'NONE',  ( 10.00000000000000000, -9.999999999999998224, 0.000000000000000000 ) ) ;
#268 = ORIENTED_EDGE ( 'NONE', *, *, #22, .F. ) ;
#269 = AXIS2_PLACEMENT_3D ( 'NONE', #15, #415, #159 ) ;
#270 = AXIS2_PLACEMENT_3D ( 'NONE', #351, #391, #39 ) ;
#271 = LINE ( 'NONE', #439, #311 ) ;
#272 = EDGE_CURVE ( 'NONE', #129, #179, #306, .T. ) ;
#273 = CARTESIAN_POINT ( 'NONE',  ( -10.00000000000000000, -9.999999999999998224, 200.0000000000000000 ) ) ;
#274 = VERTEX_POINT ( 'NONE', #444 ) ;
#275 = EDGE_CURVE ( 'NONE', #337, #31, #128, .T. ) ;
#276 = PLANE ( 'NONE',  #127 ) ;
#277 = AXIS2_PLACEMENT_3D ( 'NONE', #372, #53, #14 ) ;
#278 = CARTESIAN_POINT ( 'NONE',  ( -10.00000000000000000, -9.999999999999998224, 0.000000000000000000 ) ) ;
#279 = DIRECTION ( 'NONE',  ( -0.000000000000000000, -1.000000000000000000, -0.000000000000000000 ) ) ;
#280 =( GEOMETRIC_REPRESENTATION_CONTEXT ( 3 ) GLOBAL_UNCERTAINTY_ASSIGNED_CONTEXT ( ( #400 ) ) GLOBAL_UNIT_ASSIGNED_CONTEXT ( ( #453, #139, #169 ) ) REPRESENTATION_CONTEXT ( 'NONE', 'WORKASPACE' ) );
#281 = ORIENTED_EDGE ( 'NONE', *, *, #403, .T. ) ;
#282 = CARTESIAN_POINT ( 'NONE',  ( -10.00000000000000000, -9.999999999999998224, 200.0000000000000000 ) ) ;
#283 = ORIENTED_EDGE ( 'NONE', *, *, #357, .T. ) ;
#284 = PRODUCT ( 'LINK3', 'LINK3', '', ( #290 ) ) ;
#285 = EDGE_CURVE ( 'NONE', #438, #274, #167, .T. ) ;
#286 = VERTEX_POINT ( 'NONE', #236 ) ;
#287 = DIRECTION ( 'NONE',  ( 0.000000000000000000, 0.000000000000000000, -1.000000000000000000 ) ) ;
#288 = ORIENTED_EDGE ( 'NONE', *, *, #124, .T. ) ;
#289 = DIRECTION ( 'NONE',  ( 0.000000000000000000, -1.000000000000000000, 0.000000000000000000 ) ) ;
#290 = PRODUCT_CONTEXT ( 'NONE', #196, 'mechanical' ) ;
#291 = DIRECTION ( 'NONE',  ( -0.000000000000000000, 1.000000000000000000, 0.000000000000000000 ) ) ;
#292 = VECTOR ( 'NONE', #203, 1000.000000000000000 ) ;
#293 = DIRECTION ( 'NONE',  ( 0.000000000000000000, 1.000000000000000000, 0.000000000000000000 ) ) ;
#294 = EDGE_LOOP ( 'NONE', ( #268, #316, #352, #9 ) ) ;
#295 = CARTESIAN_POINT ( 'NONE',  ( 10.00000000000000533, 15.00000000000000355, 200.0000000000000000 ) ) ;
#296 = AXIS2_PLACEMENT_3D ( 'NONE', #83, #258, #226 ) ;
#297 = EDGE_CURVE ( 'NONE', #176, #80, #379, .T. ) ;
#298 = ORIENTED_EDGE ( 'NONE', *, *, #135, .T. ) ;
#299 = DIRECTION ( 'NONE',  ( -0.000000000000000000, -1.000000000000000000, -0.000000000000000000 ) ) ;
#300 = ORIENTED_EDGE ( 'NONE', *, *, #416, .F. ) ;
#301 = DIRECTION ( 'NONE',  ( 1.000000000000000000, 0.000000000000000000, 0.000000000000000000 ) ) ;
#302 = VECTOR ( 'NONE', #25, 1000.000000000000000 ) ;
#303 = EDGE_LOOP ( 'NONE', ( #146, #324, #215, #406 ) ) ;
#304 = CARTESIAN_POINT ( 'NONE',  ( -9.999999999999994671, -14.99999999999999645, 200.0000000000000000 ) ) ;
#305 = EDGE_CURVE ( 'NONE', #16, #387, #173, .T. ) ;
#306 = LINE ( 'NONE', #122, #28 ) ;
#307 = MANIFOLD_SOLID_BREP ( 'Chamfer3', #240 ) ;
#308 = DIRECTION ( 'NONE',  ( 1.000000000000000000, 0.000000000000000000, 0.000000000000000000 ) ) ;
#309 = DIRECTION ( 'NONE',  ( -0.000000000000000000, -1.000000000000000000, -0.000000000000000000 ) ) ;
#310 = PRODUCT_DEFINITION_FORMATION_WITH_SPECIFIED_SOURCE ( 'ANY', '', #284, .NOT_KNOWN. ) ;
#311 = VECTOR ( 'NONE', #12, 1000.000000000000000 ) ;
#312 = SURFACE_STYLE_USAGE ( .BOTH. , #64 ) ;
#313 = DIRECTION ( 'NONE',  ( -0.000000000000000000, -0.7071067811865514585, -0.7071067811865435759 ) ) ;
#314 = EDGE_LOOP ( 'NONE', ( #260, #74, #445, #185 ) ) ;
#315 = LINE ( 'NONE', #457, #347 ) ;
#316 = ORIENTED_EDGE ( 'NONE', *, *, #272, .F. ) ;
#317 = EDGE_CURVE ( 'NONE', #359, #158, #350, .T. ) ;
#318 = ORIENTED_EDGE ( 'NONE', *, *, #194, .T. ) ;
#319 = DIRECTION ( 'NONE',  ( -0.000000000000000000, -0.000000000000000000, 1.000000000000000000 ) ) ;
#320 =( GEOMETRIC_REPRESENTATION_CONTEXT ( 3 ) GLOBAL_UNCERTAINTY_ASSIGNED_CONTEXT ( ( #188 ) ) GLOBAL_UNIT_ASSIGNED_CONTEXT ( ( #33, #460, #71 ) ) REPRESENTATION_CONTEXT ( 'NONE', 'WORKASPACE' ) );
#321 = VECTOR ( 'NONE', #299, 1000.000000000000000 ) ;
#322 = EDGE_CURVE ( 'NONE', #31, #387, #32, .T. ) ;
#323 = CARTESIAN_POINT ( 'NONE',  ( 0.000000000000000000, -4.999999999999820588, 225.0000000000000000 ) ) ;
#324 = ORIENTED_EDGE ( 'NONE', *, *, #19, .T. ) ;
#325 = DIRECTION ( 'NONE',  ( -0.000000000000000000, -0.7071067811865514585, 0.7071067811865435759 ) ) ;
#326 = ORIENTED_EDGE ( 'NONE', *, *, #322, .T. ) ;
#327 = CARTESIAN_POINT ( 'NONE',  ( 10.00000000000000000, -9.999999999999998224, 200.0000000000000000 ) ) ;
#328 = VECTOR ( 'NONE', #308, 1000.000000000000000 ) ;
#329 = DIRECTION ( 'NONE',  ( -1.000000000000000000, -0.000000000000000000, -0.000000000000000000 ) ) ;
#330 = VECTOR ( 'NONE', #24, 1000.000000000000000 ) ;
#331 = CARTESIAN_POINT ( 'NONE',  ( 10.00000000000000000, -9.999999999999998224, 0.000000000000000000 ) ) ;
#332 = EDGE_LOOP ( 'NONE', ( #141, #436, #51, #318, #413, #362, #248, #427, #374, #109, #123, #120 ) ) ;
#333 = PLANE ( 'NONE',  #121 ) ;
#334 = FACE_OUTER_BOUND ( 'NONE', #332, .T. ) ;
#335 = CARTESIAN_POINT ( 'NONE',  ( 10.00000000000000178, -7.500000000000000000, 222.4999999999998579 ) ) ;
#336 = EDGE_CURVE ( 'NONE', #429, #158, #26, .T. ) ;
#337 = VERTEX_POINT ( 'NONE', #177 ) ;
#338 = VERTEX_POINT ( 'NONE', #68 ) ;
#339 = CARTESIAN_POINT ( 'NONE',  ( 0.000000000000000000, 0.000000000000000000, 210.0000000000000284 ) ) ;
#340 = EDGE_LOOP ( 'NONE', ( #91, #409, #163, #219 ) ) ;
#341 = DIRECTION ( 'NONE',  ( 0.000000000000000000, 0.000000000000000000, -1.000000000000000000 ) ) ;
#342 = EDGE_CURVE ( 'NONE', #249, #286, #315, .T. ) ;
#343 = CARTESIAN_POINT ( 'NONE',  ( 10.00000000000000533, -14.99999999999999645, 214.9999999999999432 ) ) ;
#344 = VECTOR ( 'NONE', #329, 1000.000000000000000 ) ;
#345 = LINE ( 'NONE', #23, #328 ) ;
#346 = CARTESIAN_POINT ( 'NONE',  ( -10.00000000000000000, 10.00000000000000178, 200.0000000000000000 ) ) ;
#347 = VECTOR ( 'NONE', #142, 1000.000000000000000 ) ;
#348 = DIRECTION ( 'NONE',  ( 0.000000000000000000, -0.000000000000000000, 1.000000000000000000 ) ) ;
#349 = CARTESIAN_POINT ( 'NONE',  ( -10.00000000000000000, -9.999999999999998224, 200.0000000000000000 ) ) ;
#350 = LINE ( 'NONE', #386, #237 ) ;
#351 = CARTESIAN_POINT ( 'NONE',  ( 0.000000000000000000, 0.000000000000000000, 0.000000000000000000 ) ) ;
#352 = ORIENTED_EDGE ( 'NONE', *, *, #403, .F. ) ;
#353 = EDGE_CURVE ( 'NONE', #438, #43, #238, .T. ) ;
#354 = DIRECTION ( 'NONE',  ( 0.000000000000000000, 1.000000000000000000, 0.000000000000000000 ) ) ;
#355 = PRESENTATION_LAYER_ASSIGNMENT (  '', '', ( #45 ) ) ;
#356 = ORIENTED_EDGE ( 'NONE', *, *, #104, .T. ) ;
#357 = EDGE_CURVE ( 'NONE', #43, #165, #345, .T. ) ;
#358 = CARTESIAN_POINT ( 'NONE',  ( -9.999999999999998224, 7.500000000000000000, 222.4999999999998579 ) ) ;
#359 = VERTEX_POINT ( 'NONE', #450 ) ;
#360 = LINE ( 'NONE', #192, #200 ) ;
#361 = AXIS2_PLACEMENT_3D ( 'NONE', #263, #232, #162 ) ;
#362 = ORIENTED_EDGE ( 'NONE', *, *, #79, .T. ) ;
#363 = LINE ( 'NONE', #7, #5 ) ;
#364 = VECTOR ( 'NONE', #313, 1000.000000000000000 ) ;
#365 = ADVANCED_FACE ( 'NONE', ( #134 ), #276, .F. ) ;
#366 = DIRECTION ( 'NONE',  ( -1.000000000000000000, -0.000000000000000000, -0.000000000000000000 ) ) ;
#367 = AXIS2_PLACEMENT_3D ( 'NONE', #464, #73, #210 ) ;
#368 = PLANE ( 'NONE',  #145 ) ;
#369 = VERTEX_POINT ( 'NONE', #209 ) ;
#370 = ADVANCED_FACE ( 'NONE', ( #183 ), #395, .F. ) ;
#371 = LINE ( 'NONE', #20, #461 ) ;
#372 = CARTESIAN_POINT ( 'NONE',  ( 0.000000000000000000, 0.000000000000000000, 200.0000000000000000 ) ) ;
#373 = CARTESIAN_POINT ( 'NONE',  ( -10.00000000000000000, 10.00000000000000178, 200.0000000000000000 ) ) ;
#374 = ORIENTED_EDGE ( 'NONE', *, *, #407, .F. ) ;
#375 = AXIS2_PLACEMENT_3D ( 'NONE', #85, #153, #187 ) ;
#376 = FACE_OUTER_BOUND ( 'NONE', #294, .T. ) ;
#377 = EDGE_LOOP ( 'NONE', ( #40, #11, #89, #298 ) ) ;
#378 = CARTESIAN_POINT ( 'NONE',  ( -9.999999999999998224, 7.500000000000000000, 210.0000000000000284 ) ) ;
#379 = LINE ( 'NONE', #63, #330 ) ;
#380 = CARTESIAN_POINT ( 'NONE',  ( -10.00000000000000000, -9.999999999999998224, 200.0000000000000000 ) ) ;
#381 = VECTOR ( 'NONE', #265, 1000.000000000000000 ) ;
#382 = EDGE_CURVE ( 'NONE', #31, #369, #247, .T. ) ;
#383 = DIRECTION ( 'NONE',  ( -0.000000000000000000, -0.000000000000000000, 1.000000000000000000 ) ) ;
#384 = VECTOR ( 'NONE', #309, 1000.000000000000000 ) ;
#385 = DIRECTION ( 'NONE',  ( 1.000000000000000000, -0.000000000000000000, 0.000000000000000000 ) ) ;
#386 = CARTESIAN_POINT ( 'NONE',  ( 0.000000000000000000, -7.500000000000000000, 222.4999999999998579 ) ) ;
#387 = VERTEX_POINT ( 'NONE', #358 ) ;
#388 = PLANE ( 'NONE',  #367 ) ;
#389 = PRODUCT_RELATED_PRODUCT_CATEGORY ( 'part', '', ( #284 ) ) ;
#390 = ORIENTED_EDGE ( 'NONE', *, *, #75, .F. ) ;
#391 = DIRECTION ( 'NONE',  ( 0.000000000000000000, 0.000000000000000000, -1.000000000000000000 ) ) ;
#392 = VECTOR ( 'NONE', #211, 1000.000000000000000 ) ;
#393 = VERTEX_POINT ( 'NONE', #454 ) ;
#394 = LINE ( 'NONE', #191, #418 ) ;
#395 = PLANE ( 'NONE',  #62 ) ;
#396 = VERTEX_POINT ( 'NONE', #178 ) ;
#397 = LINE ( 'NONE', #152, #255 ) ;
#398 = AXIS2_PLACEMENT_3D ( 'NONE', #327, #46, #186 ) ;
#399 =( NAMED_UNIT ( * ) SI_UNIT ( $, .STERADIAN. ) SOLID_ANGLE_UNIT ( ) );
#400 = UNCERTAINTY_MEASURE_WITH_UNIT (LENGTH_MEASURE( 1.000000000000000082E-05 ), #453, 'distance_accuracy_value', 'NONE');
#401 = DIRECTION ( 'NONE',  ( 0.000000000000000000, -0.000000000000000000, 1.000000000000000000 ) ) ;
#402 = PLANE ( 'NONE',  #57 ) ;
#403 = EDGE_CURVE ( 'NONE', #387, #129, #184, .T. ) ;
#404 = ORIENTED_EDGE ( 'NONE', *, *, #357, .F. ) ;
#405 = AXIS2_PLACEMENT_3D ( 'NONE', #432, #291, #401 ) ;
#406 = ORIENTED_EDGE ( 'NONE', *, *, #342, .F. ) ;
#407 = EDGE_CURVE ( 'NONE', #179, #249, #420, .T. ) ;
#408 = CARTESIAN_POINT ( 'NONE',  ( -9.999999999999994671, -14.99999999999999645, 214.9999999999999432 ) ) ;
#409 = ORIENTED_EDGE ( 'NONE', *, *, #244, .T. ) ;
#410 = CARTESIAN_POINT ( 'NONE',  ( 10.00000000000000178, 7.500000000000000000, 210.0000000000000284 ) ) ;
#411 = ORIENTED_EDGE ( 'NONE', *, *, #170, .T. ) ;
#412 = DIRECTION ( 'NONE',  ( 0.000000000000000000, 1.000000000000000000, 0.000000000000000000 ) ) ;
#413 = ORIENTED_EDGE ( 'NONE', *, *, #451, .T. ) ;
#414 = DIRECTION ( 'NONE',  ( -0.000000000000000000, -0.000000000000000000, 1.000000000000000000 ) ) ;
#415 = DIRECTION ( 'NONE',  ( 0.000000000000000000, 0.000000000000000000, -1.000000000000000000 ) ) ;
#416 = EDGE_CURVE ( 'NONE', #393, #43, #143, .T. ) ;
#417 = DIRECTION ( 'NONE',  ( 0.000000000000000000, -1.000000000000000000, 0.000000000000000000 ) ) ;
#418 = VECTOR ( 'NONE', #325, 1000.000000000000000 ) ;
#419 = DIRECTION ( 'NONE',  ( 1.000000000000000000, -0.000000000000000000, -0.000000000000000000 ) ) ;
#420 = LINE ( 'NONE', #100, #302 ) ;
#421 = CARTESIAN_POINT ( 'NONE',  ( 0.000000000000000000, 7.500000000000000000, 222.4999999999998579 ) ) ;
#422 = EDGE_LOOP ( 'NONE', ( #459, #133, #87, #148 ) ) ;
#423 = ADVANCED_FACE ( 'NONE', ( #243 ), #388, .F. ) ;
#424 = LINE ( 'NONE', #251, #137 ) ;
#425 = ORIENTED_EDGE ( 'NONE', *, *, #166, .T. ) ;
#426 = FILL_AREA_STYLE_COLOUR ( '', #246 ) ;
#427 = ORIENTED_EDGE ( 'NONE', *, *, #38, .T. ) ;
#428 = LINE ( 'NONE', #448, #205 ) ;
#429 = VERTEX_POINT ( 'NONE', #69 ) ;
#430 = DIRECTION ( 'NONE',  ( -0.000000000000000000, -0.000000000000000000, -1.000000000000000000 ) ) ;
#431 = ADVANCED_FACE ( 'NONE', ( #212 ), #181, .T. ) ;
#432 = CARTESIAN_POINT ( 'NONE',  ( -9.999999999999998224, 7.500000000000000000, 210.0000000000000284 ) ) ;
#433 = VECTOR ( 'NONE', #293, 1000.000000000000000 ) ;
#434 = PLANE ( 'NONE',  #405 ) ;
#435 = VERTEX_POINT ( 'NONE', #172 ) ;
#436 = ORIENTED_EDGE ( 'NONE', *, *, #456, .T. ) ;
#437 = CARTESIAN_POINT ( 'NONE',  ( 10.00000000000000000, 10.00000000000000178, 0.000000000000000000 ) ) ;
#438 = VERTEX_POINT ( 'NONE', #349 ) ;
#439 = CARTESIAN_POINT ( 'NONE',  ( -10.00000000000000000, -4.999999999999820588, 225.0000000000000000 ) ) ;
#440 = ORIENTED_EDGE ( 'NONE', *, *, #382, .T. ) ;
#441 = ORIENTED_EDGE ( 'NONE', *, *, #353, .F. ) ;
#442 = ADVANCED_FACE ( 'NONE', ( #140 ), #29, .F. ) ;
#443 = VECTOR ( 'NONE', #213, 1000.000000000000000 ) ;
#444 = CARTESIAN_POINT ( 'NONE',  ( -9.999999999999994671, -14.99999999999999645, 200.0000000000000000 ) ) ;
#445 = ORIENTED_EDGE ( 'NONE', *, *, #456, .F. ) ;
#446 = MECHANICAL_DESIGN_GEOMETRIC_PRESENTATION_REPRESENTATION (  '', ( #27 ), #221 ) ;
#447 = DIRECTION ( 'NONE',  ( -0.000000000000000000, -1.000000000000000000, -0.000000000000000000 ) ) ;
#448 = CARTESIAN_POINT ( 'NONE',  ( 10.00000000000000178, -7.500000000000000000, 210.0000000000000284 ) ) ;
#449 = EDGE_LOOP ( 'NONE', ( #288, #2, #440, #37 ) ) ;
#450 = CARTESIAN_POINT ( 'NONE',  ( -9.999999999999998224, -7.500000000000000000, 222.4999999999998579 ) ) ;
#451 = EDGE_CURVE ( 'NONE', #435, #165, #424, .T. ) ;
#452 = VECTOR ( 'NONE', #253, 1000.000000000000000 ) ;
#453 =( LENGTH_UNIT ( ) NAMED_UNIT ( * ) SI_UNIT ( .MILLI., .METRE. ) );
#454 = CARTESIAN_POINT ( 'NONE',  ( -10.00000000000000000, 10.00000000000000178, 0.000000000000000000 ) ) ;
#455 = EDGE_LOOP ( 'NONE', ( #283, #144, #193, #59 ) ) ;
#456 = EDGE_CURVE ( 'NONE', #158, #176, #105, .T. ) ;
#457 = CARTESIAN_POINT ( 'NONE',  ( -9.999999999999994671, 15.00000000000000355, 200.0000000000000000 ) ) ;
#458 = APPLICATION_PROTOCOL_DEFINITION ( 'draft international standard', 'automotive_design', 1998, #196 ) ;
#459 = ORIENTED_EDGE ( 'NONE', *, *, #180, .T. ) ;
#460 =( NAMED_UNIT ( * ) PLANE_ANGLE_UNIT ( ) SI_UNIT ( $, .RADIAN. ) );
#461 = VECTOR ( 'NONE', #230, 1000.000000000000000 ) ;
#462 = ORIENTED_EDGE ( 'NONE', *, *, #79, .F. ) ;
#463 = LINE ( 'NONE', #117, #161 ) ;
#464 = CARTESIAN_POINT ( 'NONE',  ( -9.999999999999994671, 15.00000000000000355, 225.0000000000000000 ) ) ;
#465 = VERTEX_POINT ( 'NONE', #216 ) ;
#466 = DIRECTION ( 'NONE',  ( 0.000000000000000000, -0.000000000000000000, -1.000000000000000000 ) ) ;
ENDSEC;
END-ISO-10303-21;
